<svg xmlns="http://www.w3.org/2000/svg" xmlns:xlink="http://www.w3.org/1999/xlink" width="85" height="85" viewBox="0 0 85 85">
  <defs>
    <clipPath id="clip-path">
      <rect id="Rectángulo_361649" data-name="Rectángulo 361649" width="85" height="85" transform="translate(758 614)" fill="#636363"/>
    </clipPath>
    <clipPath id="clip-path-2">
      <path id="path10614" d="M0-85H85V0H0Z"/>
    </clipPath>
  </defs>
  <g id="Enmascarar_grupo_998591" data-name="Enmascarar grupo 998591" transform="translate(-758 -614)" clip-path="url(#clip-path)">
    <g id="g10608" transform="translate(758 699)">
      <g id="g10610">
        <g id="g10612" clip-path="url(#clip-path-2)">
          <g id="g10618" transform="translate(75.454 -1.245)">
            <path id="path10620" d="M0,0H-65.908a33,33,0,0,1,30.65-32.874q1.143-.08,2.3-.08A32.992,32.992,0,0,1,0,0" fill="#62dbfb"/>
          </g>
          <g id="g10622" transform="translate(19.504 -24.823)">
            <path id="path10624" d="M0,0A32.852,32.852,0,0,0-9.958,23.578h-6.971a1.328,1.328,0,0,1-1.33-1.363A41.142,41.142,0,0,1-5.9-5.9l2.786,2.786.4.4Z" fill="#f07181"/>
          </g>
          <g id="g10626" transform="translate(42.5 -42.522)">
            <path id="path10628" d="M0,0V8.322A32.84,32.84,0,0,0-23,17.7l-3.078-3.078-.692-.692L-28.893,11.8A41.138,41.138,0,0,1-4.663.261,41.588,41.588,0,0,1,0,0" fill="#ffe177"/>
          </g>
          <g id="g10630" transform="translate(71.393 -30.72)">
            <path id="path10632" d="M0,0-5.9,5.9a32.84,32.84,0,0,0-23-9.377V-11.8q1.041,0,2.069.051h.007A41.137,41.137,0,0,1,0,0" fill="#ffc344"/>
          </g>
          <g id="g10634" transform="translate(71.393 -30.719)">
            <path id="path10636" d="M0,0-5.9,5.9A32.856,32.856,0,0,1,4.061,29.474h6.971a1.328,1.328,0,0,0,1.33-1.363A41.143,41.143,0,0,0,0,0" fill="#91deb6"/>
          </g>
          <g id="g10638" transform="translate(83.755 -81.466)">
            <path id="path10640" d="M0,0V12.513A2.3,2.3,0,0,1-2.3,14.8a2.3,2.3,0,0,1-2.3-2.289V7.122a.664.664,0,0,0-1.132-.471l-21.7,21.584a4.586,4.586,0,0,1-3.256,1.341,4.583,4.583,0,0,1-3.254-1.341L-46.753,15.5a1.329,1.329,0,0,0-1.873,0L-78.58,45.289a2.306,2.306,0,0,1-1.629.671,2.3,2.3,0,0,1-1.627-.671,2.282,2.282,0,0,1,0-3.237l30.891-30.721a4.626,4.626,0,0,1,6.509,0l12.806,12.737a1.31,1.31,0,0,0,.956.383,1.314,1.314,0,0,0,.916-.383L-9,3.423a.65.65,0,0,0,.2-.428.666.666,0,0,0-.666-.707h-5.417A2.3,2.3,0,0,1-17.186,0a2.3,2.3,0,0,1,2.3-2.289H-2.3A2.3,2.3,0,0,1,0,0" fill="#f07181"/>
          </g>
          <g id="g10642" transform="translate(77.571 -77.302)">
            <path id="path10644" d="M0,0-21.555,21.268a1.392,1.392,0,0,1-1.947,0l-.986-.981a1.314,1.314,0,0,0,.916-.383L-2.814-.74a.65.65,0,0,0,.2-.428H-.485A.683.683,0,0,1,0,0" fill="#eb5569"/>
          </g>
          <g id="g10646" transform="translate(38.14 -70.983)">
            <path id="path10648" d="M0,0A4.536,4.536,0,0,0-1.18.848L-32.071,31.57a2.28,2.28,0,0,0-.383,2.729l-.511.508a2.306,2.306,0,0,1-1.629.671,2.3,2.3,0,0,1-1.627-.671,2.282,2.282,0,0,1,0-3.237L-5.331.848A4.63,4.63,0,0,1,0,0" fill="#eb5569"/>
          </g>
          <g id="g10650" transform="translate(66.569 -81.466)">
            <path id="path10652" d="M0,0A2.3,2.3,0,0,1,2.3-2.289h4.15A2.3,2.3,0,0,0,4.15,0a2.3,2.3,0,0,0,2.3,2.288H2.3A2.3,2.3,0,0,1,0,0" fill="#eb5569"/>
          </g>
          <g id="g10654" transform="translate(61.323 -17.913)">
            <path id="path10656" d="M0,0A2.152,2.152,0,0,1-.54,1.428l-13.442,15.24h-2.95L-20.39,13.21-3.583-1.615a2.156,2.156,0,0,1,2.952.091A2.148,2.148,0,0,1,0,0" fill="#7ca1b1"/>
          </g>
          <g id="g10658" transform="translate(45.083 -4.703)">
            <path id="path10660" d="M0,0,16.028-14.138a2.145,2.145,0,0,0-.419-.6,2.156,2.156,0,0,0-2.952-.091L-4.15,0-.692,3.458h2.95L2.82,2.82Z" fill="#678d98"/>
          </g>
          <g id="g10662" transform="translate(48.726 -1.245)">
            <path id="path10664" d="M0,0H-12.451A6.226,6.226,0,0,1-6.226-6.226,6.226,6.226,0,0,1,0,0" fill="#d8ecfe"/>
          </g>
          <g id="g10666" transform="translate(44.575 -7.115)">
            <path id="path10668" d="M0,0A6.212,6.212,0,0,0-2.075-.356,6.226,6.226,0,0,0-8.3,5.87h4.15A6.227,6.227,0,0,1,0,0" fill="#c4e2ff"/>
          </g>
          <g id="g10670" transform="translate(40.196 -34.12)">
            <path id="path10672" d="M0,0A37.563,37.563,0,0,0-23.84,32.874h-6.81A33,33,0,0,1,0,0" fill="#01d0fb"/>
          </g>
          <g id="g10674" transform="translate(16.128 -27.534)">
            <path id="path10676" d="M0,0A43.48,43.48,0,0,0-9.423,25.731a1.33,1.33,0,0,0,.1.558h-4.233a1.328,1.328,0,0,1-1.33-1.363A41.142,41.142,0,0,1-2.522-3.186L.264-.4A2.926,2.926,0,0,1,0,0" fill="#eb5569"/>
          </g>
          <g id="g10678" transform="translate(37.837 -42.261)">
            <path id="path10680" d="M0,0A43.721,43.721,0,0,0-21.411,14.36l-.692-.692-2.127-2.127A41.138,41.138,0,0,1,0,0" fill="#ffd15c"/>
          </g>
          <g id="g10682" transform="translate(71.394 -30.721)">
            <path id="path10684" d="M0,0-5.9,5.9" fill="none" stroke="#000" stroke-linecap="round" stroke-linejoin="round" stroke-miterlimit="10" stroke-width="2.49"/>
          </g>
          <g id="g10686" transform="translate(19.577 -24.749)">
            <path id="path10688" d="M0,0-5.972-5.972" fill="none" stroke="#000" stroke-linecap="round" stroke-linejoin="round" stroke-miterlimit="10" stroke-width="2.49"/>
          </g>
          <g id="g10690" transform="translate(63.552 -1.245)">
            <path id="path10692" d="M0,0H18.873A1.328,1.328,0,0,0,20.2-1.363,41.279,41.279,0,0,0-21.052-41.276,41.279,41.279,0,0,0-62.307-1.363,1.328,1.328,0,0,0-60.978,0H-5.811" fill="none" stroke="#000" stroke-linecap="round" stroke-linejoin="round" stroke-miterlimit="10" stroke-width="2.49"/>
          </g>
          <g id="g10694" transform="translate(9.546 -1.245)">
            <path id="path10696" d="M0,0A32.954,32.954,0,0,1,65.908,0" fill="none" stroke="#000" stroke-linecap="round" stroke-linejoin="round" stroke-miterlimit="10" stroke-width="2.49"/>
          </g>
          <g id="g10698" transform="translate(43.893 -7.315)">
            <path id="path10700" d="M0,0,13.847-12.214a2.156,2.156,0,0,1,2.952.091A2.148,2.148,0,0,1,17.43-10.6a2.152,2.152,0,0,1-.54,1.428L4.677,4.677" fill="none" stroke="#000" stroke-linecap="round" stroke-linejoin="round" stroke-miterlimit="10" stroke-width="2.49"/>
          </g>
          <g id="g10702" transform="translate(42.5 -42.5)">
            <path id="path10704" d="M0,0V8.3" fill="none" stroke="#000" stroke-linecap="round" stroke-linejoin="round" stroke-miterlimit="10" stroke-width="2.49"/>
          </g>
          <g id="g10706" transform="translate(36.274 -1.245)">
            <path id="path10708" d="M0,0A6.226,6.226,0,0,1,12.451,0" fill="none" stroke="#000" stroke-linecap="round" stroke-linejoin="round" stroke-miterlimit="10" stroke-width="2.49"/>
          </g>
          <g id="g10710" transform="translate(67.547 -64.399)">
            <path id="path10712" d="M0,0,10.472-10.416a.664.664,0,0,1,1.132.471v5.391a2.3,2.3,0,0,0,2.3,2.289,2.3,2.3,0,0,0,2.3-2.289V-17.066a2.3,2.3,0,0,0-2.3-2.289H1.323a2.3,2.3,0,0,0-2.3,2.289,2.3,2.3,0,0,0,2.3,2.288H6.74a.665.665,0,0,1,.47,1.136L-13.549,7a1.329,1.329,0,0,1-1.873,0L-28.228-5.736a4.626,4.626,0,0,0-6.509,0L-65.628,24.985a2.282,2.282,0,0,0,0,3.237A2.3,2.3,0,0,0-64,28.893a2.306,2.306,0,0,0,1.629-.671l29.954-29.79a1.329,1.329,0,0,1,1.873,0l12.806,12.735a4.583,4.583,0,0,0,3.254,1.341,4.586,4.586,0,0,0,3.256-1.341L-4.121,4.1" fill="none" stroke="#000" stroke-linecap="round" stroke-linejoin="round" stroke-miterlimit="10" stroke-width="2.49"/>
          </g>
        </g>
      </g>
    </g>
  </g>
</svg>
