<svg xmlns="http://www.w3.org/2000/svg" width="863" height="474.521" viewBox="0 0 863 474.521">
  <g id="Grupo_1029814" data-name="Grupo 1029814" transform="translate(-390 -5599.125)">
    <g id="Grupo_1029361" data-name="Grupo 1029361" transform="translate(0 72)">
      <path id="Trazado_775500" data-name="Trazado 775500" d="M194.524,472.583q-6.259-7.138-12.046-14.694a32.327,32.327,0,0,0-25.661-12.667c-19.4-.019-49.017-.019-49.017-.019a35,35,0,0,1,0-70H218.4a35,35,0,1,0,0-70H35a35,35,0,0,1,0-70H161a35,35,0,1,0,0-70H92.4a35,35,0,0,1,0-70h89.972A32.346,32.346,0,0,0,205.6,85.37,283.765,283.765,0,0,1,408.8,0C516.6,0,610.5,60,658.88,148.388a32.318,32.318,0,0,0,28.342,16.786c21.259.028,51.978.028,51.978.028a35,35,0,1,1,0,70H670.6a35,35,0,1,0,0,70H784a35,35,0,1,1,0,70H701.39A32.345,32.345,0,0,0,671.576,395a285.02,285.02,0,0,1-48.514,77.579Z" transform="translate(391 5527.123)" fill="#d3d3d3" fill-rule="evenodd"/>
      <path id="Trazado_775501" data-name="Trazado 775501" d="M1574.674,1818.773H1161.94a1.941,1.941,0,0,0,0,3.882h412.735a1.941,1.941,0,0,0,0-3.882" transform="translate(-468.829 4178.992)" fill="#12263f" fill-rule="evenodd"/>
      <path id="Trazado_775502" data-name="Trazado 775502" d="M599.965,1818.773H431.7a1.941,1.941,0,0,0,0,3.882h168.26a1.941,1.941,0,0,0,0-3.882" transform="translate(72.445 4178.992)" fill="#12263f" fill-rule="evenodd"/>
      <path id="Trazado_775520" data-name="Trazado 775520" d="M823.636,665.053c-3.341-.008-6.478-.125-8.833-.334L675.82,652.357c-1.082-.094-10.581-1.06-10.581-5.437V284.8c0-2.535,3.035-3.989,8.328-3.989.842,0,1.717.04,2.6.118l138.982,12.36c2.255.2,5.274.314,8.5.318h.239c3.254,0,6.3-.113,8.582-.318l138.985-12.361c2.378-.212,5.548-.329,8.922-.329q.922,0,1.837.012c2.812.035,5.311.146,7.23.318l138.983,12.36c1.771.159,10.6,1.164,10.6,5.439V660.849c0,2.536-3.038,3.992-8.333,3.992-.846,0-1.724-.04-2.609-.119L989.094,652.358c-1.8-.162-4.2-.265-6.936-.3-.586-.008-1.178-.012-1.771-.012-3.279,0-6.331.111-8.591.313L832.81,664.721c-2.39.216-5.561.334-8.927.334h-.247Z" transform="translate(-102.097 5319.133)" fill="#fff"/>
      <path id="Trazado_775521" data-name="Trazado 775521" d="M818.006,662.043c-3.38-.009-6.552-.131-8.937-.342L670.089,649.339c-.834-.072-6.205-.662-9.361-2.638a5.6,5.6,0,0,1-2.991-4.731V279.853a4.815,4.815,0,0,1,2.236-4.09c1.608-1.124,4.335-1.84,8.033-1.84.9,0,1.829.043,2.766.126l138.983,12.36c2.211.2,5.169.307,8.326.311h.24c3.186,0,6.174-.109,8.407-.311l107.615-9.572a1.941,1.941,0,0,1,.344,3.868l-107.611,9.57c-2.325.21-5.435.326-8.755.326h-.242c-3.287,0-6.366-.122-8.666-.326l-138.98-12.36c-.823-.072-1.64-.11-2.426-.11a12.817,12.817,0,0,0-5.311.854c-.624.3-1.076.638-1.076,1.194V641.969a1.466,1.466,0,0,0,.682,1.095,6.65,6.65,0,0,0,1.563.9,23.839,23.839,0,0,0,6.564,1.507l138.985,12.363c2.31.2,5.389.318,8.666.326h.243c3.3,0,6.41-.114,8.753-.326L966.06,645.474c2.306-.206,5.42-.321,8.765-.321.6,0,1.2,0,1.8.011,2.8.038,5.248.144,7.083.31l138.985,12.362c.827.074,1.647.111,2.438.111a12.843,12.843,0,0,0,5.313-.854c.625-.3,1.079-.639,1.079-1.2V293.781a1.447,1.447,0,0,0-.628-1.072,6.11,6.11,0,0,0-1.453-.875,23.2,23.2,0,0,0-6.749-1.559l-89-7.916a1.941,1.941,0,1,1,.343-3.866l89.006,7.916c1.369.123,6.543.761,9.533,2.719a5.54,5.54,0,0,1,2.832,4.654V655.9a4.82,4.82,0,0,1-2.237,4.091c-1.611,1.126-4.34,1.841-8.036,1.841-.9,0-1.839-.043-2.782-.127L983.357,649.34c-1.76-.158-4.107-.259-6.788-.294-.578-.008-1.162-.012-1.745-.012-3.213,0-6.2.108-8.419.306h0L827.424,661.7c-2.438.22-5.67.342-9.1.342h-.315Z" transform="translate(-96.536 5324.084)" fill="#12263f" fill-rule="evenodd"/>
      <path id="Trazado_775522" data-name="Trazado 775522" d="M2044.951,304.327V666.443c0,1.5-3.963,2.373-8.829,1.939L1897.136,656.02c-1.993-.179-4.5-.274-7.081-.309V288.152c2.583.032,5.09.132,7.081.311l138.985,12.36c4.867.435,8.829,2.007,8.829,3.505Z" transform="translate(-1009.97 5313.537)" fill="#e2e8f0"/>
      <path id="Trazado_775523" data-name="Trazado 775523" d="M829.19,301.729V669.29c-3.13-.007-6.266-.114-8.666-.326L681.542,656.6c-4.848-.428-8.812-2.005-8.812-3.5V290.981c0-1.5,3.964-2.368,8.812-1.937L820.524,301.4C822.924,301.616,826.06,301.725,829.19,301.729Z" transform="translate(-107.649 5312.958)" fill="#e2e8f0"/>
      <path id="Trazado_775524" data-name="Trazado 775524" d="M911.87,795.322c9.888-31.312,48.444-54.048,79.835-51.33,12.193,1.056,23.81,3.369,35.078,4.363,17.39,1.534,33.961-.035,50.531-13.547,14.721-12.006,19.795-25.9,22.486-40.8,2.6-14.387,2.911-29.738,8.061-45.163,7.447-22.3,21.18-29.152,37.692-33.266,11.457-2.854,24.21-4.434,37.2-8.629,38.421-12.4,57.155-44.681,67.33-81.909a1.941,1.941,0,0,0-3.745-1.023c-9.822,35.935-27.692,67.267-64.779,79.239-12.9,4.166-25.57,5.723-36.947,8.556-17.74,4.419-32.434,11.843-40.435,35.8-5.213,15.613-5.57,31.142-8.2,45.7-2.536,14.045-7.248,27.171-21.118,38.483-15.646,12.757-31.319,14.138-47.737,12.689-11.27-1-22.889-3.307-35.085-4.364-33-2.856-73.478,21.115-83.872,54.028a1.941,1.941,0,0,0,3.7,1.17Z" transform="translate(-282.097 5139.765)" fill="#12263f" fill-rule="evenodd"/>
      <path id="Trazado_775525" data-name="Trazado 775525" d="M1400.673,1343.665a11.69,11.69,0,1,1-11.646,11.69,11.668,11.668,0,0,1,11.646-11.69" transform="translate(-638.592 4531.157)" fill="#fe502d" fill-rule="evenodd"/>
      <path id="Trazado_775526" data-name="Trazado 775526" d="M1684.873,881.285a11.69,11.69,0,1,1-11.646,11.69,11.668,11.668,0,0,1,11.646-11.69" transform="translate(-863.77 4911.569)" fill="#fe502d" fill-rule="evenodd"/>
      <path id="Trazado_775574" data-name="Trazado 775574" d="M1684.873,881.285a11.69,11.69,0,1,1-11.646,11.69,11.668,11.668,0,0,1,11.646-11.69" transform="translate(-778.227 4848.338)" fill="#fe502d" fill-rule="evenodd"/>
      <path id="Trazado_775527" data-name="Trazado 775527" d="M881.88,1532.873a11.691,11.691,0,1,1-11.646,11.691,11.669,11.669,0,0,1,11.646-11.691" transform="translate(-254.046 4390.91)" fill="#fe502d" fill-rule="evenodd"/>
      <path id="Trazado_775528" data-name="Trazado 775528" d="M2167.413,444.347l6,12.2,13.417,1.958-9.708,9.5,2.291,13.412-12-6.331-12,6.331,2.294-13.412-9.709-9.5,13.415-1.958,6-12.2Z" transform="translate(-1201.164 5197.761)" fill="#fe502d"/>
      <path id="Trazado_775529" data-name="Trazado 775529" d="M1121.344,1124.2a1,1,0,0,1-.264.034h-74.973a1.019,1.019,0,0,1,0-2.037h74.973a1.02,1.02,0,0,1,.264,2" transform="translate(-383.657 4695.317)" fill="lime"/>
      <path id="Trazado_775530" data-name="Trazado 775530" d="M1113.262,1165.992a1.026,1.026,0,0,1-.263.035h-66.893a1.019,1.019,0,0,1,0-2.038l66.893,0a1.019,1.019,0,0,1,.263,2Z" transform="translate(-383.656 4664.339)" fill="lime"/>
      <path id="Trazado_775531" data-name="Trazado 775531" d="M1106.953,1063.813v45.964a1.534,1.534,0,0,1-2.411,1.493l-19.141-9.607h-77.668a10.827,10.827,0,0,1-10.775-10.816V1063.81a10.826,10.826,0,0,1,10.776-10.815h88.441a10.83,10.83,0,0,1,10.775,10.818" transform="translate(-347.979 4746.611)" fill="#2d54fe"/>
      <path id="Trazado_775536" data-name="Trazado 775536" d="M1379.547,622.553v45.962a1.535,1.535,0,0,1-2.412,1.494L1358,660.4h-77.668a10.828,10.828,0,0,1-10.775-10.818V622.55a10.827,10.827,0,0,1,10.776-10.815h88.442a10.828,10.828,0,0,1,10.775,10.817" transform="translate(-564.554 5111.368)" fill="#2d54fe"/>
      <path id="Trazado_775575" data-name="Trazado 775575" d="M1379.547,622.553v45.962a1.535,1.535,0,0,1-2.412,1.494L1358,660.4h-77.668a10.828,10.828,0,0,1-10.775-10.818V622.55a10.827,10.827,0,0,1,10.776-10.815h88.442a10.828,10.828,0,0,1,10.775,10.817" transform="translate(-469.521 5049.402)" fill="#2d54fe"/>
      <path id="Trazado_775539" data-name="Trazado 775539" d="M390.766,459.733a77.014,77.014,0,1,1-77.014,77.014,77.014,77.014,0,0,1,77.014-77.014" transform="translate(158.437 5186.356)" fill="#2d54fe" fill-rule="evenodd"/>
      <path id="Trazado_775573" data-name="Trazado 775573" d="M539.205,630.983a54.2,54.2,0,1,1-54.2,54.2,54.2,54.2,0,0,1,54.2-54.2" transform="translate(9.998 5037.917)" fill="#fff" fill-rule="evenodd"/>
      <path id="Trazado_775540" data-name="Trazado 775540" d="M322.739,579.453a78.943,78.943,0,1,0-16.485-48.268,1.941,1.941,0,0,0,3.882,0,75.1,75.1,0,1,1,15.672,45.892,1.94,1.94,0,0,0-3.069,2.375Z" transform="translate(163.995 5191.917)" fill="#12263f" fill-rule="evenodd"/>
      <path id="Trazado_775541" data-name="Trazado 775541" d="M399.373,600.208a54.86,54.86,0,1,0,54.86-54.86,54.86,54.86,0,0,0-54.86,54.86" transform="translate(94.972 5122.895)" fill="none"/>
      <path id="Trazado_775542" data-name="Trazado 775542" d="M517.7,630.983a32.7,32.7,0,1,1-32.7,32.7,32.7,32.7,0,0,1,32.7-32.7" transform="translate(31.501 5059.42)" fill="#fe502d" fill-rule="evenodd"/>
      <path id="Trazado_775543" data-name="Trazado 775543" d="M562.022,720.773A12.77,12.77,0,1,0,574.792,708a12.77,12.77,0,0,0-12.77,12.77" transform="translate(-25.588 5002.33)" fill="none"/>
      <rect id="Rectángulo_361690" data-name="Rectángulo 361690" width="102.498" height="5.857" transform="translate(446.706 5720.528)" fill="#12263f"/>
      <path id="Trazado_775544" data-name="Trazado 775544" d="M178.217,689.888l-12.139-16.207c-1.6-2.128-.722-3.871,1.941-3.871h30.239a10.939,10.939,0,0,1,7.74,3.871l12.136,16.207Z" transform="translate(268.489 5030.64)" fill="#2d54fe"/>
      <path id="Trazado_775545" data-name="Trazado 775545" d="M161.731,666.3a3.4,3.4,0,0,0,.349.652l12.139,16.207a1.941,1.941,0,0,1-3.107,2.328l-12.139-16.207c-1.374-1.836-1.414-3.558-.807-4.768s2.008-2.209,4.3-2.209h9.072a1.941,1.941,0,1,1,0,3.882h-9.072a3.223,3.223,0,0,0-.738.115Z" transform="translate(274.039 5036.201)" fill="#12263f" fill-rule="evenodd"/>
      <path id="Trazado_775546" data-name="Trazado 775546" d="M258.133,666.189h7.511a8.742,8.742,0,0,1,6.187,3.095s12.135,16.205,12.135,16.205a1.941,1.941,0,1,0,3.108-2.326l-12.137-16.207a13.126,13.126,0,0,0-9.292-4.649h-7.511a1.941,1.941,0,1,0,0,3.882Z" transform="translate(201.103 5036.201)" fill="#12263f" fill-rule="evenodd"/>
      <path id="Trazado_775547" data-name="Trazado 775547" d="M178.217,767.9l-12.139,16.205c-1.6,2.131-.722,3.874,1.941,3.874h30.239a10.931,10.931,0,0,0,7.74-3.874L218.133,767.9Z" transform="translate(268.489 4957.933)" fill="#2d54fe"/>
      <path id="Trazado_775548" data-name="Trazado 775548" d="M170.742,746.491l.122-4.68a1.941,1.941,0,1,1,3.88.1l-.137,5.3a1.937,1.937,0,0,1-.387,1.114l-12.138,16.2a3.443,3.443,0,0,0-.351.656,3.211,3.211,0,0,0,.737.115h30.238a8.733,8.733,0,0,0,6.186-3.1l4.452-5.944a1.94,1.94,0,1,1,3.107,2.326L202,764.529a13.124,13.124,0,0,1-9.294,4.651H162.469c-2.294,0-3.7-1-4.3-2.208s-.567-2.933.807-4.769l11.768-15.711Z" transform="translate(274.039 4978.672)" fill="#12263f" fill-rule="evenodd"/>
      <path id="Trazado_775549" data-name="Trazado 775549" d="M2424.838,881.047c20.189-5.131,51.67,8.213,61.252,33.536s8.209,89.034,31.14,140.638c1.368,3.081-8.9,13.688-24.98,16.084s-67.412-190.258-67.412-190.258Z" transform="translate(-1406.368 4874.87)" fill="#fe502d"/>
      <path id="Trazado_775550" data-name="Trazado 775550" d="M2509.847,1050.342a210.6,210.6,0,0,1-9.185-25.156,1.941,1.941,0,0,1,3.719-1.11,206.513,206.513,0,0,0,9.066,24.811,3.957,3.957,0,0,1,.091,2.731,10.842,10.842,0,0,1-2.12,3.671c-3.753,4.557-12.58,10.622-24.439,12.389-1.422.212-3.133-.391-4.9-2.125-2.9-2.846-6.468-9.151-10.344-17.873C2450.323,999.5,2417.407,876,2417.407,876a1.942,1.942,0,0,1,1.4-2.381c10.487-2.665,23.915-.591,35.957,5.5,12.01,6.072,22.623,16.113,27.587,29.233,3.968,10.488,6.1,27.5,8.807,47.514a1.941,1.941,0,1,1-3.847.52c-2.655-19.654-4.7-36.363-8.591-46.661-4.618-12.2-14.536-21.495-25.709-27.142-10.418-5.267-21.942-7.386-31.326-5.622,4.283,15.919,33.844,124.7,53.6,169.145,3.118,7.014,5.963,12.4,8.433,15.467a9.581,9.581,0,0,0,1.968,1.952c.272.182.493.35.726.316,10.655-1.588,18.643-6.923,22.015-11.017a8.162,8.162,0,0,0,1.3-2.025,3.108,3.108,0,0,0,.125-.454Z" transform="translate(-1400.812 4880.416)" fill="#12263f" fill-rule="evenodd"/>
      <path id="Trazado_775551" data-name="Trazado 775551" d="M2231.99,933.428c2.062-6.952,1.366-18.479,0-17.8-12.875,6.43-21.812-.533-24.638,1.029-22.928,12.661-37.64,2.049-39.351-4.451-1.078-4.092,6.117-11.056,15.394-18.477,15.4-12.323,25.666-36.273,41.75-37.646,0,0-.207-1.065-.5-2.72-1.016-5.71-3.065-18.414-1.209-18.153,7.457,1.067,22.583,21.9,26.349,23.611,11.126,5.065,18.5,13.764,23.768,25.579,6.357,14.215,9.666,32.932,12.843,55.177,3.849,26.939,21.217,77.333,21.217,106.766H2203.926a175.331,175.331,0,0,1,1.092-19.944,170.713,170.713,0,0,1,4.6-24.294C2215,981.564,2223.5,962.009,2231.99,933.428Z" transform="translate(-1215.912 4908.039)" fill="#fff"/>
      <path id="Trazado_775552" data-name="Trazado 775552" d="M2338.27,973.636l.15-.371c.055-.136.121-.3.194-.489.116-.313.259-.659.429-1.018a9.014,9.014,0,0,1,.568-.9,9.521,9.521,0,0,1,.7-.832,9.683,9.683,0,0,1,1.669-1.371,13.644,13.644,0,0,1,3.266-1.516c.45-.138.824-.239,1.1-.3l.437-.1a.891.891,0,0,1,.717,1.631c.025-.012-.4.339-.948.928a10.193,10.193,0,0,0-1.616,2.269,4.829,4.829,0,0,0-.418,1.19,3.151,3.151,0,0,0-.048.49c.019.133-.006.3.039.357l.107.091c.01-.027.021.12.031.179.009.076.018.145.026.208.032.252.05.4.05.4a3.365,3.365,0,1,1-6.452-.847Z" transform="translate(-1342.017 4810.601)" fill="#2d54fe"/>
      <path id="Trazado_775553" data-name="Trazado 775553" d="M2381.078,1666.883l-.344-5.948a14.914,14.914,0,0,0-13.341-9.793H2260.627a14.915,14.915,0,0,0-13.341,9.793l0,5.949Z" transform="translate(-1274.758 4303.245)" fill="#2d54fe"/>
      <path id="Trazado_775554" data-name="Trazado 775554" d="M2691.945,1655.74a12.872,12.872,0,0,0-11.417-8.216h-8.855a1.941,1.941,0,1,1,0-3.881h8.855c6.43,0,13.266,5.016,15.192,11.153a1.938,1.938,0,0,1,.085.47l.344,5.948a1.941,1.941,0,1,1-3.875.224Z" transform="translate(-1587.891 4308.804)" fill="#12263f" fill-rule="evenodd"/>
      <path id="Trazado_775555" data-name="Trazado 775555" d="M2265.364,1643.639h-10.284c-6.43,0-13.266,5.018-15.192,11.153a1.941,1.941,0,0,0,3.7,1.163,12.846,12.846,0,0,1,11.49-8.434h10.284a1.941,1.941,0,1,0,0-3.882" transform="translate(-1269.21 4308.807)" fill="#12263f" fill-rule="evenodd"/>
      <path id="Trazado_775556" data-name="Trazado 775556" d="M2335.44,1741.4l-6.165-19.635a14.918,14.918,0,0,0-13.34-9.794H2172.189a14.917,14.917,0,0,0-13.342,9.794l-6.163,19.634H2335.44Z" transform="translate(-1204.639 4258.157)" fill="#2d54fe"/>
      <path id="Trazado_775557" data-name="Trazado 775557" d="M2327.237,1738.715l-5.372-17.114a12.683,12.683,0,0,0-6.148-6.985,1.94,1.94,0,1,1,1.837-3.418,16.652,16.652,0,0,1,8.014,9.242l6.166,19.635a1.941,1.941,0,0,1-1.852,2.522H2147.126a1.94,1.94,0,0,1-1.852-2.522l4.115-13.11a1.941,1.941,0,0,1,3.7,1.162l-3.324,10.589Z" transform="translate(-1199.08 4258.901)" fill="#12263f" fill-rule="evenodd"/>
      <path id="Trazado_775558" data-name="Trazado 775558" d="M2321.431,1704.472h-117.36a15.416,15.416,0,0,0-7.374,2.017,1.941,1.941,0,0,0,1.88,3.4,11.5,11.5,0,0,1,5.494-1.532h117.36a1.941,1.941,0,0,0,0-3.882Z" transform="translate(-1236.521 4263.715)" fill="#12263f" fill-rule="evenodd"/>
      <path id="Trazado_775559" data-name="Trazado 775559" d="M2354.2,1168.5c-4.7,21-17.237,30.174-25.028,50.457,5.378-20.547,13.871-40.1,22.364-68.683,2.063-6.952,1.366-18.479,0-17.8a25.272,25.272,0,0,0,4.857-4.72,129.7,129.7,0,0,1-2.193,40.742" transform="translate(-1335.457 4691.196)" fill="#e2e8f0"/>
      <path id="Trazado_775560" data-name="Trazado 775560" d="M2410.828,1187.262H2307.145a175.348,175.348,0,0,1,1.091-19.945c.113-.106.176-.163.176-.163-.626,5.641-1.254,15.041,11.908,15.041h68.947c5.64,0,9.482-8.24,7.834-29.458-2.194-28.2-15.043-43.875-14.416-69.885.308-12.743.539-34.906-5.918-57.534,6.356,14.215,9.666,32.933,12.844,55.177C2393.462,1107.434,2410.828,1157.828,2410.828,1187.262Z" transform="translate(-1319.13 4767.127)" fill="#e2e8f0"/>
      <path id="Trazado_775561" data-name="Trazado 775561" d="M2303.533,1353.019h25.019a1.941,1.941,0,1,1,0,3.881h-26.971a1.94,1.94,0,0,1-1.941-1.941,177.176,177.176,0,0,1,1.1-20.163,172.6,172.6,0,0,1,4.656-24.567c4.638-17.71,11.581-34.688,18.85-57.322a1.94,1.94,0,0,1,3.7,1.187c-7.243,22.555-14.169,39.471-18.79,57.12a168.727,168.727,0,0,0-4.554,24.021,170.868,170.868,0,0,0-1.067,17.784" transform="translate(-1313.567 4599.429)" fill="#12263f" fill-rule="evenodd"/>
      <path id="Trazado_775562" data-name="Trazado 775562" d="M2217.329,848.907l-.135-.748c-.84-4.721-2.316-14.072-1.91-17.482.285-2.4,1.8-3.084,2.885-2.93a12.372,12.372,0,0,1,4.906,2.185,55.289,55.289,0,0,1,7.612,6.649c4.43,4.478,8.87,9.7,11.911,12.778a11.812,11.812,0,0,0,2.451,2.153,45.346,45.346,0,0,1,7.357,4.2,1.941,1.941,0,0,1-2.236,3.174,41.4,41.4,0,0,0-6.728-3.844,15.347,15.347,0,0,1-3.606-2.959c-3.039-3.081-7.478-8.3-11.908-12.774a51.056,51.056,0,0,0-7.032-6.168,14.42,14.42,0,0,0-1.772-1.056c-.017.468-.022,1,0,1.5a137.361,137.361,0,0,0,1.889,13.893c.291,1.637.5,2.69.5,2.69a1.941,1.941,0,0,1-1.74,2.3c-5.992.512-11.052,4.493-15.963,9.695-7.967,8.438-15.432,20.086-24.74,27.533-5.417,4.334-10.121,8.494-12.778,12a12.379,12.379,0,0,0-1.721,2.88,2.638,2.638,0,0,0-.23,1.587,10.3,10.3,0,0,0,4.174,5.138c5.977,4.28,17.27,6.442,32.36-1.892a4.322,4.322,0,0,1,2.294-.472,17.281,17.281,0,0,1,3.253.594c4.12,1.034,10.743,3.019,19.163-1.188a2.118,2.118,0,0,1,1.552-.158,2.343,2.343,0,0,1,1.352,1.01,5.692,5.692,0,0,1,.7,1.867,31.583,31.583,0,0,1,.5,6.116,1.941,1.941,0,0,1-3.881,0,32.922,32.922,0,0,0-.264-4.548,27.341,27.341,0,0,1-18,1.178c-1.438-.341-2.671-.7-3.683-.885a5.971,5.971,0,0,0-.854-.111,2.886,2.886,0,0,0-.305.015c-16.987,9.365-29.725,6.446-36.455,1.626a14.16,14.16,0,0,1-5.667-7.305c-.431-1.633-.023-3.646,1.3-5.879,2.412-4.054,8.036-9.234,14.754-14.607,9.172-7.34,16.491-18.851,24.342-27.167,5.05-5.35,10.348-9.392,16.343-10.6Z" transform="translate(-1210.374 4913.588)" fill="#12263f" fill-rule="evenodd"/>
      <path id="Trazado_775563" data-name="Trazado 775563" d="M2602.742,1179.766c-.722-29.59-17.415-78.263-21.172-104.551-3.147-22.033-6.4-40.579-12.693-54.66a1.94,1.94,0,1,1,3.543-1.584c6.417,14.35,9.785,33.239,12.993,55.695,3.859,27.006,21.235,77.532,21.235,107.041a1.939,1.939,0,0,1-1.94,1.941H2585.35a1.941,1.941,0,1,1,0-3.882Z" transform="translate(-1513.009 4772.682)" fill="#12263f" fill-rule="evenodd"/>
      <path id="Trazado_775564" data-name="Trazado 775564" d="M1777.814,207.933V221.7a1.941,1.941,0,0,1-3.882,0V205.992a1.94,1.94,0,0,1,1.941-1.941h15.646a1.941,1.941,0,1,1,0,3.882h-13.706Z" transform="translate(-923.896 5375.875)" fill="#12263f" fill-rule="evenodd"/>
      <path id="Trazado_775565" data-name="Trazado 775565" d="M1969.75,207.933h-13.7a1.941,1.941,0,1,1,0-3.882h15.645a1.941,1.941,0,0,1,1.941,1.941V221.7a1.941,1.941,0,1,1-3.881,0V207.933Z" transform="translate(-1057.445 5375.875)" fill="#12263f" fill-rule="evenodd"/>
      <path id="Trazado_775566" data-name="Trazado 775566" d="M1777.814,400.591h13.706a1.941,1.941,0,1,1,0,3.882h-15.646a1.941,1.941,0,0,1-1.941-1.941V386.826a1.941,1.941,0,0,1,3.882,0Z" transform="translate(-923.896 5241.835)" fill="#12263f" fill-rule="evenodd"/>
      <path id="Trazado_775572" data-name="Trazado 775572" d="M494.605,630.983a9.6,9.6,0,1,1-9.6,9.6,9.6,9.6,0,0,1,9.6-9.6" transform="translate(54.598 5082.517)" fill="#fff" fill-rule="evenodd"/>
      <path id="Trazado_775567" data-name="Trazado 775567" d="M1969.75,400.591V386.826a1.941,1.941,0,1,1,3.881,0v15.706a1.942,1.942,0,0,1-1.941,1.941h-15.645a1.941,1.941,0,1,1,0-3.882h13.7Z" transform="translate(-1057.445 5241.835)" fill="#12263f" fill-rule="evenodd"/>
      <path id="Trazado_775568" data-name="Trazado 775568" d="M1898.126,187.216V171.148a1.941,1.941,0,1,0-3.881,0v16.068a1.941,1.941,0,1,0,3.881,0Z" transform="translate(-1013.075 5401.703)" fill="#12263f" fill-rule="evenodd"/>
      <path id="Trazado_775569" data-name="Trazado 775569" d="M1898.126,436.351V420.282a1.941,1.941,0,1,0-3.881,0v16.069a1.941,1.941,0,1,0,3.881,0Z" transform="translate(-1013.075 5217.037)" fill="#12263f" fill-rule="evenodd"/>
      <path id="Trazado_775570" data-name="Trazado 775570" d="M1989.373,328.7h16.011a1.941,1.941,0,1,0,0-3.882h-16.012a1.941,1.941,0,0,0,0,3.882Z" transform="translate(-1082.148 5286.358)" fill="#12263f" fill-rule="evenodd"/>
      <path id="Trazado_775571" data-name="Trazado 775571" d="M1741.14,328.7h16.01a1.941,1.941,0,0,0,0-3.882h-16.01a1.941,1.941,0,1,0,0,3.882" transform="translate(-898.15 5286.358)" fill="#12263f" fill-rule="evenodd"/>
    </g>
    <path id="Trazado_776885" data-name="Trazado 776885" d="M27,0H163a27,27,0,0,1,0,54H27A27,27,0,0,1,27,0Z" transform="translate(390 5981)" fill="#ffca00"/>
    <path id="Trazado_776886" data-name="Trazado 776886" d="M27,0H226a27,27,0,0,1,0,54H27A27,27,0,0,1,27,0Z" transform="translate(1000 5675)" fill="#ffca00"/>
    <path id="Trazado_776887" data-name="Trazado 776887" d="M9.953,10.07h-4.5v3.047h5.281V15H3.109V3.625h7.609v1.9H5.453V8.234h4.5Zm6.586,2.594a.727.727,0,0,0-.41-.652,4.659,4.659,0,0,0-1.316-.426Q11.8,10.953,11.8,9.023a2.323,2.323,0,0,1,.934-1.879,3.766,3.766,0,0,1,2.441-.754,4.053,4.053,0,0,1,2.574.758,2.388,2.388,0,0,1,.965,1.969H16.453a1.092,1.092,0,0,0-.312-.8A1.322,1.322,0,0,0,15.164,8a1.351,1.351,0,0,0-.883.258.814.814,0,0,0-.312.656.7.7,0,0,0,.355.605,3.657,3.657,0,0,0,1.2.4,9.8,9.8,0,0,1,1.422.379,2.336,2.336,0,0,1,1.789,2.273,2.2,2.2,0,0,1-.992,1.871,4.28,4.28,0,0,1-2.562.715,4.47,4.47,0,0,1-1.887-.379A3.166,3.166,0,0,1,12,13.738a2.414,2.414,0,0,1-.469-1.426h2.141a1.179,1.179,0,0,0,.445.922,1.766,1.766,0,0,0,1.109.32,1.635,1.635,0,0,0,.98-.246A.766.766,0,0,0,16.539,12.664Zm6.352-8.2V6.547h1.445V8.2H22.891v4.219a1.007,1.007,0,0,0,.18.672.9.9,0,0,0,.688.2,3.6,3.6,0,0,0,.664-.055v1.711a4.648,4.648,0,0,1-1.367.2,2.156,2.156,0,0,1-2.422-2.4V8.2H19.4V6.547h1.234V4.469ZM30.492,15a2.507,2.507,0,0,1-.227-.758,2.732,2.732,0,0,1-2.133.914,3,3,0,0,1-2.059-.719,2.312,2.312,0,0,1-.816-1.812,2.389,2.389,0,0,1,1-2.062,4.915,4.915,0,0,1,2.879-.727h1.039V9.352a1.393,1.393,0,0,0-.3-.937,1.183,1.183,0,0,0-.949-.352,1.345,1.345,0,0,0-.895.273.929.929,0,0,0-.324.75H25.445A2.268,2.268,0,0,1,25.9,7.727a3,3,0,0,1,1.281-.98,4.669,4.669,0,0,1,1.859-.355,3.689,3.689,0,0,1,2.48.785,2.747,2.747,0,0,1,.918,2.207v3.664a4.041,4.041,0,0,0,.336,1.82V15Zm-1.867-1.57a1.945,1.945,0,0,0,.922-.223,1.462,1.462,0,0,0,.625-.6V11.156h-.844q-1.7,0-1.8,1.172l-.008.133a.9.9,0,0,0,.3.7A1.153,1.153,0,0,0,28.625,13.43Zm5.2-2.719a5.094,5.094,0,0,1,.887-3.148,2.877,2.877,0,0,1,2.426-1.172,2.589,2.589,0,0,1,2.039.922V3h2.266V15H39.4l-.109-.9a2.657,2.657,0,0,1-2.172,1.055,2.869,2.869,0,0,1-2.395-1.176A5.258,5.258,0,0,1,33.82,10.711Zm2.258.168a3.337,3.337,0,0,0,.414,1.823,1.349,1.349,0,0,0,1.2.634,1.511,1.511,0,0,0,1.477-.884V9.111a1.489,1.489,0,0,0-1.461-.884Q36.078,8.227,36.078,10.879Zm6.758-.184a5.013,5.013,0,0,1,.484-2.242A3.546,3.546,0,0,1,44.715,6.93a4.069,4.069,0,0,1,2.113-.539,3.849,3.849,0,0,1,2.793,1.047,4.2,4.2,0,0,1,1.207,2.844l.016.578a4.418,4.418,0,0,1-1.086,3.121,4.209,4.209,0,0,1-5.832,0,4.5,4.5,0,0,1-1.09-3.187Zm2.258.16a3.16,3.16,0,0,0,.453,1.843,1.628,1.628,0,0,0,2.578.008,3.457,3.457,0,0,0,.461-2.015,3.128,3.128,0,0,0-.461-1.831,1.5,1.5,0,0,0-1.3-.649,1.474,1.474,0,0,0-1.281.646A3.516,3.516,0,0,0,45.094,10.856ZM61.117,15a2.507,2.507,0,0,1-.227-.758,2.732,2.732,0,0,1-2.133.914,3,3,0,0,1-2.059-.719,2.312,2.312,0,0,1-.816-1.812,2.389,2.389,0,0,1,1-2.062,4.915,4.915,0,0,1,2.879-.727H60.8V9.352a1.393,1.393,0,0,0-.3-.937,1.183,1.183,0,0,0-.949-.352,1.345,1.345,0,0,0-.895.273.929.929,0,0,0-.324.75H56.07a2.268,2.268,0,0,1,.453-1.359,3,3,0,0,1,1.281-.98,4.669,4.669,0,0,1,1.859-.355,3.689,3.689,0,0,1,2.48.785,2.747,2.747,0,0,1,.918,2.207v3.664a4.041,4.041,0,0,0,.336,1.82V15ZM59.25,13.43a1.945,1.945,0,0,0,.922-.223,1.462,1.462,0,0,0,.625-.6V11.156h-.844q-1.7,0-1.8,1.172l-.008.133a.9.9,0,0,0,.3.7A1.153,1.153,0,0,0,59.25,13.43Zm9.063-.094a1.481,1.481,0,0,0,1.016-.344,1.2,1.2,0,0,0,.406-.914h2.117a2.9,2.9,0,0,1-.469,1.574,3.093,3.093,0,0,1-1.262,1.109,3.949,3.949,0,0,1-1.77.395A3.67,3.67,0,0,1,65.492,14a4.56,4.56,0,0,1-1.047-3.184v-.148a4.508,4.508,0,0,1,1.039-3.117,3.627,3.627,0,0,1,2.852-1.164,3.555,3.555,0,0,1,2.543.9,3.2,3.2,0,0,1,.973,2.4H69.734a1.551,1.551,0,0,0-.406-1.072,1.51,1.51,0,0,0-2.223.163,3.333,3.333,0,0,0-.4,1.866v.235a3.375,3.375,0,0,0,.4,1.878A1.377,1.377,0,0,0,68.313,13.336Zm7.531-8.867V6.547h1.445V8.2H75.844v4.219a1.007,1.007,0,0,0,.18.672.9.9,0,0,0,.688.2,3.6,3.6,0,0,0,.664-.055v1.711a4.648,4.648,0,0,1-1.367.2,2.156,2.156,0,0,1-2.422-2.4V8.2H72.352V6.547h1.234V4.469Zm7.766,9.672A2.831,2.831,0,0,1,81.3,15.156a2.67,2.67,0,0,1-2.074-.781,3.335,3.335,0,0,1-.73-2.289V6.547H80.75v5.467q0,1.322,1.2,1.322a1.63,1.63,0,0,0,1.578-.8V6.547H85.8V15H83.672ZM92.4,15a2.507,2.507,0,0,1-.227-.758,2.732,2.732,0,0,1-2.133.914,3,3,0,0,1-2.059-.719,2.312,2.312,0,0,1-.816-1.812,2.389,2.389,0,0,1,1-2.062,4.915,4.915,0,0,1,2.879-.727h1.039V9.352a1.393,1.393,0,0,0-.3-.937,1.183,1.183,0,0,0-.949-.352,1.345,1.345,0,0,0-.895.273.929.929,0,0,0-.324.75H87.352A2.268,2.268,0,0,1,87.8,7.727a3,3,0,0,1,1.281-.98,4.669,4.669,0,0,1,1.859-.355,3.689,3.689,0,0,1,2.48.785,2.747,2.747,0,0,1,.918,2.207v3.664a4.041,4.041,0,0,0,.336,1.82V15Zm-1.867-1.57a1.945,1.945,0,0,0,.922-.223,1.462,1.462,0,0,0,.625-.6V11.156h-.844q-1.7,0-1.8,1.172l-.008.133a.9.9,0,0,0,.3.7A1.153,1.153,0,0,0,90.531,13.43ZM98.461,15H96.2V3h2.266Zm5.492-4.289a5.094,5.094,0,0,1,.887-3.148,2.877,2.877,0,0,1,2.426-1.172,2.589,2.589,0,0,1,2.039.922V3h2.266V15h-2.039l-.109-.9a2.657,2.657,0,0,1-2.172,1.055,2.869,2.869,0,0,1-2.395-1.176A5.258,5.258,0,0,1,103.953,10.711Zm2.258.168a3.337,3.337,0,0,0,.414,1.823,1.349,1.349,0,0,0,1.2.634,1.511,1.511,0,0,0,1.477-.884V9.111a1.489,1.489,0,0,0-1.461-.884Q106.211,8.227,106.211,10.879Zm11,4.277a4.15,4.15,0,0,1-3.027-1.141,4.054,4.054,0,0,1-1.168-3.039v-.219a5.106,5.106,0,0,1,.492-2.277A3.612,3.612,0,0,1,114.9,6.934a3.914,3.914,0,0,1,2.059-.543,3.508,3.508,0,0,1,2.73,1.094,4.444,4.444,0,0,1,1,3.1v.922H115.3a2.1,2.1,0,0,0,.66,1.328,2,2,0,0,0,1.395.5,2.437,2.437,0,0,0,2.039-.945l1.109,1.242a3.389,3.389,0,0,1-1.375,1.121A4.511,4.511,0,0,1,117.211,15.156Zm-.258-6.945a1.411,1.411,0,0,0-1.09.455,2.357,2.357,0,0,0-.535,1.3h3.141V9.788a1.681,1.681,0,0,0-.406-1.165A1.456,1.456,0,0,0,116.953,8.211ZM128.336,15H126.07V3h2.266Zm6.758,0a2.507,2.507,0,0,1-.227-.758,2.732,2.732,0,0,1-2.133.914,3,3,0,0,1-2.059-.719,2.312,2.312,0,0,1-.816-1.812,2.389,2.389,0,0,1,1-2.062,4.915,4.915,0,0,1,2.879-.727h1.039V9.352a1.393,1.393,0,0,0-.3-.937,1.183,1.183,0,0,0-.949-.352,1.345,1.345,0,0,0-.895.273.929.929,0,0,0-.324.75h-2.258a2.268,2.268,0,0,1,.453-1.359,3,3,0,0,1,1.281-.98,4.669,4.669,0,0,1,1.859-.355,3.689,3.689,0,0,1,2.48.785,2.747,2.747,0,0,1,.918,2.207v3.664a4.041,4.041,0,0,0,.336,1.82V15Zm-1.867-1.57a1.945,1.945,0,0,0,.922-.223,1.462,1.462,0,0,0,.625-.6V11.156h-.844q-1.7,0-1.8,1.172l-.008.133a.9.9,0,0,0,.3.7A1.153,1.153,0,0,0,133.227,13.43ZM43.434,35.156a4.15,4.15,0,0,1-3.027-1.141,4.054,4.054,0,0,1-1.168-3.039v-.219a5.106,5.106,0,0,1,.492-2.277,3.612,3.612,0,0,1,1.395-1.547,3.914,3.914,0,0,1,2.059-.543,3.508,3.508,0,0,1,2.73,1.094,4.444,4.444,0,0,1,1,3.1v.922H41.527a2.1,2.1,0,0,0,.66,1.328,2,2,0,0,0,1.395.5,2.437,2.437,0,0,0,2.039-.945l1.109,1.242a3.389,3.389,0,0,1-1.375,1.121A4.511,4.511,0,0,1,43.434,35.156Zm-.258-6.945a1.411,1.411,0,0,0-1.09.455,2.357,2.357,0,0,0-.535,1.3h3.141v-.181a1.681,1.681,0,0,0-.406-1.165A1.456,1.456,0,0,0,43.176,28.211Zm7.133-1.664.07.945a2.971,2.971,0,0,1,2.43-1.1,2.255,2.255,0,0,1,2.242,1.289,2.9,2.9,0,0,1,2.539-1.289,2.521,2.521,0,0,1,2.047.8,3.681,3.681,0,0,1,.672,2.41V35H58.043V29.609a1.61,1.61,0,0,0-.281-1.051,1.246,1.246,0,0,0-.992-.332,1.409,1.409,0,0,0-1.406.969l.008,5.8H53.113V29.617a1.59,1.59,0,0,0-.289-1.062,1.259,1.259,0,0,0-.984-.328,1.463,1.463,0,0,0-1.391.8V35H48.191V26.547Zm19.344,4.3a5.07,5.07,0,0,1-.887,3.129,2.843,2.843,0,0,1-2.395,1.176,2.633,2.633,0,0,1-2.07-.891V38.25H62.043v-11.7h2.094l.078.828a2.654,2.654,0,0,1,2.141-.984,2.862,2.862,0,0,1,2.43,1.156,5.207,5.207,0,0,1,.867,3.188Zm-2.258-.164a3.327,3.327,0,0,0-.418-1.82,1.361,1.361,0,0,0-1.215-.641,1.478,1.478,0,0,0-1.461.813V32.5a1.5,1.5,0,0,0,1.477.836Q67.395,33.336,67.395,30.688ZM75.8,28.664a6.134,6.134,0,0,0-.812-.062,1.654,1.654,0,0,0-1.68.867V35H71.051V26.547h2.133l.063,1.008a2.092,2.092,0,0,1,1.883-1.164,2.366,2.366,0,0,1,.7.1Zm4.828,6.492A4.15,4.15,0,0,1,77.6,34.016a4.054,4.054,0,0,1-1.168-3.039v-.219a5.106,5.106,0,0,1,.492-2.277,3.612,3.612,0,0,1,1.395-1.547,3.914,3.914,0,0,1,2.059-.543,3.508,3.508,0,0,1,2.73,1.094,4.444,4.444,0,0,1,1,3.1v.922H78.723a2.1,2.1,0,0,0,.66,1.328,2,2,0,0,0,1.395.5,2.437,2.437,0,0,0,2.039-.945l1.109,1.242a3.389,3.389,0,0,1-1.375,1.121A4.511,4.511,0,0,1,80.629,35.156Zm-.258-6.945a1.411,1.411,0,0,0-1.09.455,2.357,2.357,0,0,0-.535,1.3h3.141v-.181a1.681,1.681,0,0,0-.406-1.165A1.456,1.456,0,0,0,80.371,28.211Zm9.594,4.453a.727.727,0,0,0-.41-.652,4.659,4.659,0,0,0-1.316-.426q-3.016-.633-3.016-2.562a2.323,2.323,0,0,1,.934-1.879,3.766,3.766,0,0,1,2.441-.754,4.053,4.053,0,0,1,2.574.758,2.388,2.388,0,0,1,.965,1.969H89.879a1.092,1.092,0,0,0-.312-.8A1.322,1.322,0,0,0,88.59,28a1.351,1.351,0,0,0-.883.258.814.814,0,0,0-.312.656.7.7,0,0,0,.355.605,3.657,3.657,0,0,0,1.2.4,9.8,9.8,0,0,1,1.422.379A2.336,2.336,0,0,1,92.16,32.57a2.2,2.2,0,0,1-.992,1.871,4.28,4.28,0,0,1-2.562.715,4.47,4.47,0,0,1-1.887-.379,3.166,3.166,0,0,1-1.293-1.039,2.414,2.414,0,0,1-.469-1.426H87.1a1.179,1.179,0,0,0,.445.922,1.766,1.766,0,0,0,1.109.32,1.635,1.635,0,0,0,.98-.246A.766.766,0,0,0,89.965,32.664ZM98.512,35a2.507,2.507,0,0,1-.227-.758,2.732,2.732,0,0,1-2.133.914,3,3,0,0,1-2.059-.719,2.312,2.312,0,0,1-.816-1.812,2.389,2.389,0,0,1,1-2.062,4.915,4.915,0,0,1,2.879-.727h1.039v-.484a1.393,1.393,0,0,0-.3-.937,1.183,1.183,0,0,0-.949-.352,1.345,1.345,0,0,0-.895.273.929.929,0,0,0-.324.75H93.465a2.268,2.268,0,0,1,.453-1.359,3,3,0,0,1,1.281-.98,4.669,4.669,0,0,1,1.859-.355,3.689,3.689,0,0,1,2.48.785,2.747,2.747,0,0,1,.918,2.207v3.664a4.041,4.041,0,0,0,.336,1.82V35Zm-1.867-1.57a1.945,1.945,0,0,0,.922-.223,1.462,1.462,0,0,0,.625-.6V31.156h-.844q-1.7,0-1.8,1.172l-.008.133a.9.9,0,0,0,.3.7A1.153,1.153,0,0,0,96.645,33.43Z" transform="translate(415 5989)" fill="#12263f"/>
    <path id="Trazado_776888" data-name="Trazado 776888" d="M44.973,10.992V15H42.629V3.625h4.438a5.134,5.134,0,0,1,2.254.469,3.454,3.454,0,0,1,1.5,1.332,3.714,3.714,0,0,1,.523,1.965A3.266,3.266,0,0,1,50.2,10.027a4.767,4.767,0,0,1-3.168.965Zm0-1.9h2.094a2.059,2.059,0,0,0,1.418-.437,1.591,1.591,0,0,0,.488-1.25,1.876,1.876,0,0,0-.492-1.352,1.839,1.839,0,0,0-1.359-.531H44.973Zm12.578-.43a6.134,6.134,0,0,0-.812-.062,1.654,1.654,0,0,0-1.68.867V15H52.8V6.547h2.133L55,7.555a2.092,2.092,0,0,1,1.883-1.164,2.366,2.366,0,0,1,.7.1ZM58,10.7a5.013,5.013,0,0,1,.484-2.242A3.546,3.546,0,0,1,59.883,6.93,4.069,4.069,0,0,1,62,6.391a3.849,3.849,0,0,1,2.793,1.047A4.2,4.2,0,0,1,66,10.281l.016.578a4.418,4.418,0,0,1-1.086,3.121,4.209,4.209,0,0,1-5.832,0A4.5,4.5,0,0,1,58,10.8Zm2.258.16a3.16,3.16,0,0,0,.453,1.843,1.628,1.628,0,0,0,2.578.008,3.457,3.457,0,0,0,.461-2.015,3.128,3.128,0,0,0-.461-1.831A1.5,1.5,0,0,0,62,8.211a1.474,1.474,0,0,0-1.281.646A3.516,3.516,0,0,0,60.262,10.856Zm10.18.949L72,6.547h2.422l-3.4,9.766-.187.445a2.577,2.577,0,0,1-2.5,1.656,3.552,3.552,0,0,1-1-.148V16.555l.344.008a1.857,1.857,0,0,0,.957-.2,1.283,1.283,0,0,0,.5-.648l.266-.7L66.441,6.547h2.43Zm8.664,3.352a4.15,4.15,0,0,1-3.027-1.141,4.054,4.054,0,0,1-1.168-3.039v-.219A5.106,5.106,0,0,1,75.4,8.48,3.612,3.612,0,0,1,76.8,6.934a3.914,3.914,0,0,1,2.059-.543,3.508,3.508,0,0,1,2.73,1.094,4.444,4.444,0,0,1,1,3.1v.922H77.2a2.1,2.1,0,0,0,.66,1.328,2,2,0,0,0,1.395.5,2.437,2.437,0,0,0,2.039-.945L82.4,13.633a3.389,3.389,0,0,1-1.375,1.121A4.511,4.511,0,0,1,79.105,15.156Zm-.258-6.945a1.411,1.411,0,0,0-1.09.455,2.357,2.357,0,0,0-.535,1.3h3.141V9.788a1.681,1.681,0,0,0-.406-1.165A1.456,1.456,0,0,0,78.848,8.211Zm8.531,5.125a1.481,1.481,0,0,0,1.016-.344,1.2,1.2,0,0,0,.406-.914h2.117a2.9,2.9,0,0,1-.469,1.574,3.093,3.093,0,0,1-1.262,1.109,3.949,3.949,0,0,1-1.77.395A3.67,3.67,0,0,1,84.559,14a4.56,4.56,0,0,1-1.047-3.184v-.148a4.508,4.508,0,0,1,1.039-3.117A3.627,3.627,0,0,1,87.4,6.391a3.555,3.555,0,0,1,2.543.9,3.2,3.2,0,0,1,.973,2.4H88.8a1.551,1.551,0,0,0-.406-1.072,1.51,1.51,0,0,0-2.223.163,3.333,3.333,0,0,0-.4,1.866v.235a3.375,3.375,0,0,0,.4,1.878A1.377,1.377,0,0,0,87.379,13.336Zm8.344,0a1.481,1.481,0,0,0,1.016-.344,1.2,1.2,0,0,0,.406-.914h2.117a2.9,2.9,0,0,1-.469,1.574,3.093,3.093,0,0,1-1.262,1.109,3.949,3.949,0,0,1-1.77.395A3.67,3.67,0,0,1,92.9,14a4.56,4.56,0,0,1-1.047-3.184v-.148a4.508,4.508,0,0,1,1.039-3.117,3.627,3.627,0,0,1,2.852-1.164,3.555,3.555,0,0,1,2.543.9,3.2,3.2,0,0,1,.973,2.4H97.145a1.551,1.551,0,0,0-.406-1.072,1.51,1.51,0,0,0-2.223.163,3.333,3.333,0,0,0-.4,1.866v.235a3.375,3.375,0,0,0,.4,1.878A1.377,1.377,0,0,0,95.723,13.336ZM102.934,15h-2.266V6.547h2.266Zm-2.4-10.641a1.112,1.112,0,0,1,.34-.836,1.465,1.465,0,0,1,1.848,0,1.105,1.105,0,0,1,.344.836,1.108,1.108,0,0,1-.348.844,1.448,1.448,0,0,1-1.836,0A1.108,1.108,0,0,1,100.535,4.359Zm3.906,6.336a5.013,5.013,0,0,1,.484-2.242A3.546,3.546,0,0,1,106.32,6.93a4.069,4.069,0,0,1,2.113-.539,3.849,3.849,0,0,1,2.793,1.047,4.2,4.2,0,0,1,1.207,2.844l.016.578a4.418,4.418,0,0,1-1.086,3.121,4.209,4.209,0,0,1-5.832,0,4.5,4.5,0,0,1-1.09-3.187Zm2.258.16a3.16,3.16,0,0,0,.453,1.843,1.628,1.628,0,0,0,2.578.008,3.457,3.457,0,0,0,.461-2.015,3.128,3.128,0,0,0-.461-1.831,1.5,1.5,0,0,0-1.3-.649,1.474,1.474,0,0,0-1.281.646A3.516,3.516,0,0,0,106.7,10.856ZM108.879,3h2.461l-2.164,2.422H107.34Zm7.039,3.547.07.977a2.951,2.951,0,0,1,2.43-1.133,2.453,2.453,0,0,1,2,.789,3.682,3.682,0,0,1,.672,2.359V15h-2.258V9.594a1.465,1.465,0,0,0-.312-1.043,1.4,1.4,0,0,0-1.039-.324,1.553,1.553,0,0,0-1.43.813V15h-2.258V6.547Zm10.516,4.164a5.094,5.094,0,0,1,.887-3.148,2.877,2.877,0,0,1,2.426-1.172,2.589,2.589,0,0,1,2.039.922V3h2.266V15h-2.039l-.109-.9a2.657,2.657,0,0,1-2.172,1.055,2.869,2.869,0,0,1-2.395-1.176A5.258,5.258,0,0,1,126.434,10.711Zm2.258.168a3.337,3.337,0,0,0,.414,1.823,1.349,1.349,0,0,0,1.2.634,1.511,1.511,0,0,0,1.477-.884V9.111a1.489,1.489,0,0,0-1.461-.884Q128.691,8.227,128.691,10.879Zm11,4.277a4.15,4.15,0,0,1-3.027-1.141,4.054,4.054,0,0,1-1.168-3.039v-.219a5.106,5.106,0,0,1,.492-2.277,3.612,3.612,0,0,1,1.395-1.547,3.914,3.914,0,0,1,2.059-.543,3.508,3.508,0,0,1,2.73,1.094,4.444,4.444,0,0,1,1,3.1v.922h-5.383a2.1,2.1,0,0,0,.66,1.328,2,2,0,0,0,1.395.5,2.437,2.437,0,0,0,2.039-.945l1.109,1.242a3.389,3.389,0,0,1-1.375,1.121A4.511,4.511,0,0,1,139.691,15.156Zm-.258-6.945a1.411,1.411,0,0,0-1.09.455,2.357,2.357,0,0,0-.535,1.3h3.141V9.788a1.681,1.681,0,0,0-.406-1.165A1.456,1.456,0,0,0,139.434,8.211ZM150.816,15h-2.266V3h2.266Zm6.758,0a2.507,2.507,0,0,1-.227-.758,2.732,2.732,0,0,1-2.133.914,3,3,0,0,1-2.059-.719,2.312,2.312,0,0,1-.816-1.812,2.389,2.389,0,0,1,1-2.062,4.915,4.915,0,0,1,2.879-.727h1.039V9.352a1.393,1.393,0,0,0-.3-.937A1.183,1.183,0,0,0,156,8.063a1.345,1.345,0,0,0-.895.273.929.929,0,0,0-.324.75h-2.258a2.268,2.268,0,0,1,.453-1.359,3,3,0,0,1,1.281-.98,4.669,4.669,0,0,1,1.859-.355,3.689,3.689,0,0,1,2.48.785,2.747,2.747,0,0,1,.918,2.207v3.664a4.041,4.041,0,0,0,.336,1.82V15Zm-1.867-1.57a1.945,1.945,0,0,0,.922-.223,1.462,1.462,0,0,0,.625-.6V11.156h-.844q-1.7,0-1.8,1.172l-.008.133a.9.9,0,0,0,.3.7A1.153,1.153,0,0,0,155.707,13.43ZM5.57,30.7a5.013,5.013,0,0,1,.484-2.242A3.546,3.546,0,0,1,7.449,26.93a4.069,4.069,0,0,1,2.113-.539,3.849,3.849,0,0,1,2.793,1.047,4.2,4.2,0,0,1,1.207,2.844l.016.578a4.418,4.418,0,0,1-1.086,3.121,3.775,3.775,0,0,1-2.914,1.176A3.793,3.793,0,0,1,6.66,33.984,4.5,4.5,0,0,1,5.57,30.8Zm2.258.16A3.16,3.16,0,0,0,8.281,32.7a1.5,1.5,0,0,0,1.3.638,1.5,1.5,0,0,0,1.281-.63,3.457,3.457,0,0,0,.461-2.015,3.128,3.128,0,0,0-.461-1.831,1.5,1.5,0,0,0-1.3-.649,1.474,1.474,0,0,0-1.281.646A3.516,3.516,0,0,0,7.828,30.856Zm11.891-2.192a6.134,6.134,0,0,0-.812-.062,1.654,1.654,0,0,0-1.68.867V35H14.969V26.547H17.1l.063,1.008a2.092,2.092,0,0,1,1.883-1.164,2.366,2.366,0,0,1,.7.1Zm.609,2.047a4.954,4.954,0,0,1,.926-3.133,3,3,0,0,1,2.5-1.187,2.631,2.631,0,0,1,2.164.953l.094-.8h2.047v8.172a3.613,3.613,0,0,1-.5,1.93,3.236,3.236,0,0,1-1.418,1.25,4.985,4.985,0,0,1-2.141.43,4.635,4.635,0,0,1-1.812-.371A3.217,3.217,0,0,1,20.844,37l1-1.375a2.645,2.645,0,0,0,2.047.945,1.936,1.936,0,0,0,1.4-.48,1.8,1.8,0,0,0,.5-1.363v-.453a2.612,2.612,0,0,1-2.055.883,2.992,2.992,0,0,1-2.465-1.191,4.953,4.953,0,0,1-.941-3.16Zm2.258.168a3.085,3.085,0,0,0,.461,1.8,1.466,1.466,0,0,0,1.266.653,1.568,1.568,0,0,0,1.477-.775V29a1.564,1.564,0,0,0-1.461-.775,1.476,1.476,0,0,0-1.277.665A3.477,3.477,0,0,0,22.586,30.879ZM34.688,35a2.507,2.507,0,0,1-.227-.758,2.732,2.732,0,0,1-2.133.914,3,3,0,0,1-2.059-.719,2.312,2.312,0,0,1-.816-1.812,2.389,2.389,0,0,1,1-2.062,4.915,4.915,0,0,1,2.879-.727h1.039v-.484a1.393,1.393,0,0,0-.3-.937,1.183,1.183,0,0,0-.949-.352,1.345,1.345,0,0,0-.895.273.929.929,0,0,0-.324.75H29.641a2.268,2.268,0,0,1,.453-1.359,3,3,0,0,1,1.281-.98,4.669,4.669,0,0,1,1.859-.355,3.689,3.689,0,0,1,2.48.785,2.747,2.747,0,0,1,.918,2.207v3.664a4.041,4.041,0,0,0,.336,1.82V35ZM32.82,33.43a1.945,1.945,0,0,0,.922-.223,1.462,1.462,0,0,0,.625-.6V31.156h-.844q-1.7,0-1.8,1.172l-.008.133a.9.9,0,0,0,.3.7A1.153,1.153,0,0,0,32.82,33.43Zm7.625-6.883.07.977a2.951,2.951,0,0,1,2.43-1.133,2.453,2.453,0,0,1,2,.789,3.682,3.682,0,0,1,.672,2.359V35H43.359V29.594a1.465,1.465,0,0,0-.312-1.043,1.4,1.4,0,0,0-1.039-.324,1.553,1.553,0,0,0-1.43.813V35H38.32V26.547ZM49.711,35H47.445V26.547h2.266Zm-2.4-10.641a1.112,1.112,0,0,1,.34-.836,1.465,1.465,0,0,1,1.848,0,1.193,1.193,0,0,1,0,1.68,1.448,1.448,0,0,1-1.836,0A1.108,1.108,0,0,1,47.313,24.359Zm6.852,8.82H58.3V35H51.281V33.625l3.977-5.258H51.4v-1.82h6.773v1.33ZM64.609,35a2.507,2.507,0,0,1-.227-.758,2.732,2.732,0,0,1-2.133.914,3,3,0,0,1-2.059-.719,2.312,2.312,0,0,1-.816-1.812,2.389,2.389,0,0,1,1-2.062,4.915,4.915,0,0,1,2.879-.727h1.039v-.484a1.393,1.393,0,0,0-.3-.937,1.183,1.183,0,0,0-.949-.352,1.345,1.345,0,0,0-.895.273.929.929,0,0,0-.324.75H59.563a2.268,2.268,0,0,1,.453-1.359,3,3,0,0,1,1.281-.98,4.669,4.669,0,0,1,1.859-.355,3.689,3.689,0,0,1,2.48.785,2.747,2.747,0,0,1,.918,2.207v3.664a4.041,4.041,0,0,0,.336,1.82V35Zm-1.867-1.57a1.945,1.945,0,0,0,.922-.223,1.462,1.462,0,0,0,.625-.6V31.156h-.844q-1.7,0-1.8,1.172l-.008.133a.9.9,0,0,0,.3.7A1.153,1.153,0,0,0,62.742,33.43Zm9.063-.094a1.481,1.481,0,0,0,1.016-.344,1.2,1.2,0,0,0,.406-.914h2.117a2.9,2.9,0,0,1-.469,1.574,3.093,3.093,0,0,1-1.262,1.109,3.949,3.949,0,0,1-1.77.395A3.67,3.67,0,0,1,68.984,34a4.56,4.56,0,0,1-1.047-3.184v-.148a4.508,4.508,0,0,1,1.039-3.117,3.627,3.627,0,0,1,2.852-1.164,3.555,3.555,0,0,1,2.543.9,3.2,3.2,0,0,1,.973,2.4H73.227a1.551,1.551,0,0,0-.406-1.072,1.51,1.51,0,0,0-2.223.163,3.333,3.333,0,0,0-.4,1.866v.235a3.375,3.375,0,0,0,.4,1.878A1.377,1.377,0,0,0,71.8,33.336ZM79.016,35H76.75V26.547h2.266Zm-2.4-10.641a1.112,1.112,0,0,1,.34-.836,1.465,1.465,0,0,1,1.848,0,1.193,1.193,0,0,1,0,1.68,1.448,1.448,0,0,1-1.836,0A1.108,1.108,0,0,1,76.617,24.359ZM80.523,30.7a5.013,5.013,0,0,1,.484-2.242A3.546,3.546,0,0,1,82.4,26.93a4.069,4.069,0,0,1,2.113-.539,3.849,3.849,0,0,1,2.793,1.047,4.2,4.2,0,0,1,1.207,2.844l.016.578a4.418,4.418,0,0,1-1.086,3.121,4.209,4.209,0,0,1-5.832,0,4.5,4.5,0,0,1-1.09-3.187Zm2.258.16a3.16,3.16,0,0,0,.453,1.843,1.628,1.628,0,0,0,2.578.008,3.457,3.457,0,0,0,.461-2.015,3.128,3.128,0,0,0-.461-1.831,1.5,1.5,0,0,0-1.3-.649,1.474,1.474,0,0,0-1.281.646A3.516,3.516,0,0,0,82.781,30.856ZM84.961,23h2.461l-2.164,2.422H83.422ZM92,26.547l.07.977a2.951,2.951,0,0,1,2.43-1.133,2.453,2.453,0,0,1,2,.789,3.682,3.682,0,0,1,.672,2.359V35H94.914V29.594a1.465,1.465,0,0,0-.312-1.043,1.4,1.4,0,0,0-1.039-.324,1.553,1.553,0,0,0-1.43.813V35H89.875V26.547ZM107.766,35a2.507,2.507,0,0,1-.227-.758,2.732,2.732,0,0,1-2.133.914,3,3,0,0,1-2.059-.719,2.312,2.312,0,0,1-.816-1.812,2.389,2.389,0,0,1,1-2.062,4.915,4.915,0,0,1,2.879-.727h1.039v-.484a1.393,1.393,0,0,0-.3-.937,1.183,1.183,0,0,0-.949-.352,1.345,1.345,0,0,0-.895.273.929.929,0,0,0-.324.75h-2.258a2.268,2.268,0,0,1,.453-1.359,3,3,0,0,1,1.281-.98,4.669,4.669,0,0,1,1.859-.355,3.689,3.689,0,0,1,2.48.785,2.747,2.747,0,0,1,.918,2.207v3.664a4.041,4.041,0,0,0,.336,1.82V35ZM105.9,33.43a1.945,1.945,0,0,0,.922-.223,1.462,1.462,0,0,0,.625-.6V31.156H106.6q-1.7,0-1.8,1.172l-.008.133a.9.9,0,0,0,.3.7A1.153,1.153,0,0,0,105.9,33.43Zm13.047-.094a1.481,1.481,0,0,0,1.016-.344,1.2,1.2,0,0,0,.406-.914h2.117a2.9,2.9,0,0,1-.469,1.574,3.093,3.093,0,0,1-1.262,1.109,3.949,3.949,0,0,1-1.77.395A3.67,3.67,0,0,1,116.125,34a4.56,4.56,0,0,1-1.047-3.184v-.148a4.508,4.508,0,0,1,1.039-3.117,3.627,3.627,0,0,1,2.852-1.164,3.555,3.555,0,0,1,2.543.9,3.2,3.2,0,0,1,.973,2.4h-2.117a1.551,1.551,0,0,0-.406-1.072,1.51,1.51,0,0,0-2.223.163,3.333,3.333,0,0,0-.4,1.866v.235a3.375,3.375,0,0,0,.4,1.878A1.377,1.377,0,0,0,118.945,33.336ZM126.156,35h-2.266V26.547h2.266Zm-2.4-10.641a1.112,1.112,0,0,1,.34-.836,1.465,1.465,0,0,1,1.848,0,1.193,1.193,0,0,1,0,1.68,1.448,1.448,0,0,1-1.836,0A1.108,1.108,0,0,1,123.758,24.359Zm6.336,2.188.07.977a2.951,2.951,0,0,1,2.43-1.133,2.453,2.453,0,0,1,2,.789,3.682,3.682,0,0,1,.672,2.359V35h-2.258V29.594a1.465,1.465,0,0,0-.312-1.043,1.4,1.4,0,0,0-1.039-.324,1.553,1.553,0,0,0-1.43.813V35h-2.258V26.547Zm10.4,6.789a1.481,1.481,0,0,0,1.016-.344,1.2,1.2,0,0,0,.406-.914h2.117a2.9,2.9,0,0,1-.469,1.574,3.093,3.093,0,0,1-1.262,1.109,3.949,3.949,0,0,1-1.77.395A3.67,3.67,0,0,1,137.672,34a4.56,4.56,0,0,1-1.047-3.184v-.148a4.508,4.508,0,0,1,1.039-3.117,3.627,3.627,0,0,1,2.852-1.164,3.555,3.555,0,0,1,2.543.9,3.2,3.2,0,0,1,.973,2.4h-2.117a1.551,1.551,0,0,0-.406-1.072,1.51,1.51,0,0,0-2.223.163,3.333,3.333,0,0,0-.4,1.866v.235a3.375,3.375,0,0,0,.4,1.878A1.377,1.377,0,0,0,140.492,33.336Zm4.477-2.641a5.013,5.013,0,0,1,.484-2.242,3.546,3.546,0,0,1,1.395-1.523,4.069,4.069,0,0,1,2.113-.539,3.849,3.849,0,0,1,2.793,1.047,4.2,4.2,0,0,1,1.207,2.844l.016.578a4.418,4.418,0,0,1-1.086,3.121,4.209,4.209,0,0,1-5.832,0,4.5,4.5,0,0,1-1.09-3.187Zm2.258.16a3.16,3.16,0,0,0,.453,1.843,1.628,1.628,0,0,0,2.578.008,3.457,3.457,0,0,0,.461-2.015,3.128,3.128,0,0,0-.461-1.831,1.5,1.5,0,0,0-1.3-.649,1.474,1.474,0,0,0-1.281.646A3.516,3.516,0,0,0,147.227,30.856ZM163.25,35a2.507,2.507,0,0,1-.227-.758,2.732,2.732,0,0,1-2.133.914,3,3,0,0,1-2.059-.719,2.312,2.312,0,0,1-.816-1.812,2.389,2.389,0,0,1,1-2.062,4.915,4.915,0,0,1,2.879-.727h1.039v-.484a1.393,1.393,0,0,0-.3-.937,1.183,1.183,0,0,0-.949-.352,1.345,1.345,0,0,0-.895.273.929.929,0,0,0-.324.75H158.2a2.268,2.268,0,0,1,.453-1.359,3,3,0,0,1,1.281-.98,4.669,4.669,0,0,1,1.859-.355,3.689,3.689,0,0,1,2.48.785,2.747,2.747,0,0,1,.918,2.207v3.664a4.041,4.041,0,0,0,.336,1.82V35Zm-1.867-1.57a1.945,1.945,0,0,0,.922-.223,1.462,1.462,0,0,0,.625-.6V31.156h-.844q-1.7,0-1.8,1.172l-.008.133a.9.9,0,0,0,.3.7A1.153,1.153,0,0,0,161.383,33.43Zm7.625-6.883.07.977a2.951,2.951,0,0,1,2.43-1.133,2.453,2.453,0,0,1,2,.789,3.682,3.682,0,0,1,.672,2.359V35h-2.258V29.594a1.465,1.465,0,0,0-.312-1.043,1.4,1.4,0,0,0-1.039-.324,1.553,1.553,0,0,0-1.43.813V35h-2.258V26.547Zm4.484-3.445a2.187,2.187,0,0,1-.516,1.48,1.6,1.6,0,0,1-1.258.6,1.908,1.908,0,0,1-.527-.066,3.539,3.539,0,0,1-.637-.285,3.434,3.434,0,0,0-.586-.27,1.432,1.432,0,0,0-.391-.051.627.627,0,0,0-.465.2.759.759,0,0,0-.191.555l-1.312-.078a2.22,2.22,0,0,1,.512-1.477,1.578,1.578,0,0,1,1.254-.609,1.614,1.614,0,0,1,.441.059,4.861,4.861,0,0,1,.676.285,4.392,4.392,0,0,0,.648.273,1.48,1.48,0,0,0,.375.047.659.659,0,0,0,.473-.191.728.728,0,0,0,.2-.551Zm2.047,7.594a5.013,5.013,0,0,1,.484-2.242,3.546,3.546,0,0,1,1.395-1.523,4.069,4.069,0,0,1,2.113-.539,3.849,3.849,0,0,1,2.793,1.047,4.2,4.2,0,0,1,1.207,2.844l.016.578a4.418,4.418,0,0,1-1.086,3.121,4.209,4.209,0,0,1-5.832,0,4.5,4.5,0,0,1-1.09-3.187Zm2.258.16a3.16,3.16,0,0,0,.453,1.843,1.628,1.628,0,0,0,2.578.008,3.457,3.457,0,0,0,.461-2.015,3.128,3.128,0,0,0-.461-1.831,1.5,1.5,0,0,0-1.3-.649,1.474,1.474,0,0,0-1.281.646A3.516,3.516,0,0,0,177.8,30.856Zm11.719,1.808a.727.727,0,0,0-.41-.652,4.659,4.659,0,0,0-1.316-.426q-3.016-.633-3.016-2.562a2.323,2.323,0,0,1,.934-1.879,3.766,3.766,0,0,1,2.441-.754,4.053,4.053,0,0,1,2.574.758,2.388,2.388,0,0,1,.965,1.969H189.43a1.092,1.092,0,0,0-.312-.8,1.322,1.322,0,0,0-.977-.316,1.351,1.351,0,0,0-.883.258.814.814,0,0,0-.312.656.7.7,0,0,0,.355.605,3.657,3.657,0,0,0,1.2.4,9.8,9.8,0,0,1,1.422.379,2.336,2.336,0,0,1,1.789,2.273,2.205,2.205,0,0,1-.992,1.871,4.28,4.28,0,0,1-2.562.715,4.47,4.47,0,0,1-1.887-.379,3.166,3.166,0,0,1-1.293-1.039,2.414,2.414,0,0,1-.469-1.426h2.141a1.179,1.179,0,0,0,.445.922,1.766,1.766,0,0,0,1.109.32,1.635,1.635,0,0,0,.98-.246A.766.766,0,0,0,189.516,32.664Zm3.766,1.227a1.137,1.137,0,0,1,.363-.875,1.412,1.412,0,0,1,1.828,0,1.137,1.137,0,0,1,.363.875,1.121,1.121,0,0,1-.359.863,1.435,1.435,0,0,1-1.836,0A1.121,1.121,0,0,1,193.281,33.891Z" transform="translate(1025 5683)" fill="#12263f"/>
    <path id="Trazado_776889" data-name="Trazado 776889" d="M19.68,3.625,23.4,12.906l3.719-9.281h1.945V15h-1.5V10.57L27.7,5.789,23.969,15H22.82L19.094,5.813l.148,4.758V15h-1.5V3.625ZM34.992,15.156a3.693,3.693,0,0,1-2.8-1.129,4.19,4.19,0,0,1-1.078-3.02v-.266A5.073,5.073,0,0,1,31.6,8.5a3.748,3.748,0,0,1,1.344-1.547,3.378,3.378,0,0,1,1.871-.559,3.166,3.166,0,0,1,2.563,1.086,4.7,4.7,0,0,1,.914,3.109v.6H32.563a3,3,0,0,0,.73,2.02,2.3,2.3,0,0,0,1.777.77,2.517,2.517,0,0,0,1.3-.312,3.259,3.259,0,0,0,.93-.828l.883.688A3.55,3.55,0,0,1,34.992,15.156Zm-.18-7.578a1.928,1.928,0,0,0-1.469.637A3.1,3.1,0,0,0,32.609,10h4.234V9.891a2.753,2.753,0,0,0-.594-1.707A1.815,1.815,0,0,0,34.813,7.578ZM41.922,4.5V6.547H43.5V7.664H41.922v5.249a1.173,1.173,0,0,0,.211.763.888.888,0,0,0,.719.254,3.5,3.5,0,0,0,.688-.094V15a4.215,4.215,0,0,1-1.109.155,1.8,1.8,0,0,1-1.461-.586,2.517,2.517,0,0,1-.492-1.664V7.664H38.938V6.547h1.539V4.5ZM50.406,15a3.036,3.036,0,0,1-.2-.891A3.225,3.225,0,0,1,47.8,15.156a2.984,2.984,0,0,1-2.051-.707,2.287,2.287,0,0,1-.8-1.793,2.39,2.39,0,0,1,1-2.051,4.733,4.733,0,0,1,2.824-.73H50.18V9.211A1.623,1.623,0,0,0,49.727,8a1.821,1.821,0,0,0-1.336-.449,2.107,2.107,0,0,0-1.3.391,1.151,1.151,0,0,0-.523.945H45.117a2,2,0,0,1,.449-1.223,3.066,3.066,0,0,1,1.219-.934,4.1,4.1,0,0,1,1.691-.344,3.342,3.342,0,0,1,2.289.73,2.635,2.635,0,0,1,.859,2.012v3.891a4.757,4.757,0,0,0,.3,1.852V15Zm-2.4-1.1a2.54,2.54,0,0,0,1.289-.352,2.127,2.127,0,0,0,.883-.914V10.9H49.047q-2.656,0-2.656,1.555a1.316,1.316,0,0,0,.453,1.063A1.742,1.742,0,0,0,48.008,13.9Zm10.8-1.141a1.064,1.064,0,0,0-.441-.91,4.249,4.249,0,0,0-1.539-.559,7.277,7.277,0,0,1-1.742-.562,2.479,2.479,0,0,1-.953-.781,1.869,1.869,0,0,1-.309-1.078,2.193,2.193,0,0,1,.879-1.758,3.432,3.432,0,0,1,2.246-.719,3.532,3.532,0,0,1,2.332.742,2.357,2.357,0,0,1,.895,1.9H58.727a1.3,1.3,0,0,0-.5-1.023,1.888,1.888,0,0,0-1.27-.43,1.976,1.976,0,0,0-1.234.344,1.082,1.082,0,0,0-.445.9.877.877,0,0,0,.414.789,5.1,5.1,0,0,0,1.5.508,7.8,7.8,0,0,1,1.754.578,2.558,2.558,0,0,1,1,.809,1.988,1.988,0,0,1,.324,1.152,2.163,2.163,0,0,1-.906,1.816A3.8,3.8,0,0,1,57,15.156a4.257,4.257,0,0,1-1.8-.359,2.922,2.922,0,0,1-1.223-1,2.42,2.42,0,0,1-.441-1.395h1.445a1.5,1.5,0,0,0,.582,1.152A2.258,2.258,0,0,0,57,13.977a2.331,2.331,0,0,0,1.316-.332A1.02,1.02,0,0,0,58.813,12.758Zm10.055.125,1.969-6.336h1.547l-3.4,9.758q-.789,2.109-2.508,2.109l-.273-.023-.539-.1V17.117l.391.031a1.923,1.923,0,0,0,1.145-.3,2.149,2.149,0,0,0,.676-1.086l.32-.859L65.18,6.547h1.578ZM12.953,28.7a4.993,4.993,0,0,1,.488-2.234A3.643,3.643,0,0,1,14.8,24.93a3.7,3.7,0,0,1,1.988-.539,3.565,3.565,0,0,1,2.793,1.2,4.6,4.6,0,0,1,1.066,3.18v.1a5.036,5.036,0,0,1-.473,2.215,3.589,3.589,0,0,1-1.352,1.527,3.743,3.743,0,0,1-2.02.547,3.556,3.556,0,0,1-2.785-1.2A4.575,4.575,0,0,1,12.953,28.8Zm1.453.172a3.616,3.616,0,0,0,.652,2.258,2.211,2.211,0,0,0,3.5-.012A3.955,3.955,0,0,0,19.2,28.7a3.61,3.61,0,0,0-.66-2.254,2.1,2.1,0,0,0-1.754-.863,2.075,2.075,0,0,0-1.727.852A3.925,3.925,0,0,0,14.406,28.867Zm15.211,0a5.026,5.026,0,0,1-.891,3.113,2.846,2.846,0,0,1-2.391,1.176,2.947,2.947,0,0,1-2.477-1.133l-.07.977H22.461V21h1.445v4.477a2.93,2.93,0,0,1,2.414-1.086,2.863,2.863,0,0,1,2.418,1.164,5.177,5.177,0,0,1,.879,3.188ZM28.172,28.7a3.906,3.906,0,0,0-.57-2.281,1.888,1.888,0,0,0-1.641-.8,2.122,2.122,0,0,0-2.055,1.328V30.6a2.181,2.181,0,0,0,2.07,1.328,1.878,1.878,0,0,0,1.617-.8A4.153,4.153,0,0,0,28.172,28.7Zm4.758-4.156v9.43q0,2.438-2.211,2.438a2.7,2.7,0,0,1-.883-.14V35.125a2.794,2.794,0,0,0,.656.063.982.982,0,0,0,.738-.262,1.3,1.3,0,0,0,.254-.911V24.547ZM31.336,22.3a.867.867,0,0,1,.215-.59.79.79,0,0,1,.629-.246.819.819,0,0,1,.641.242.854.854,0,0,1,.219.594.826.826,0,0,1-.219.586.834.834,0,0,1-.641.234.808.808,0,0,1-.633-.234A.843.843,0,0,1,31.336,22.3Zm7.43,10.852a3.693,3.693,0,0,1-2.8-1.129,4.19,4.19,0,0,1-1.078-3.02v-.266a5.073,5.073,0,0,1,.48-2.246,3.748,3.748,0,0,1,1.344-1.547,3.378,3.378,0,0,1,1.871-.559,3.166,3.166,0,0,1,2.563,1.086,4.7,4.7,0,0,1,.914,3.109v.6H36.336a3,3,0,0,0,.73,2.02,2.3,2.3,0,0,0,1.777.77,2.517,2.517,0,0,0,1.3-.312,3.259,3.259,0,0,0,.93-.828l.883.688A3.55,3.55,0,0,1,38.766,33.156Zm-.18-7.578a1.928,1.928,0,0,0-1.469.637A3.1,3.1,0,0,0,36.383,28h4.234v-.109a2.753,2.753,0,0,0-.594-1.707A1.815,1.815,0,0,0,38.586,25.578ZM45.7,22.5v2.047h1.578v1.117H45.7v5.249a1.173,1.173,0,0,0,.211.763.888.888,0,0,0,.719.254,3.5,3.5,0,0,0,.688-.094V33a4.215,4.215,0,0,1-1.109.155,1.8,1.8,0,0,1-1.461-.586,2.517,2.517,0,0,1-.492-1.664V25.664H42.711V24.547H44.25V22.5ZM50.531,33H49.086V24.547h1.445ZM48.969,22.3a.863.863,0,0,1,.215-.594.807.807,0,0,1,.637-.242.819.819,0,0,1,.641.242.854.854,0,0,1,.219.594.826.826,0,0,1-.219.586.834.834,0,0,1-.641.234.821.821,0,0,1-.637-.234A.834.834,0,0,1,48.969,22.3Zm6.664,8.734,2.094-6.492H59.2L56.172,33h-1.1l-3.062-8.453h1.477ZM60.094,28.7a4.993,4.993,0,0,1,.488-2.234,3.643,3.643,0,0,1,1.359-1.531,3.7,3.7,0,0,1,1.988-.539,3.565,3.565,0,0,1,2.793,1.2,4.6,4.6,0,0,1,1.066,3.18v.1a5.036,5.036,0,0,1-.473,2.215,3.589,3.589,0,0,1-1.352,1.527,3.743,3.743,0,0,1-2.02.547,3.556,3.556,0,0,1-2.785-1.2A4.575,4.575,0,0,1,60.094,28.8Zm1.453.172a3.616,3.616,0,0,0,.652,2.258,2.211,2.211,0,0,0,3.5-.012,3.955,3.955,0,0,0,.648-2.418,3.61,3.61,0,0,0-.66-2.254,2.1,2.1,0,0,0-1.754-.863,2.075,2.075,0,0,0-1.727.852A3.925,3.925,0,0,0,61.547,28.867Zm12.977,1.891a1.064,1.064,0,0,0-.441-.91,4.249,4.249,0,0,0-1.539-.559,7.277,7.277,0,0,1-1.742-.562,2.478,2.478,0,0,1-.953-.781,1.869,1.869,0,0,1-.309-1.078,2.193,2.193,0,0,1,.879-1.758,3.432,3.432,0,0,1,2.246-.719A3.532,3.532,0,0,1,75,25.133a2.357,2.357,0,0,1,.895,1.9H74.438a1.3,1.3,0,0,0-.5-1.023,1.888,1.888,0,0,0-1.27-.43,1.976,1.976,0,0,0-1.234.344,1.082,1.082,0,0,0-.445.9.877.877,0,0,0,.414.789,5.1,5.1,0,0,0,1.5.508,7.8,7.8,0,0,1,1.754.578,2.558,2.558,0,0,1,1,.809,1.988,1.988,0,0,1,.324,1.152,2.163,2.163,0,0,1-.906,1.816,3.8,3.8,0,0,1-2.352.684,4.257,4.257,0,0,1-1.8-.359,2.922,2.922,0,0,1-1.223-1A2.42,2.42,0,0,1,69.25,30.4H70.7a1.5,1.5,0,0,0,.582,1.152,2.258,2.258,0,0,0,1.434.426,2.331,2.331,0,0,0,1.316-.332A1.02,1.02,0,0,0,74.523,30.758Z" transform="translate(662 5877)" fill="#fff"/>
    <path id="Trazado_776890" data-name="Trazado 776890" d="M23.789,3.625l3.719,9.281,3.719-9.281h1.945V15h-1.5V10.57l.141-4.781L28.078,15H26.93L23.2,5.813l.148,4.758V15h-1.5V3.625ZM37.164,15H35.719V6.547h1.445ZM35.6,4.3a.863.863,0,0,1,.215-.594.807.807,0,0,1,.637-.242.819.819,0,0,1,.641.242.854.854,0,0,1,.219.594.826.826,0,0,1-.219.586.834.834,0,0,1-.641.234.821.821,0,0,1-.637-.234A.834.834,0,0,1,35.6,4.3Zm8.8,8.453a1.064,1.064,0,0,0-.441-.91,4.249,4.249,0,0,0-1.539-.559,7.277,7.277,0,0,1-1.742-.562,2.479,2.479,0,0,1-.953-.781,1.869,1.869,0,0,1-.309-1.078,2.193,2.193,0,0,1,.879-1.758,3.432,3.432,0,0,1,2.246-.719,3.532,3.532,0,0,1,2.332.742,2.357,2.357,0,0,1,.895,1.9H44.313a1.3,1.3,0,0,0-.5-1.023,1.888,1.888,0,0,0-1.27-.43,1.976,1.976,0,0,0-1.234.344,1.082,1.082,0,0,0-.445.9.877.877,0,0,0,.414.789,5.1,5.1,0,0,0,1.5.508,7.8,7.8,0,0,1,1.754.578,2.558,2.558,0,0,1,1,.809,1.988,1.988,0,0,1,.324,1.152,2.163,2.163,0,0,1-.906,1.816,3.8,3.8,0,0,1-2.352.684,4.257,4.257,0,0,1-1.8-.359,2.922,2.922,0,0,1-1.223-1,2.42,2.42,0,0,1-.441-1.395H40.57a1.5,1.5,0,0,0,.582,1.152,2.258,2.258,0,0,0,1.434.426,2.331,2.331,0,0,0,1.316-.332A1.02,1.02,0,0,0,44.4,12.758ZM49.3,15H47.852V6.547H49.3ZM47.734,4.3a.863.863,0,0,1,.215-.594.807.807,0,0,1,.637-.242.819.819,0,0,1,.641.242.854.854,0,0,1,.219.594.826.826,0,0,1-.219.586.834.834,0,0,1-.641.234.821.821,0,0,1-.637-.234A.834.834,0,0,1,47.734,4.3ZM51.227,10.7a4.993,4.993,0,0,1,.488-2.234A3.643,3.643,0,0,1,53.074,6.93a3.7,3.7,0,0,1,1.988-.539,3.565,3.565,0,0,1,2.793,1.2,4.6,4.6,0,0,1,1.066,3.18v.1a5.036,5.036,0,0,1-.473,2.215A3.589,3.589,0,0,1,57.1,14.609a3.743,3.743,0,0,1-2.02.547,3.556,3.556,0,0,1-2.785-1.2A4.575,4.575,0,0,1,51.227,10.8Zm1.453.172a3.616,3.616,0,0,0,.652,2.258,2.211,2.211,0,0,0,3.5-.012,3.955,3.955,0,0,0,.648-2.418,3.61,3.61,0,0,0-.66-2.254,2.1,2.1,0,0,0-1.754-.863,2.075,2.075,0,0,0-1.727.852A3.925,3.925,0,0,0,52.68,10.867ZM55.719,3h1.75L55.375,5.3l-1.164,0ZM62.1,6.547l.047,1.063A3.08,3.08,0,0,1,64.68,6.391q2.68,0,2.7,3.023V15H65.938V9.406a1.946,1.946,0,0,0-.418-1.352,1.675,1.675,0,0,0-1.277-.437,2.086,2.086,0,0,0-1.234.375,2.546,2.546,0,0,0-.828.984V15H60.734V6.547Z" transform="translate(716 5812)" fill="#fff"/>
    <path id="Trazado_776891" data-name="Trazado 776891" d="M27.512,13.008l3.25-9.383H32.4L28.184,15H26.855L22.645,3.625h1.633ZM35.27,15H33.824V6.547H35.27ZM33.707,4.3a.863.863,0,0,1,.215-.594.807.807,0,0,1,.637-.242.819.819,0,0,1,.641.242.854.854,0,0,1,.219.594.826.826,0,0,1-.219.586.834.834,0,0,1-.641.234.821.821,0,0,1-.637-.234A.834.834,0,0,1,33.707,4.3Zm8.8,8.453a1.064,1.064,0,0,0-.441-.91,4.249,4.249,0,0,0-1.539-.559,7.277,7.277,0,0,1-1.742-.562,2.479,2.479,0,0,1-.953-.781,1.869,1.869,0,0,1-.309-1.078A2.193,2.193,0,0,1,38.4,7.109a3.432,3.432,0,0,1,2.246-.719,3.532,3.532,0,0,1,2.332.742,2.357,2.357,0,0,1,.895,1.9H42.418a1.3,1.3,0,0,0-.5-1.023,1.888,1.888,0,0,0-1.27-.43,1.976,1.976,0,0,0-1.234.344,1.082,1.082,0,0,0-.445.9.877.877,0,0,0,.414.789,5.1,5.1,0,0,0,1.5.508,7.8,7.8,0,0,1,1.754.578,2.558,2.558,0,0,1,1,.809,1.988,1.988,0,0,1,.324,1.152,2.163,2.163,0,0,1-.906,1.816,3.8,3.8,0,0,1-2.352.684,4.257,4.257,0,0,1-1.8-.359,2.922,2.922,0,0,1-1.223-1A2.42,2.42,0,0,1,37.23,12.4h1.445a1.5,1.5,0,0,0,.582,1.152,2.258,2.258,0,0,0,1.434.426,2.331,2.331,0,0,0,1.316-.332A1.02,1.02,0,0,0,42.5,12.758ZM47.4,15H45.957V6.547H47.4ZM45.84,4.3a.863.863,0,0,1,.215-.594.807.807,0,0,1,.637-.242.819.819,0,0,1,.641.242.854.854,0,0,1,.219.594.826.826,0,0,1-.219.586.834.834,0,0,1-.641.234.821.821,0,0,1-.637-.234A.834.834,0,0,1,45.84,4.3ZM49.332,10.7a4.993,4.993,0,0,1,.488-2.234A3.643,3.643,0,0,1,51.18,6.93a3.7,3.7,0,0,1,1.988-.539,3.565,3.565,0,0,1,2.793,1.2,4.6,4.6,0,0,1,1.066,3.18v.1a5.036,5.036,0,0,1-.473,2.215A3.589,3.589,0,0,1,55.2,14.609a3.743,3.743,0,0,1-2.02.547,3.556,3.556,0,0,1-2.785-1.2A4.575,4.575,0,0,1,49.332,10.8Zm1.453.172a3.616,3.616,0,0,0,.652,2.258,2.211,2.211,0,0,0,3.5-.012,3.955,3.955,0,0,0,.648-2.418,3.61,3.61,0,0,0-.66-2.254,2.1,2.1,0,0,0-1.754-.863,2.075,2.075,0,0,0-1.727.852A3.925,3.925,0,0,0,50.785,10.867ZM53.824,3h1.75L53.48,5.3l-1.164,0Zm6.383,3.547.047,1.063a3.08,3.08,0,0,1,2.531-1.219q2.68,0,2.7,3.023V15H64.043V9.406a1.946,1.946,0,0,0-.418-1.352,1.675,1.675,0,0,0-1.277-.437,2.086,2.086,0,0,0-1.234.375,2.546,2.546,0,0,0-.828.984V15H58.84V6.547Z" transform="translate(810 5748)" fill="#fff"/>
  </g>
</svg>
