<svg xmlns="http://www.w3.org/2000/svg" xmlns:xlink="http://www.w3.org/1999/xlink" width="85" height="85" viewBox="0 0 85 85">
  <defs>
    <clipPath id="clip-path">
      <rect id="Rectángulo_361650" data-name="Rectángulo 361650" width="85" height="85" transform="translate(1178 614)" fill="#636363"/>
    </clipPath>
  </defs>
  <g id="Enmascarar_grupo_998592" data-name="Enmascarar grupo 998592" transform="translate(-1178 -614)" clip-path="url(#clip-path)">
    <g id="servicio-de-calidad" transform="translate(1176.628 612.628)">
      <g id="Grupo_1029347" data-name="Grupo 1029347">
        <g id="Grupo_1029345" data-name="Grupo 1029345">
          <path id="Trazado_775461" data-name="Trazado 775461" d="M41.771,31.342,51.7,35.37,43.88,52.17a.377.377,0,0,1-.668.03L40.3,47.186l-5.714,1a.377.377,0,0,1-.407-.53Z" fill="#fe646f" fill-rule="evenodd"/>
          <path id="Trazado_775462" data-name="Trazado 775462" d="M50.651,34.944l1.05.426L43.88,52.17a.377.377,0,0,1-.668.03l-.693-1.193a.377.377,0,0,0,.668-.03ZM40.3,47.185l-5.714,1a.377.377,0,0,1-.407-.531l.361-.775,5.066-.885Z" fill="#fd4755" fill-rule="evenodd"/>
          <path id="Trazado_775463" data-name="Trazado 775463" d="M61.921,31.342l-9.93,4.028,7.821,16.8a.377.377,0,0,0,.668.03l2.914-5.015,5.714,1a.377.377,0,0,0,.407-.53Z" fill="#fe646f" fill-rule="evenodd"/>
          <path id="Trazado_775464" data-name="Trazado 775464" d="M53.042,34.944l-1.05.426,7.821,16.8a.377.377,0,0,0,.668.03l.693-1.193a.377.377,0,0,1-.668-.03ZM63.395,47.185l5.714,1a.377.377,0,0,0,.407-.531l-.361-.775-5.066-.885Z" fill="#fd4755" fill-rule="evenodd"/>
          <path id="Trazado_775465" data-name="Trazado 775465" d="M54.383,3.6l2.551,1.909a4.06,4.06,0,0,0,2.3.838l3.181.177A4.182,4.182,0,0,1,66.3,9.784l.727,3.1a4.062,4.062,0,0,0,1.225,2.121l2.323,2.18a4.182,4.182,0,0,1,.881,5l-1.437,2.843a4.061,4.061,0,0,0-.425,2.412l.378,3.163A4.182,4.182,0,0,1,67.437,35l-2.929,1.254a4.062,4.062,0,0,0-1.876,1.574l-1.744,2.666a4.182,4.182,0,0,1-4.768,1.735l-3.05-.922a4.061,4.061,0,0,0-2.449,0l-3.05.922A4.182,4.182,0,0,1,42.8,40.492L41.06,37.825a4.061,4.061,0,0,0-1.876-1.574L36.255,35A4.182,4.182,0,0,1,33.718,30.6l.378-3.163a4.061,4.061,0,0,0-.425-2.412l-1.437-2.843a4.182,4.182,0,0,1,.881-5l2.323-2.18a4.062,4.062,0,0,0,1.225-2.121l.727-3.1a4.182,4.182,0,0,1,3.887-3.261l3.181-.177a4.062,4.062,0,0,0,2.3-.838L49.309,3.6a4.183,4.183,0,0,1,5.074,0Z" fill="#ffe177" fill-rule="evenodd"/>
          <path id="Trazado_775466" data-name="Trazado 775466" d="M54.383,3.6l2.551,1.909a4.06,4.06,0,0,0,2.3.838l3.181.177A4.182,4.182,0,0,1,66.3,9.784l.727,3.1a4.063,4.063,0,0,0,1.225,2.121l2.323,2.18a4.182,4.182,0,0,1,.881,5l-1.437,2.843A4.062,4.062,0,0,0,69.6,27.44l.378,3.163A4.182,4.182,0,0,1,67.437,35l-2.929,1.254a4.062,4.062,0,0,0-1.876,1.574l-1.744,2.666a4.18,4.18,0,0,1-4.678,1.761,4.208,4.208,0,0,0,2.362-1.761l1.744-2.666a4.061,4.061,0,0,1,1.876-1.574L65.122,35A4.182,4.182,0,0,0,67.659,30.6l-.378-3.163a4.062,4.062,0,0,1,.425-2.412l1.437-2.843a4.182,4.182,0,0,0-.881-5l-2.323-2.18a4.06,4.06,0,0,1-1.225-2.121l-.727-3.1A4.182,4.182,0,0,0,60.1,6.523L56.92,6.346a4.06,4.06,0,0,1-2.3-.838L52.068,3.6a4.309,4.309,0,0,0-1.379-.692,4.181,4.181,0,0,1,3.694.692ZM50.689,41.286a4.054,4.054,0,0,0-2.382.02l-3.05.922-.09.026a4.239,4.239,0,0,0,2.405-.026l3.05-.922Z" fill="#ffd064" fill-rule="evenodd"/>
          <circle id="Elipse_8762" data-name="Elipse 8762" cx="12.199" cy="12.199" r="12.199" transform="translate(34.586 22.582) rotate(-45)" fill="#eceff1"/>
          <path id="Trazado_775467" data-name="Trazado 775467" d="M51.846,10.377q.341,0,.678.019a12.2,12.2,0,0,0,0,24.364q-.337.019-.678.019a12.2,12.2,0,1,1,0-24.4Z" fill="#d1d1d6" fill-rule="evenodd"/>
          <path id="Trazado_775468" data-name="Trazado 775468" d="M50.244,23.655l5.933-5.992a1.806,1.806,0,1,1,2.563,2.545c-2.406,2.428-4.8,4.872-7.212,7.289a1.81,1.81,0,0,1-2.559,0l-4.01-4.01a1.81,1.81,0,0,1,2.559-2.559Z" fill="#8ac9fe" fill-rule="evenodd"/>
        </g>
        <g id="Grupo_1029346" data-name="Grupo 1029346">
          <path id="Trazado_775469" data-name="Trazado 775469" d="M13.212,63.774l14.373-8.327c2.7-1.563,5.44-2.671,8.405-1.709C39.3,54.81,44.693,57.112,50.2,58.1a3.993,3.993,0,0,1,2.761,4.783c-.556,2.075-2.309,3.145-4.783,2.762l1.924.308a8.96,8.96,0,0,0,6.16-1.073L70.08,56.836C80.822,50.58,82.4,60.2,78.828,62.4L53.75,77.845A9.2,9.2,0,0,1,46.3,78.9l-18.19-4.874-6.736,3.889a2.721,2.721,0,0,1-3.709-.994l-5.447-9.435a2.721,2.721,0,0,1,.991-3.707Z" fill="#f6dccd" fill-rule="evenodd"/>
          <path id="Trazado_775470" data-name="Trazado 775470" d="M52.632,63.748c-.768,1.5-2.351,2.227-4.455,1.9-2.98-.788-5.956-1.6-8.933-2.393a1.495,1.495,0,0,1,.774-2.888Z" fill="#f1cbbc" fill-rule="evenodd"/>
          <path id="Trazado_775471" data-name="Trazado 775471" d="M13.212,63.774l14.373-8.327c2.7-1.563,5.44-2.671,8.405-1.709,1.768.573,4.136,1.5,6.8,2.388L14.946,72.2l-2.725-4.719a2.721,2.721,0,0,1,.991-3.707Z" fill="#f1cbbc" fill-rule="evenodd"/>
          <path id="Trazado_775472" data-name="Trazado 775472" d="M14.88,59.632l11.4,20.141a2.04,2.04,0,0,1-.769,2.773L21.634,84.74a2.041,2.041,0,0,1-2.773-.768L7.462,63.831a2.041,2.041,0,0,1,.769-2.773l3.877-2.194a2.04,2.04,0,0,1,2.773.769Z" fill="#d1d1d6" fill-rule="evenodd"/>
          <path id="Trazado_775473" data-name="Trazado 775473" d="M20.876,73.47l2.018,3.565,2,3.525a2.04,2.04,0,0,1-.763,2.769l1.385-.784a2.04,2.04,0,0,0,.769-2.773l-2-3.537-4.02-7.1-4.024-7.11-1.353-2.391a2.042,2.042,0,0,0-2.37-.942l2.343,4.14,4.02,7.1,2,3.537Z" fill="#b1b1b5" fill-rule="evenodd"/>
        </g>
      </g>
      <path id="Trazado_775474" data-name="Trazado 775474" d="M13.611,63.417a1.384,1.384,0,1,1-1.57-1.169,1.383,1.383,0,0,1,1.57,1.169Zm64.5-2.182L53.033,76.676a7.847,7.847,0,0,1-6.373.893L28.471,72.695a1.368,1.368,0,0,0-1.04.137l-2.639,1.523L18.1,62.527l10.177-5.9c2.274-1.318,4.732-2.423,7.3-1.59.836.271,1.8.62,2.923,1.025a71.6,71.6,0,0,0,11.364,3.367,2.6,2.6,0,0,1,1.78,3.1c-.451,1.681-1.889,1.889-3.039,1.759-2.142-.432-4.092-.984-6.13-1.563-.918-.26-1.867-.529-2.867-.8a1.371,1.371,0,1,0-.71,2.648c.981.264,1.92.53,2.828.787,2.108.6,4.124,1.171,6.375,1.621l.027,0c.571.115,1.157.221,1.766.319a10.278,10.278,0,0,0,7.065-1.242L70.771,58.02c3.9-2.272,6.89-2.526,7.993-.682A3.075,3.075,0,0,1,78.11,61.235ZM25.148,80.95a.662.662,0,0,0-.06-.5l-11.4-20.14a.663.663,0,0,0-.4-.31.7.7,0,0,0-.184-.026.65.65,0,0,0-.32.086L8.909,62.249a.673.673,0,0,0-.252.905l11.4,20.14a.668.668,0,0,0,.9.25l3.878-2.194A.661.661,0,0,0,25.148,80.95ZM81.118,55.929c-.74-1.236-3.774-4.91-11.725-.28L55.573,63.7a7.622,7.622,0,0,1-1.763.759,5.691,5.691,0,0,0,.476-1.215A5.381,5.381,0,0,0,50.623,56.8a1.765,1.765,0,0,0-.18-.046,69.068,69.068,0,0,1-11.018-3.265c-1.095-.4-2.13-.771-3.011-1.056-3.594-1.167-6.826.269-9.514,1.827L16.747,60.141l-.672-1.186a3.409,3.409,0,0,0-4.641-1.287l-3.877,2.2A3.407,3.407,0,0,0,6.271,64.5l11.4,20.14a3.384,3.384,0,0,0,2.054,1.6,3.457,3.457,0,0,0,.919.125,3.38,3.38,0,0,0,1.67-.44l3.876-2.2A3.41,3.41,0,0,0,27.475,79.1l-1.333-2.355L28.31,75.49l17.64,4.728a11.394,11.394,0,0,0,2.942.4,10.545,10.545,0,0,0,5.579-1.6L79.548,63.569c2.35-1.446,3.1-5.088,1.57-7.64ZM45.8,22.206a.432.432,0,0,1,.127-.308.44.44,0,0,1,.62,0l2.726,2.726a1.374,1.374,0,0,0,.97.4h0a1.366,1.366,0,0,0,.97-.408l5.933-5.991a.435.435,0,0,1,.614,0,.435.435,0,0,1,0,.617q-1.342,1.355-2.682,2.714c-1.479,1.5-3.01,3.054-4.526,4.569a.439.439,0,0,1-.62,0l-4.01-4.01a.434.434,0,0,1-.127-.31Zm4.447,7.189a3.177,3.177,0,0,0,2.25-.929c1.522-1.522,3.056-3.08,4.54-4.584q1.337-1.355,2.676-2.709a3.176,3.176,0,0,0-2.255-5.415h-.012A3.16,3.16,0,0,0,55.2,16.7l-4.963,5.013-1.751-1.752a3.181,3.181,0,0,0-4.5,4.5L48,28.466a3.176,3.176,0,0,0,2.248.929Zm1.6-17.648A10.83,10.83,0,1,0,62.678,22.577,10.843,10.843,0,0,0,51.848,11.747Zm0,24.4A13.572,13.572,0,1,0,38.277,22.578,13.586,13.586,0,0,0,51.848,36.149ZM34.056,18.185a2.807,2.807,0,0,0-.6,3.379L34.9,24.408A5.431,5.431,0,0,1,35.46,27.6l-.377,3.164A2.806,2.806,0,0,0,36.8,33.736l2.927,1.252a5.441,5.441,0,0,1,2.485,2.086l1.742,2.665a2.806,2.806,0,0,0,3.224,1.174l3.05-.922a5.45,5.45,0,0,1,3.243,0l3.05.922a2.808,2.808,0,0,0,3.224-1.174l1.743-2.665a5.438,5.438,0,0,1,2.483-2.086L66.9,33.736a2.806,2.806,0,0,0,1.715-2.972L68.238,27.6a5.435,5.435,0,0,1,.562-3.193l1.438-2.843a2.811,2.811,0,0,0-.6-3.379l-2.321-2.18A5.434,5.434,0,0,1,65.7,13.2l-.726-3.1a2.809,2.809,0,0,0-2.629-2.2l-3.181-.177a5.448,5.448,0,0,1-3.048-1.109l-2.55-1.911a2.807,2.807,0,0,0-3.431,0L47.583,6.605a5.447,5.447,0,0,1-3.047,1.109l-3.181.177A2.807,2.807,0,0,0,38.726,10.1L38,13.2a5.433,5.433,0,0,1-1.621,2.807ZM63.633,45.833a1.369,1.369,0,0,0-1.421.662l-1.957,3.369L57.421,43.78a5.564,5.564,0,0,0,4.617-2.54l1.741-2.663L67.471,46.5Zm-20.19,4.031L41.485,46.5a1.37,1.37,0,0,0-1.421-.662l-3.839.67,3.691-7.926,1.742,2.663a5.56,5.56,0,0,0,4.615,2.542ZM32.45,25.645,31.013,22.8a5.563,5.563,0,0,1,1.167-6.613L34.5,14.005a2.684,2.684,0,0,0,.828-1.433l.726-3.1A5.568,5.568,0,0,1,41.2,5.152l3.181-.177a2.692,2.692,0,0,0,1.556-.567L48.489,2.5a5.564,5.564,0,0,1,6.718,0l2.55,1.909a2.7,2.7,0,0,0,1.557.565l3.181.177a5.564,5.564,0,0,1,5.145,4.319l.728,3.1a2.682,2.682,0,0,0,.828,1.433l2.322,2.182A5.566,5.566,0,0,1,72.685,22.8l-1.438,2.843a2.724,2.724,0,0,0-.288,1.632l.379,3.164a5.564,5.564,0,0,1-3.359,5.817l-1.88.805L70.76,47.072a1.749,1.749,0,0,1-1.886,2.461L64.1,48.7l-2.434,4.189a1.74,1.74,0,0,1-1.51.87c-.027,0-.055,0-.081,0a1.742,1.742,0,0,1-1.5-1.009l-4.525-9.715-1.373-.415a2.7,2.7,0,0,0-1.655,0l-1.373.415-4.524,9.716a1.741,1.741,0,0,1-1.5,1.009c-.027,0-.053,0-.081,0a1.739,1.739,0,0,1-1.509-.87L39.595,48.7l-4.772.835a1.748,1.748,0,0,1-1.885-2.459L37.6,37.061l-1.879-.805a5.563,5.563,0,0,1-3.359-5.817l.378-3.164a2.7,2.7,0,0,0-.288-1.63Z" fill-rule="evenodd"/>
    </g>
  </g>
</svg>
