<svg xmlns="http://www.w3.org/2000/svg" xmlns:xlink="http://www.w3.org/1999/xlink" width="85" height="85" viewBox="0 0 85 85">
  <defs>
    <clipPath id="clip-path">
      <rect id="Rectángulo_361666" data-name="Rectángulo 361666" width="56" height="56" transform="translate(194 2746)" fill="#ffca00"/>
    </clipPath>
  </defs>
  <g id="Grupo_1029816" data-name="Grupo 1029816" transform="translate(-180 -2731)">
    <circle id="Elipse_8768" data-name="Elipse 8768" cx="42.5" cy="42.5" r="42.5" transform="translate(180 2731)" fill="#fe502d"/>
    <g id="Enmascarar_grupo_998596" data-name="Enmascarar grupo 998596" clip-path="url(#clip-path)">
      <g id="equilibrar" transform="translate(193.097 2745.097)">
        <path id="Trazado_775485" data-name="Trazado 775485" d="M9.914,38.8h.049a3.619,3.619,0,0,0-.043-7.238H9.87A3.619,3.619,0,0,0,9.914,38.8Zm-1.3-4.885a1.8,1.8,0,0,1,1.275-.547h.024A1.813,1.813,0,0,1,9.938,37a1.968,1.968,0,0,1-1.288-.514,1.814,1.814,0,0,1-.033-2.565Z" fill="#ffca00"/>
        <path id="Trazado_775486" data-name="Trazado 775486" d="M1.848,37.854H1.86l1.17-.015q.115.3.255.593l-.816.837a.9.9,0,0,0,.016,1.277L4.807,42.81a.936.936,0,0,0,.642.257.9.9,0,0,0,.635-.273l.816-.837c.2.089.4.168.6.239l.014,1.17a.905.905,0,0,0,.9.892h.012l3.243-.042a.9.9,0,0,0,.891-.915l-.015-1.17c.2-.076.4-.161.593-.254l.837.816a.944.944,0,0,0,.642.257.9.9,0,0,0,.635-.273l2.264-2.323a.9.9,0,0,0-.016-1.278l-.838-.816c.089-.2.169-.4.239-.6l1.17-.015a.9.9,0,0,0,.891-.915l-.042-3.243a.892.892,0,0,0-.915-.891l-1.17.015q-.115-.3-.255-.593l.816-.837a.9.9,0,0,0-.016-1.277L15.063,27.64a.9.9,0,0,0-1.277.016l-.816.837c-.2-.089-.4-.168-.6-.239l-.014-1.17a.9.9,0,0,0-.915-.891L8.2,26.235a.9.9,0,0,0-.891.915l.015,1.17c-.2.076-.4.161-.593.254l-.837-.816a.91.91,0,0,0-.642-.257.9.9,0,0,0-.635.273L2.348,30.1a.9.9,0,0,0,.016,1.278l.838.816c-.089.2-.169.4-.239.6l-1.17.015a.9.9,0,0,0-.891.913l.042,3.243a.9.9,0,0,0,.9.891Zm1.8-3.267a.9.9,0,0,0,.866-.69,5.512,5.512,0,0,1,.575-1.442.9.9,0,0,0-.154-1.1l-.667-.649,1-1.03.667.65a.906.906,0,0,0,1.1.125,5.572,5.572,0,0,1,1.426-.612.9.9,0,0,0,.666-.883l-.012-.931,1.437-.019.012.931a.9.9,0,0,0,.689.866,5.537,5.537,0,0,1,1.442.575.9.9,0,0,0,1.1-.153l.65-.667,1.029,1-.649.667a.9.9,0,0,0-.126,1.1,5.565,5.565,0,0,1,.612,1.427.908.908,0,0,0,.883.667l.931-.012.019,1.437-.931.012a.9.9,0,0,0-.866.69,5.512,5.512,0,0,1-.575,1.442.9.9,0,0,0,.154,1.1l.667.649-1,1.03-.667-.65a.9.9,0,0,0-1.1-.125,5.572,5.572,0,0,1-1.426.612.9.9,0,0,0-.666.883l.012.931-1.437.019L9.3,41.509a.9.9,0,0,0-.689-.866,5.537,5.537,0,0,1-1.442-.575.9.9,0,0,0-1.1.153l-.65.667-1.029-1,.649-.667a.9.9,0,0,0,.126-1.1,5.565,5.565,0,0,1-.612-1.427.912.912,0,0,0-.883-.667l-.931.012L2.721,34.6Z" fill="#ffca00"/>
        <path id="Trazado_775487" data-name="Trazado 775487" d="M7.078,14.439l1.955.326V25.29h1.806V15.066l11.742,1.957V45.161H18.968a.9.9,0,0,0-.885.726L16.276,54.92A.9.9,0,0,0,17.161,56H40.645a.9.9,0,0,0,.885-1.08l-1.806-9.032a.9.9,0,0,0-.885-.726H35.226V17.023l11.742-1.957V26.194h1.806V14.765l1.955-.326a.9.9,0,0,0,.755-.891V9.935a.9.9,0,0,0-.978-.9l-17.275,1.44a5.419,5.419,0,1,0-8.655,0L7.3,9.035a.9.9,0,0,0-.978.9v3.613A.9.9,0,0,0,7.078,14.439ZM39.543,54.193H18.263l1.445-7.226H38.1ZM25.29,7.226a3.613,3.613,0,1,1,3.786,3.6l-.173.014-.173-.014A3.609,3.609,0,0,1,25.29,7.226ZM8.129,10.917l20.006,1.667a5.482,5.482,0,0,0,.671.056l.022,0h.014l.061,0,.061,0h.014l.022,0a5.482,5.482,0,0,0,.671-.056l20.006-1.667v1.866l-15.5,2.584a.9.9,0,0,0-.755.891v28.9H29.806V28.9H28V45.161H24.387v-28.9a.9.9,0,0,0-.755-.891l-15.5-2.584Z" fill="#ffca00"/>
        <path id="Trazado_775488" data-name="Trazado 775488" d="M53.216,26.322a5.6,5.6,0,0,0-5.345,1.749,5.6,5.6,0,0,0-5.345-1.749,4.643,4.643,0,0,0-3.687,4.793c0,5.062,6.529,9.84,8.528,11.183a.9.9,0,0,0,1.008,0c2-1.344,8.528-6.122,8.528-11.183a4.643,4.643,0,0,0-3.687-4.793ZM47.871,40.451c-1.964-1.389-7.226-5.471-7.226-9.336a2.841,2.841,0,0,1,2.275-3.03A3.556,3.556,0,0,1,43.693,28a3.679,3.679,0,0,1,3.362,2.1.9.9,0,0,0,1.633,0,3.713,3.713,0,0,1,4.134-2.013,2.841,2.841,0,0,1,2.275,3.03c0,3.865-5.262,7.947-7.226,9.336Z" fill="#ffca00"/>
      </g>
    </g>
  </g>
</svg>
