<svg xmlns="http://www.w3.org/2000/svg" xmlns:xlink="http://www.w3.org/1999/xlink" width="85" height="85" viewBox="0 0 85 85">
  <defs>
    <clipPath id="clip-path">
      <rect id="Rectángulo_361664" data-name="Rectángulo 361664" width="56" height="56" transform="translate(1034 2746)" fill="#2d54fe"/>
    </clipPath>
  </defs>
  <g id="Grupo_1029818" data-name="Grupo 1029818" transform="translate(-1020 -2731)">
    <circle id="Elipse_8767" data-name="Elipse 8767" cx="42.5" cy="42.5" r="42.5" transform="translate(1020 2731)" fill="#ffca00"/>
    <g id="Enmascarar_grupo_998598" data-name="Enmascarar grupo 998598" clip-path="url(#clip-path)">
      <g id="colaboracion" transform="translate(1025.049 2737.049)">
        <path id="Trazado_775493" data-name="Trazado 775493" d="M27.066,30.388h2.017a12.314,12.314,0,0,0,.632,1.525l-1.374,1.374a1.927,1.927,0,0,0,0,2.726l2.868,2.867a1.93,1.93,0,0,0,2.7.025l.989-.855a.875.875,0,1,0-1.145-1.324l-1.01.873q-.024.021-.046.043a.178.178,0,0,1-.252,0l-2.868-2.867a.177.177,0,0,1,0-.251l1.537-1.537a1.435,1.435,0,0,0,.254-1.682,10.559,10.559,0,0,1-.688-1.658,1.435,1.435,0,0,0-1.369-1.009H27.066a.178.178,0,0,1-.178-.178v-4.02a.178.178,0,0,1,.177-.177H29.3a1.437,1.437,0,0,0,1.366-1,10.358,10.358,0,0,1,.694-1.64,1.43,1.43,0,0,0-.26-1.7l-1.545-1.511a.177.177,0,0,1,0-.253L32.48,15.3a.179.179,0,0,1,.249,0l1.59,1.555a1.439,1.439,0,0,0,1.66.249,10.892,10.892,0,0,1,1.7-.692A1.433,1.433,0,0,0,38.7,15.036V12.629a.178.178,0,0,1,.178-.178H42.9a.178.178,0,0,1,.178.178v2.277a1.435,1.435,0,0,0,1.009,1.369,10.556,10.556,0,0,1,1.659.688,1.435,1.435,0,0,0,1.682-.255l1.537-1.537a.178.178,0,0,1,.251,0l2.868,2.867a.177.177,0,0,1,0,.251l-1.537,1.536a1.678,1.678,0,0,0-.341,1.42.876.876,0,0,0,.054.192s.185.451.371.9l.257.62.087.208a.891.891,0,0,0,1.12.564.876.876,0,0,0,.564-1.058.891.891,0,0,0-.06-.16c-.071-.166-.418-1.005-.662-1.6l1.385-1.385a1.927,1.927,0,0,0,0-2.726l-2.868-2.867a1.93,1.93,0,0,0-2.726,0l-1.375,1.374a12.34,12.34,0,0,0-1.525-.632V12.629A1.93,1.93,0,0,0,42.9,10.7h-4.02a1.93,1.93,0,0,0-1.928,1.928V14.8a12.651,12.651,0,0,0-1.57.637l-1.429-1.4a1.939,1.939,0,0,0-2.7,0L28.334,16.9a1.927,1.927,0,0,0,0,2.756l1.377,1.347a12.132,12.132,0,0,0-.637,1.507H27.066a1.93,1.93,0,0,0-1.927,1.927v4.02a1.93,1.93,0,0,0,1.928,1.928Z" fill="#2d54fe"/>
        <path id="Trazado_775494" data-name="Trazado 775494" d="M45.364,29.449a.875.875,0,0,0,1.145-.47,6.563,6.563,0,1,0-10.6,2.207.875.875,0,1,0,1.212-1.263A4.811,4.811,0,1,1,44.894,28.3a.875.875,0,0,0,.47,1.145Z" fill="#2d54fe"/>
        <path id="Trazado_775495" data-name="Trazado 775495" d="M49.2,32.138a6.562,6.562,0,1,0,6.562-6.562A6.57,6.57,0,0,0,49.2,32.138Zm6.562-4.812a4.812,4.812,0,1,1-4.812,4.812,4.818,4.818,0,0,1,4.813-4.812Z" fill="#2d54fe"/>
        <path id="Trazado_775496" data-name="Trazado 775496" d="M61.013,40.013H50l-7.18-7.175a3.326,3.326,0,0,0-2.369-.987h0a3.352,3.352,0,0,0-2.371,5.718l9.373,9.369V62.326a.875.875,0,1,0,1.75,0V46.576a.875.875,0,0,0-.256-.619l-9.629-9.625A1.6,1.6,0,0,1,40.449,33.6h0a1.589,1.589,0,0,1,1.132.473l7.437,7.433a.875.875,0,0,0,.619.256H61.013A2.19,2.19,0,0,1,63.2,43.951V59.263a1.75,1.75,0,1,1-3.5,0V49.638a.875.875,0,1,0-1.75,0v9.625a3.5,3.5,0,1,0,7,0V43.951a3.942,3.942,0,0,0-3.937-3.937Z" fill="#2d54fe"/>
        <path id="Trazado_775497" data-name="Trazado 775497" d="M19.013,42.2a6.562,6.562,0,1,0-6.562-6.562A6.57,6.57,0,0,0,19.013,42.2Zm0-11.375A4.812,4.812,0,1,1,14.2,35.638,4.818,4.818,0,0,1,19.013,30.826Z" fill="#2d54fe"/>
        <path id="Trazado_775498" data-name="Trazado 775498" d="M43.494,46.32c0-.016.005-.032.008-.048s0-.027.006-.041,0-.016,0-.025,0-.043,0-.065v0c0-.006,0-.012,0-.018,0-.022,0-.044,0-.066s0-.022,0-.033,0-.034-.008-.051-.007-.029-.01-.044-.006-.025-.01-.037-.011-.033-.017-.049-.007-.021-.011-.031-.014-.032-.021-.047l-.014-.03c-.008-.014-.016-.028-.024-.042l-.019-.032-.025-.035-.026-.035-.024-.028-.033-.036-.023-.022-.039-.035-.026-.02-.041-.03L43.1,45.4l-.037-.022-.049-.024-.027-.013c-.022-.01-.045-.018-.067-.026l-.012,0h0c-.022-.007-.044-.013-.066-.018l-.021-.005-.041-.007-.048-.007h-.017c-.024,0-.049,0-.073,0H24.251c-.024,0-.049,0-.073,0l-.027,0-.056.009-.04.009-.041.011-.046.016-.033.012-.046.021-.031.015-.042.024-.032.019-.035.025-.034.025-.029.025-.035.032-.024.025-.034.037-.022.028c-.01.013-.02.025-.029.039s-.015.024-.023.036-.015.023-.021.035-.017.033-.025.05l-.012.026c-.01.022-.018.045-.026.068l0,.012v0l0,.009-2.621,8.081a.875.875,0,1,0,1.665.54L24.9,47.013H41.435L36.752,61.451h-7.8a3.716,3.716,0,0,0-3.153-5.687H15.513a.875.875,0,0,0,0,1.75H25.795a1.969,1.969,0,1,1,0,3.937H12.888A2.19,2.19,0,0,1,10.7,59.263V49.037a3.778,3.778,0,0,1,3.774-3.774h5.851a.875.875,0,1,0,0-1.75H14.475a5.53,5.53,0,0,0-5.524,5.524V59.263A3.942,3.942,0,0,0,12.888,63.2H25.795c.049,0,.1,0,.145,0,.024,0,.049,0,.073,0H37.4a.885.885,0,0,0,.114-.009l.029,0a.874.874,0,0,0,.117-.028l.007,0a.866.866,0,0,0,.109-.045l.017-.008a.875.875,0,0,0,.1-.062l.018-.014a.873.873,0,0,0,.083-.07L38,62.947a.875.875,0,0,0,.077-.088l.018-.024a.869.869,0,0,0,.064-.1l.007-.015a.872.872,0,0,0,.05-.119v-.007l0-.009,5.246-16.174v0c.007-.023.013-.046.019-.07l0-.017Z" fill="#2d54fe"/>
      </g>
    </g>
  </g>
</svg>
