<svg xmlns="http://www.w3.org/2000/svg" xmlns:xlink="http://www.w3.org/1999/xlink" width="70" height="70" viewBox="0 0 70 70">
  <defs>
    <clipPath id="clip-path">
      <rect id="Rectángulo_361779" data-name="Rectángulo 361779" width="70" height="70" transform="translate(766 3808)" fill="#fff" stroke="#707070" stroke-width="1"/>
    </clipPath>
    <clipPath id="clip-path-2">
      <path id="path868" d="M0-70H70V0H0Z"/>
    </clipPath>
  </defs>
  <g id="Enmascarar_grupo_998612" data-name="Enmascarar grupo 998612" transform="translate(-766 -3808)" clip-path="url(#clip-path)">
    <g id="g858" transform="translate(766 3878)">
      <g id="g860" transform="translate(20.939 -19.863)">
        <path id="path862" d="M0,0V16.447H-19.913V0l7.09-2.951H-7.09Z" fill="#fea713"/>
      </g>
      <g id="g864">
        <g id="g866" clip-path="url(#clip-path-2)">
          <g id="g872" transform="translate(14.336 -26.223)">
            <path id="path874" d="M0,0H-6.708a3.613,3.613,0,0,1-3.613-3.613V-9.972H3.613v6.359A3.613,3.613,0,0,1,0,0" fill="#ffdfcf"/>
          </g>
          <g id="g876" transform="translate(17.949 -36.195)">
            <path id="path878" d="M0,0V6.359A3.613,3.613,0,0,1-3.613,9.972H-5.577A3.613,3.613,0,0,0-1.963,6.359V0Z" fill="#ffcebf"/>
          </g>
          <g id="g880" transform="translate(19.338 -36.195)">
            <path id="path882" d="M0,0H-16.711a.783.783,0,0,1-.783-.783V-2.9a.783.783,0,0,1,.783-.783H0A.783.783,0,0,1,.783-2.9V-.783A.783.783,0,0,1,0,0" fill="#fea713"/>
          </g>
          <g id="g884" transform="translate(20.12 -39.095)">
            <path id="path886" d="M0,0V2.116A.783.783,0,0,1-.782,2.9H-2.756a.783.783,0,0,0,.783-.783V0a.782.782,0,0,0-.783-.783H-.782A.782.782,0,0,1,0,0" fill="#fd9a01"/>
          </g>
          <g id="g888" transform="translate(18.726 -39.879)">
            <path id="path890" d="M0,0H-15.488A6.007,6.007,0,0,1-9.481-6.007h3.474A6.007,6.007,0,0,1,0,0" fill="#ffd15c"/>
          </g>
          <g id="g892" transform="translate(18.727 -39.878)">
            <path id="path894" d="M0,0H-1.729A6.007,6.007,0,0,0-7.737-6.007h1.729A6.008,6.008,0,0,1,0,0" fill="#ffc344"/>
          </g>
          <g id="g896" transform="translate(12.027 -47.605)">
            <path id="path898" d="M0,0H-2.089a.684.684,0,0,0-.684.684V7.726H.684V.684A.684.684,0,0,0,0,0" fill="#fea713"/>
          </g>
          <g id="g900" transform="translate(12.711 -46.92)">
            <path id="path902" d="M0,0V7.042H-1.729V0a.684.684,0,0,0-.684-.684H-.685A.684.684,0,0,1,0,0" fill="#fd9a01"/>
          </g>
          <path id="path904" d="M13.848-26.223H8.116v3.408h5.732Z" fill="#ffdfcf"/>
          <path id="path906" d="M13.849-22.814H11.808v-3.408h2.041Z" fill="#ffcebf"/>
          <g id="g908" transform="translate(8.116 -22.814)">
            <path id="path910" d="M0,0,2.866,5.7,5.732,0Z" fill="#0593fc"/>
          </g>
          <g id="g912" transform="translate(13.849 -22.814)">
            <path id="path914" d="M0,0-2.867,5.7l-1.02-2.029L-2.041,0Z" fill="#0181fa"/>
          </g>
          <path id="path916" d="M20.939-8.574H1.025v-4.541H20.939Z" fill="#eaf6ff"/>
          <g id="g918" transform="translate(20.939 -19.863)">
            <path id="path920" d="M0,0V16.447H-7.872L-3.4-1.415Z" fill="#fd9a01"/>
          </g>
          <g id="g922" transform="translate(20.939 -13.115)">
            <path id="path924" d="M0,0V4.542H-6.58L-5.443,0Z" fill="#c8effe"/>
          </g>
          <g id="g926" transform="translate(68.975 -19.863)">
            <path id="path928" d="M0,0V16.447H-19.913V0l7.09-2.951H-7.09Z" fill="#fea713"/>
          </g>
          <g id="g930" transform="translate(68.975 -19.863)">
            <path id="path932" d="M0,0V16.447H-2.041V-.85Z" fill="#fd9a01"/>
          </g>
          <g id="g934" transform="translate(62.372 -26.223)">
            <path id="path936" d="M0,0H-6.708a3.613,3.613,0,0,1-3.613-3.613V-9.972H3.613v6.359A3.613,3.613,0,0,1,0,0" fill="#ffdfcf"/>
          </g>
          <g id="g938" transform="translate(65.985 -36.195)">
            <path id="path940" d="M0,0V6.359A3.613,3.613,0,0,1-3.613,9.972H-5.577A3.613,3.613,0,0,0-1.963,6.359V0Z" fill="#ffcebf"/>
          </g>
          <g id="g942" transform="translate(67.373 -36.195)">
            <path id="path944" d="M0,0H-16.711a.783.783,0,0,1-.783-.783V-2.9a.783.783,0,0,1,.783-.783H0A.783.783,0,0,1,.783-2.9V-.783A.783.783,0,0,1,0,0" fill="#fea713"/>
          </g>
          <g id="g946" transform="translate(68.156 -39.095)">
            <path id="path948" d="M0,0V2.116A.783.783,0,0,1-.782,2.9H-2.756a.783.783,0,0,0,.783-.783V0a.782.782,0,0,0-.783-.783H-.782A.782.782,0,0,1,0,0" fill="#fd9a01"/>
          </g>
          <g id="g950" transform="translate(66.762 -39.879)">
            <path id="path952" d="M0,0H-15.488A6.007,6.007,0,0,1-9.481-6.007h3.474A6.007,6.007,0,0,1,0,0" fill="#ffd15c"/>
          </g>
          <g id="g954" transform="translate(66.763 -39.878)">
            <path id="path956" d="M0,0H-1.729A6.007,6.007,0,0,0-7.737-6.007h1.729A6.008,6.008,0,0,1,0,0" fill="#ffc344"/>
          </g>
          <g id="g958" transform="translate(60.063 -47.605)">
            <path id="path960" d="M0,0H-2.089a.684.684,0,0,0-.684.684V7.726H.684V.684A.684.684,0,0,0,0,0" fill="#fea713"/>
          </g>
          <g id="g962" transform="translate(60.747 -46.92)">
            <path id="path964" d="M0,0V7.042H-1.729V0a.684.684,0,0,0-.684-.684H-.685A.684.684,0,0,1,0,0" fill="#fd9a01"/>
          </g>
          <path id="path966" d="M61.884-26.223H56.152v3.408h5.732Z" fill="#ffdfcf"/>
          <path id="path968" d="M61.885-22.814H59.843v-3.408h2.041Z" fill="#ffcebf"/>
          <g id="g970" transform="translate(56.152 -22.814)">
            <path id="path972" d="M0,0,2.866,5.7,5.732,0Z" fill="#0593fc"/>
          </g>
          <g id="g974" transform="translate(61.884 -22.814)">
            <path id="path976" d="M0,0-2.867,5.7l-1.02-2.029L-2.041,0Z" fill="#0181fa"/>
          </g>
          <path id="path978" d="M68.975-8.574H49.061v-4.541H68.975Z" fill="#eaf6ff"/>
          <path id="path980" d="M68.975-8.574H66.933v-4.542h2.041Z" fill="#c8effe"/>
          <g id="g982" transform="translate(44.84 -42.733)">
            <path id="path984" d="M0,0A4.221,4.221,0,0,0,4.221-4.221,4.221,4.221,0,0,0,0-8.442L-.812-4.221Z" fill="#ffcebf"/>
          </g>
          <g id="g986" transform="translate(25.16 -42.733)">
            <path id="path988" d="M0,0A4.221,4.221,0,0,1-4.221-4.221,4.221,4.221,0,0,1,0-8.442L.737-4.221Z" fill="#ffdfcf"/>
          </g>
          <g id="g990" transform="translate(25.897 -46.955)">
            <path id="path992" d="M0,0-.737,4.222a4.21,4.21,0,0,1-2.111-.565V-3.656A4.2,4.2,0,0,1-.737-4.221Z" fill="#ffcebf"/>
          </g>
          <g id="g994" transform="translate(39.737 -35.625)">
            <path id="path996" d="M0,0H-9.473a5.1,5.1,0,0,1-5.1-5.1V-15.55H5.1V-5.1A5.1,5.1,0,0,1,0,0" fill="#ffdfcf"/>
          </g>
          <g id="g998" transform="translate(44.84 -51.175)">
            <path id="path1000" d="M0,0V10.447a5.1,5.1,0,0,1-5.1,5.1H-7.567a5.1,5.1,0,0,0,5.1-5.1V0Z" fill="#ffcebf"/>
          </g>
          <g id="g1002" transform="translate(46.8 -51.175)">
            <path id="path1004" d="M0,0H-23.6a1.106,1.106,0,0,1-1.106-1.106V-3.392A1.106,1.106,0,0,1-23.6-4.5H0A1.106,1.106,0,0,1,1.106-3.392v2.286A1.106,1.106,0,0,1,0,0" fill="#fea713"/>
          </g>
          <g id="g1006" transform="translate(47.906 -54.567)">
            <path id="path1008" d="M0,0V2.286A1.106,1.106,0,0,1-1.106,3.392H-3.4A1.106,1.106,0,0,0-2.291,2.286V0A1.106,1.106,0,0,0-3.4-1.106h2.292A1.106,1.106,0,0,1,0,0" fill="#fd9a01"/>
          </g>
          <g id="g1010" transform="translate(45.937 -55.673)">
            <path id="path1012" d="M0,0H-21.874A8.484,8.484,0,0,1-13.39-8.484h4.906A8.484,8.484,0,0,1,0,0" fill="#ffd15c"/>
          </g>
          <g id="g1014" transform="translate(45.937 -55.673)">
            <path id="path1016" d="M0,0H-2.306A8.483,8.483,0,0,0-10.79-8.483h2.3A8.484,8.484,0,0,1,0,0" fill="#ffc344"/>
          </g>
          <g id="g1018" transform="translate(36.475 -66.584)">
            <path id="path1020" d="M0,0H-2.951a.967.967,0,0,0-.966.967v9.945H.966V.967A.967.967,0,0,0,0,0" fill="#fea713"/>
          </g>
          <g id="g1022" transform="translate(37.442 -65.618)">
            <path id="path1024" d="M0,0V9.945H-2.294V0a.967.967,0,0,0-.967-.967H-.967A.967.967,0,0,1,0,0" fill="#fd9a01"/>
          </g>
          <path id="path1026" d="M39.048-35.625h-8.1v4.813h8.1Z" fill="#ffdfcf"/>
          <path id="path1028" d="M39.048-30.812h-2.5v-4.813h2.5Z" fill="#ffcebf"/>
          <g id="g1030" transform="translate(54.881 -3.416)">
            <path id="path1032" d="M0,0H-39.761l5.14-20.512a5.542,5.542,0,0,1,1.136-2.225A5.553,5.553,0,0,1-31.358-24.3l7.429-3.093h8.1L-8.4-24.3a5.554,5.554,0,0,1,2.129,1.566A5.545,5.545,0,0,1-5.14-20.512Z" fill="#0593fc"/>
          </g>
          <g id="g1034" transform="translate(54.88 -3.415)">
            <path id="path1036" d="M0,0H-2.5L-7.641-20.513a5.543,5.543,0,0,0-1.136-2.224A5.54,5.54,0,0,0-10.9-24.3L-18.335-27.4h2.5L-8.4-24.3a5.53,5.53,0,0,1,2.127,1.565,5.53,5.53,0,0,1,1.136,2.224Z" fill="#0181fa"/>
          </g>
          <g id="g1038" transform="translate(48.605 -26.153)">
            <path id="path1040" d="M0,0A9.7,9.7,0,0,0-2.387,6.375V22.738H-24.823V6.375A9.7,9.7,0,0,0-27.21,0a5.53,5.53,0,0,1,2.127-1.565l7.429-3.094L-13.6,1.515l4.048-6.174,7.429,3.094A5.529,5.529,0,0,1,0,0" fill="#fea713"/>
          </g>
          <g id="g1042" transform="translate(48.605 -26.153)">
            <path id="path1044" d="M0,0A9.7,9.7,0,0,0-2.387,6.375V22.738h-2.5V6.375A9.7,9.7,0,0,1-2.5,0,5.53,5.53,0,0,0-4.631-1.565L-10.094-3.84l.537-.819,7.429,3.094A5.529,5.529,0,0,1,0,0" fill="#fd9a01"/>
          </g>
          <path id="path1046" d="M46.217-10.7H23.783v-6.413H46.217Z" fill="#eaf6ff"/>
          <path id="path1048" d="M46.218-10.7h-2.5v-6.412h2.5Z" fill="#c8effe"/>
          <g id="g1050" transform="translate(50.599 -20.503)">
            <path id="path1052" d="M0,0,5.552-2.311h5.733L18.375.64V17.087" fill="none" stroke="#000" stroke-linecap="round" stroke-linejoin="round" stroke-miterlimit="10" stroke-width="2.051"/>
          </g>
          <g id="g1054" transform="translate(62.372 -26.223)">
            <path id="path1056" d="M0,0H-6.708a3.613,3.613,0,0,1-3.613-3.613V-9.972H3.613v6.359A3.613,3.613,0,0,1,0,0Z" fill="none" stroke="#000" stroke-linecap="round" stroke-linejoin="round" stroke-miterlimit="10" stroke-width="2.051"/>
          </g>
          <g id="g1058" transform="translate(67.373 -36.195)">
            <path id="path1060" d="M0,0H-16.711a.783.783,0,0,1-.783-.783V-2.9a.783.783,0,0,1,.783-.783H0A.783.783,0,0,1,.783-2.9V-.783A.783.783,0,0,1,0,0Z" fill="none" stroke="#000" stroke-linecap="round" stroke-linejoin="round" stroke-miterlimit="10" stroke-width="2.051"/>
          </g>
          <g id="g1062" transform="translate(60.747 -45.886)">
            <path id="path1064" d="M0,0H.008A6.007,6.007,0,0,1,6.015,6.007H-9.473A6.007,6.007,0,0,1-3.466,0h.008" fill="none" stroke="#000" stroke-linecap="round" stroke-linejoin="round" stroke-miterlimit="10" stroke-width="2.051"/>
          </g>
          <g id="g1066" transform="translate(60.063 -47.605)">
            <path id="path1068" d="M0,0H-2.089a.684.684,0,0,0-.684.684V7.726H.684V.684A.684.684,0,0,0,0,0Z" fill="none" stroke="#000" stroke-linecap="round" stroke-linejoin="round" stroke-miterlimit="10" stroke-width="2.051"/>
          </g>
          <g id="g1070" transform="translate(59.018 -36.195)">
            <path id="path1072" d="M0,0V2.429" fill="none" stroke="#000" stroke-linecap="round" stroke-linejoin="round" stroke-miterlimit="10" stroke-width="2.051"/>
          </g>
          <g id="g1074" transform="translate(57.395 -30.784)">
            <path id="path1076" d="M0,0A1.79,1.79,0,0,0,1.622,1.033,1.79,1.79,0,0,0,3.245,0" fill="none" stroke="#000" stroke-linecap="round" stroke-linejoin="round" stroke-miterlimit="10" stroke-width="2.051"/>
          </g>
          <path id="path1078" d="M61.884-26.223H56.152v3.408h5.732Z" fill="none" stroke="#000" stroke-linecap="round" stroke-linejoin="round" stroke-miterlimit="10" stroke-width="2.051"/>
          <g id="g1080" transform="translate(56.152 -22.814)">
            <path id="path1082" d="M0,0,2.866,5.7,5.732,0Z" fill="none" stroke="#000" stroke-linecap="round" stroke-linejoin="round" stroke-miterlimit="10" stroke-width="2.051"/>
          </g>
          <g id="g1084" transform="translate(59.018 -17.114)">
            <path id="path1086" d="M0,0V13.7" fill="none" stroke="#000" stroke-linecap="round" stroke-linejoin="round" stroke-miterlimit="10" stroke-width="2.051"/>
          </g>
          <g id="g1088" transform="translate(66.416 -13.115)">
            <path id="path1090" d="M0,0H2.558V4.541H-12.828" fill="none" stroke="#000" stroke-linecap="round" stroke-linejoin="round" stroke-miterlimit="10" stroke-width="2.051"/>
          </g>
          <g id="g1092" transform="translate(52.45 -13.115)">
            <path id="path1094" d="M0,0H9.187" fill="none" stroke="#000" stroke-linecap="round" stroke-linejoin="round" stroke-miterlimit="10" stroke-width="2.051"/>
          </g>
          <g id="g1096" transform="translate(39.737 -35.625)">
            <path id="path1098" d="M0,0H-9.473a5.1,5.1,0,0,1-5.1-5.1V-15.55H5.1V-5.1A5.1,5.1,0,0,1,0,0Z" fill="none" stroke="#000" stroke-linecap="round" stroke-linejoin="round" stroke-miterlimit="10" stroke-width="2.051"/>
          </g>
          <g id="g1100" transform="translate(46.8 -51.175)">
            <path id="path1102" d="M0,0H-23.6a1.106,1.106,0,0,1-1.106-1.106V-3.392A1.106,1.106,0,0,1-23.6-4.5H0A1.106,1.106,0,0,1,1.106-3.392v2.286A1.106,1.106,0,0,1,0,0Z" fill="none" stroke="#000" stroke-linecap="round" stroke-linejoin="round" stroke-miterlimit="10" stroke-width="2.051"/>
          </g>
          <g id="g1104" transform="translate(37.442 -64.157)">
            <path id="path1106" d="M0,0H.011A8.484,8.484,0,0,1,8.5,8.484H-13.379A8.484,8.484,0,0,1-4.9,0h.011" fill="none" stroke="#000" stroke-linecap="round" stroke-linejoin="round" stroke-miterlimit="10" stroke-width="2.051"/>
          </g>
          <g id="g1108" transform="translate(36.475 -66.584)">
            <path id="path1110" d="M0,0H-2.951a.967.967,0,0,0-.966.967v9.945H.966V.967A.967.967,0,0,0,0,0Z" fill="none" stroke="#000" stroke-linecap="round" stroke-linejoin="round" stroke-miterlimit="10" stroke-width="2.051"/>
          </g>
          <g id="g1112" transform="translate(26.369 -61.487)">
            <path id="path1114" d="M0,0,2.085,1.4" fill="none" stroke="#000" stroke-linecap="round" stroke-linejoin="round" stroke-miterlimit="10" stroke-width="2.051"/>
          </g>
          <g id="g1116" transform="translate(43.631 -61.487)">
            <path id="path1118" d="M0,0-2.085,1.4" fill="none" stroke="#000" stroke-linecap="round" stroke-linejoin="round" stroke-miterlimit="10" stroke-width="2.051"/>
          </g>
          <g id="g1120" transform="translate(35 -47.981)">
            <path id="path1122" d="M0,0V3.3" fill="none" stroke="#000" stroke-linecap="round" stroke-linejoin="round" stroke-miterlimit="10" stroke-width="2.051"/>
          </g>
          <g id="g1124" transform="translate(32.709 -41.488)">
            <path id="path1126" d="M0,0A2.528,2.528,0,0,0,2.291,1.459,2.528,2.528,0,0,0,4.583,0" fill="none" stroke="#000" stroke-linecap="round" stroke-linejoin="round" stroke-miterlimit="10" stroke-width="2.051"/>
          </g>
          <path id="path1128" d="M39.048-35.625h-8.1v4.813h8.1Z" fill="none" stroke="#000" stroke-linecap="round" stroke-linejoin="round" stroke-miterlimit="10" stroke-width="2.051"/>
          <g id="g1130" transform="translate(25.16 -42.733)">
            <path id="path1132" d="M0,0A4.221,4.221,0,0,1-4.221-4.221,4.221,4.221,0,0,1,0-8.442Z" fill="none" stroke="#000" stroke-linecap="round" stroke-linejoin="round" stroke-miterlimit="10" stroke-width="2.051"/>
          </g>
          <g id="g1134" transform="translate(44.84 -42.733)">
            <path id="path1136" d="M0,0A4.221,4.221,0,0,0,4.221-4.221,4.221,4.221,0,0,0,0-8.442Z" fill="none" stroke="#000" stroke-linecap="round" stroke-linejoin="round" stroke-miterlimit="10" stroke-width="2.051"/>
          </g>
          <g id="g1138" transform="translate(15.119 -3.416)">
            <path id="path1140" d="M0,0,5.14-20.512a5.545,5.545,0,0,1,1.136-2.225" fill="none" stroke="#000" stroke-linecap="round" stroke-linejoin="round" stroke-miterlimit="10" stroke-width="2.051"/>
          </g>
          <g id="g1142" transform="translate(48.606 -26.153)">
            <path id="path1144" d="M0,0A5.544,5.544,0,0,1,1.136,2.225L6.275,22.737" fill="none" stroke="#000" stroke-linecap="round" stroke-linejoin="round" stroke-miterlimit="10" stroke-width="2.051"/>
          </g>
          <g id="g1146" transform="translate(23.782 -3.416)">
            <path id="path1148" d="M0,0V-16.362a9.7,9.7,0,0,0-2.388-6.375A5.553,5.553,0,0,1-.259-24.3L7.17-27.4h8.1l2.578,1.074" fill="none" stroke="#000" stroke-linecap="round" stroke-linejoin="round" stroke-miterlimit="10" stroke-width="2.051"/>
          </g>
          <g id="g1150" transform="translate(45.713 -28.037)">
            <path id="path1152" d="M0,0,.764.318A5.551,5.551,0,0,1,2.893,1.884,9.7,9.7,0,0,0,.5,8.259V24.621" fill="none" stroke="#000" stroke-linecap="round" stroke-linejoin="round" stroke-miterlimit="10" stroke-width="2.051"/>
          </g>
          <g id="g1154" transform="translate(30.952 -30.812)">
            <path id="path1156" d="M0,0,4.048,6.173,8.1,0Z" fill="none" stroke="#000" stroke-linecap="round" stroke-linejoin="round" stroke-miterlimit="10" stroke-width="2.051"/>
          </g>
          <g id="g1158" transform="translate(35 -24.638)">
            <path id="path1160" d="M0,0V21.223" fill="none" stroke="#000" stroke-linecap="round" stroke-linejoin="round" stroke-miterlimit="10" stroke-width="2.051"/>
          </g>
          <path id="path1162" d="M46.217-10.7H23.783v-6.413H46.217Z" fill="none" stroke="#000" stroke-linecap="round" stroke-linejoin="round" stroke-miterlimit="10" stroke-width="2.051"/>
          <g id="g1164" transform="translate(19.401 -20.503)">
            <path id="path1166" d="M0,0-5.552-2.311h-5.733L-18.375.64V17.087" fill="none" stroke="#000" stroke-linecap="round" stroke-linejoin="round" stroke-miterlimit="10" stroke-width="2.051"/>
          </g>
          <g id="g1168" transform="translate(7.628 -26.223)">
            <path id="path1170" d="M0,0H6.708a3.613,3.613,0,0,0,3.613-3.613V-9.972H-3.613v6.359A3.613,3.613,0,0,0,0,0Z" fill="none" stroke="#000" stroke-linecap="round" stroke-linejoin="round" stroke-miterlimit="10" stroke-width="2.051"/>
          </g>
          <g id="g1172" transform="translate(2.627 -36.195)">
            <path id="path1174" d="M0,0H16.711a.783.783,0,0,0,.783-.783V-2.9a.783.783,0,0,0-.783-.783H0A.783.783,0,0,0-.783-2.9V-.783A.783.783,0,0,0,0,0Z" fill="none" stroke="#000" stroke-linecap="round" stroke-linejoin="round" stroke-miterlimit="10" stroke-width="2.051"/>
          </g>
          <g id="g1176" transform="translate(3.441 -41.434)">
            <path id="path1178" d="M0,0A6.012,6.012,0,0,0-.2,1.555H15.285A6.007,6.007,0,0,0,9.278-4.452H9.27" fill="none" stroke="#000" stroke-linecap="round" stroke-linejoin="round" stroke-miterlimit="10" stroke-width="2.051"/>
          </g>
          <g id="g1180" transform="translate(9.253 -45.886)">
            <path id="path1182" d="M0,0H-.008a5.98,5.98,0,0,0-2.92.756" fill="none" stroke="#000" stroke-linecap="round" stroke-linejoin="round" stroke-miterlimit="10" stroke-width="2.051"/>
          </g>
          <g id="g1184" transform="translate(9.937 -47.605)">
            <path id="path1186" d="M0,0H2.089a.684.684,0,0,1,.684.684V7.726H-.684V.684A.684.684,0,0,1,0,0Z" fill="none" stroke="#000" stroke-linecap="round" stroke-linejoin="round" stroke-miterlimit="10" stroke-width="2.051"/>
          </g>
          <g id="g1188" transform="translate(10.982 -36.195)">
            <path id="path1190" d="M0,0V2.429" fill="none" stroke="#000" stroke-linecap="round" stroke-linejoin="round" stroke-miterlimit="10" stroke-width="2.051"/>
          </g>
          <g id="g1192" transform="translate(9.36 -30.784)">
            <path id="path1194" d="M0,0A1.79,1.79,0,0,0,1.622,1.033,1.79,1.79,0,0,0,3.245,0" fill="none" stroke="#000" stroke-linecap="round" stroke-linejoin="round" stroke-miterlimit="10" stroke-width="2.051"/>
          </g>
          <path id="path1196" d="M8.116-26.223h5.732v3.408H8.116Z" fill="none" stroke="#000" stroke-linecap="round" stroke-linejoin="round" stroke-miterlimit="10" stroke-width="2.051"/>
          <g id="g1198" transform="translate(13.848 -22.814)">
            <path id="path1200" d="M0,0-2.866,5.7-5.732,0Z" fill="none" stroke="#000" stroke-linecap="round" stroke-linejoin="round" stroke-miterlimit="10" stroke-width="2.051"/>
          </g>
          <g id="g1202" transform="translate(10.982 -17.114)">
            <path id="path1204" d="M0,0V13.7" fill="none" stroke="#000" stroke-linecap="round" stroke-linejoin="round" stroke-miterlimit="10" stroke-width="2.051"/>
          </g>
          <g id="g1206" transform="translate(17.55 -13.115)">
            <path id="path1208" d="M0,0H-16.524V4.541H-1.138" fill="none" stroke="#000" stroke-linecap="round" stroke-linejoin="round" stroke-miterlimit="10" stroke-width="2.051"/>
          </g>
        </g>
      </g>
    </g>
  </g>
</svg>
