<svg xmlns="http://www.w3.org/2000/svg" xmlns:xlink="http://www.w3.org/1999/xlink" width="85" height="85" viewBox="0 0 85 85">
  <defs>
    <clipPath id="clip-path">
      <rect id="Rectángulo_361720" data-name="Rectángulo 361720" width="85" height="85" transform="translate(-3796 -11169)" fill="#fff"/>
    </clipPath>
  </defs>
  <g id="Enmascarar_grupo_998603" data-name="Enmascarar grupo 998603" transform="translate(3796 11169)" clip-path="url(#clip-path)">
    <g id="empleado" transform="translate(-3795.796 -11169)">
      <path id="Trazado_775774" data-name="Trazado 775774" d="M59.235,78.789a4.85,4.85,0,0,1-4.85,4.85H6.142a4.849,4.849,0,0,1-4.851-4.85A22.164,22.164,0,0,1,23.454,56.624H37.073A22.164,22.164,0,0,1,59.235,78.789Zm0,0" fill="#d2d2d7"/>
      <path id="Trazado_775775" data-name="Trazado 775775" d="M59.235,78.789a4.85,4.85,0,0,1-4.85,4.85H10.652a4.848,4.848,0,0,1-4.85-4.85A22.164,22.164,0,0,1,27.965,56.624h9.108A22.164,22.164,0,0,1,59.235,78.789Zm0,0" fill="#ebebf0"/>
      <path id="Trazado_775776" data-name="Trazado 775776" d="M35.656,56.6l-5.392,9.152L24.871,56.6V43.512H35.656Zm0,0" fill="#e3a76f"/>
      <path id="Trazado_775777" data-name="Trazado 775777" d="M33.024,74.417H27.6l-2.855,9.222H35.974Zm0,0" fill="#6990d7"/>
      <path id="Trazado_775778" data-name="Trazado 775778" d="M32.719,74.648H27.808a1.81,1.81,0,0,1-1.8-1.8V68.5a1.809,1.809,0,0,1,1.8-1.8h4.912a1.809,1.809,0,0,1,1.8,1.8v4.346A1.81,1.81,0,0,1,32.719,74.648Zm0,0" fill="#91aee2"/>
      <g id="Grupo_1029432" data-name="Grupo 1029432">
        <path id="Trazado_775779" data-name="Trazado 775779" d="M20.816,34.89a6.3,6.3,0,1,1-6.3-6.3A6.3,6.3,0,0,1,20.816,34.89Zm0,0" fill="#e3a76f"/>
        <path id="Trazado_775780" data-name="Trazado 775780" d="M52.371,34.891a6.3,6.3,0,1,1-6.3-6.3A6.3,6.3,0,0,1,52.371,34.891Zm0,0" fill="#e3a76f"/>
        <path id="Trazado_775781" data-name="Trazado 775781" d="M46.676,10.076v29.3c0,7.62-8.918,14.025-14.206,15.859a8.179,8.179,0,0,1-2.51.525c-2.071,0-6.25-1.834-9.91-4.8S13.245,43.9,13.245,39.38v-29.3a5.409,5.409,0,0,1,5.408-5.408H41.267a5.408,5.408,0,0,1,5.408,5.408Zm0,0" fill="#e3a76f"/>
      </g>
      <path id="Trazado_775782" data-name="Trazado 775782" d="M46.676,10.076v29.3c0,6.593-6.678,12.277-11.9,14.877a5.16,5.16,0,0,1-4.595.006,28.228,28.228,0,0,1-5.11-3.3C21.407,48,18.264,43.9,18.264,39.38v-29.3a5.409,5.409,0,0,1,5.408-5.408h17.6a5.409,5.409,0,0,1,5.408,5.408Zm0,0" fill="#f2bb88"/>
      <path id="Trazado_775783" data-name="Trazado 775783" d="M49.119,22.881H43.973a4.99,4.99,0,0,1-4.99-4.99V8.761a4.991,4.991,0,0,1,4.99-4.991h1.082a4.991,4.991,0,0,1,4.99,4.991V21.955a.927.927,0,0,1-.927.926Zm0,0" fill="#ae583e"/>
      <path id="Trazado_775784" data-name="Trazado 775784" d="M47.007,2.173v1.68c0,6.795-13.594,20.122-31.564,20.006h-3.1c-1.743,0-3.159-.977-3.159-2.18V8.08c0-3.769,4.44-6.825,9.914-6.825H45.677a1.817,1.817,0,0,1,.559.085.969.969,0,0,1,.771.833Zm0,0" fill="#c0694e"/>
      <path id="Trazado_775785" data-name="Trazado 775785" d="M46.236,1.34C43.125,8.421,30.9,18.27,15.443,18.171h-3.1c-1.743,0-3.159-.977-3.159-2.18V8.08c0-3.769,4.44-6.825,9.914-6.825H45.677a1.817,1.817,0,0,1,.559.085Zm0,0" fill="#c97e67"/>
      <path id="Trazado_775786" data-name="Trazado 775786" d="M20.857,53.1,16.72,57.414a1.312,1.312,0,0,0-.3,1.305l3.755,11.83a2.188,2.188,0,0,0,3.064.7l7.418-4.8-7.718-13.1a1.313,1.313,0,0,0-2.079-.242Zm0,0" fill="#aec2e9"/>
      <path id="Trazado_775787" data-name="Trazado 775787" d="M39.67,53.1l4.137,4.315a1.312,1.312,0,0,1,.3,1.305L40.355,70.55a2.189,2.189,0,0,1-3.065.7l-7.418-4.8,7.718-13.1A1.313,1.313,0,0,1,39.67,53.1Zm0,0" fill="#aec2e9"/>
      <path id="Trazado_775788" data-name="Trazado 775788" d="M83.335,67.294A16.436,16.436,0,1,1,66.9,50.858,16.436,16.436,0,0,1,83.335,67.294Zm0,0" fill="#6990d7"/>
      <path id="Trazado_775789" data-name="Trazado 775789" d="M74.972,75.367a11.414,11.414,0,1,1,0-16.147A11.351,11.351,0,0,1,74.972,75.367Zm0,0" fill="#1ed688"/>
      <path id="Trazado_775790" data-name="Trazado 775790" d="M74.972,75.367a11.351,11.351,0,0,1-4.937,2.9,11.413,11.413,0,0,1,0-21.95,11.414,11.414,0,0,1,4.937,19.05Zm0,0" fill="#35e298"/>
      <path id="Trazado_775791" data-name="Trazado 775791" d="M84.508,65.581a1.255,1.255,0,0,0-2.5.239C83.268,78.887,68.4,87.3,57.869,79.489a15.179,15.179,0,1,1,23-18.139,1.255,1.255,0,0,0,2.309-.984c-5.988-14.056-25.85-14.422-32.327-.519a23.048,23.048,0,0,0-6.056-3.2l-4.381-4.57c3.03-2.355,6.051-5.912,7.065-9.78a7.557,7.557,0,0,0,.383-14.735V24.134h1.187a2.182,2.182,0,0,0,2.182-2.18V8.761A6.246,6.246,0,0,0,48.2,3.4V2.173A2.378,2.378,0,0,0,45.611,0H19.031a13.7,13.7,0,0,0-7.72,2.22A7.169,7.169,0,0,0,7.862,8.08v13.6c0,1.834,1.758,3.289,4.062,3.423v2.667a7.556,7.556,0,0,0,.338,14.355,13.494,13.494,0,0,0,.9,2.525,1.255,1.255,0,1,0,2.27-1.069c-1.549-3.282-.806-4.259-1-13.736v-4.73A39.228,39.228,0,0,0,37.67,18.171a6.251,6.251,0,0,0,6.239,5.964h1.447c0,16.657.182,16.172-.508,18.225-1.082,3.2-3.739,6.073-6.586,8.222h0a26.927,26.927,0,0,1-3.9,2.459c-2.968,1.524-4.451,1.466-4.468,1.469-2.473,0-8.2-3.025-11.847-7.095a1.254,1.254,0,1,0-1.868,1.674,26.693,26.693,0,0,0,3.573,3.289l-4.122,4.3A23.459,23.459,0,0,0,0,78.765a6.112,6.112,0,0,0,6.1,6.1H54.348a6.083,6.083,0,0,0,4.4-1.879,17.711,17.711,0,0,0,25.761-17.41ZM11.925,39.257a5.043,5.043,0,0,1,0-8.736ZM51.05,34.891a5.053,5.053,0,0,1-3.187,4.691c0-.106,0,.413,0-9.382A5.051,5.051,0,0,1,51.05,34.891ZM15.386,22.6c-3.29,0-3.21.008-3.461-.018-.972-.1-1.553-.614-1.553-.907V8.08c0-3.02,3.966-5.571,8.659-5.571,27.839,0,26.564,0,26.656,0v1.34c0,5.9-12.806,18.88-30.3,18.751Zm28.523-.979a3.739,3.739,0,0,1-3.736-3.735V16.274c3.064-2.538,6.441-6.215,7.617-9.982a3.717,3.717,0,0,1,.935,2.469V21.625ZM38.674,53.889c.03.032,4.2,4.394,4.213,4.394-.036.109-3.667,11.555-3.717,11.714a.963.963,0,0,1-1.235.171l-6.407-4.15c.254-.431,7.128-12.1,7.146-12.128ZM33.23,70.109v2.71a.558.558,0,0,1-.549.549H27.77a.557.557,0,0,1-.549-.549v-2.71l3-1.946Zm1.5-14.474c-1.025,1.737-1.1,1.853-4.506,7.646-3.53-5.993-3.409-5.785-4.273-7.25,3.279,1.335,4.962,1.41,8.779-.4ZM21.778,53.889l2.337,3.966s0,0,0,0l0,.005s0,0,0,0,0,0,0,0c5.716,9.7.279.474,4.8,8.147-7.065,4.575-6.663,4.4-7.181,4.268a.818.818,0,0,1-.46-.288L17.565,58.283l4.213-4.394ZM23.787,82.36H14.4V74.087a1.255,1.255,0,0,0-2.509,0V82.36H6.1a3.6,3.6,0,0,1-3.6-3.6,20.942,20.942,0,0,1,12.8-19.275c3.848,12.089,3.6,11.421,3.72,11.639a3.441,3.441,0,0,0,4.846,1.146l.831-.539c.084.507-.4,2.348,1.263,3.557Zm2.624,0,2.009-6.483h3.722l2.075,6.483Zm27.936,0H48.562V74.087a1.255,1.255,0,0,0-2.509,0V82.36h-9.2l-2.283-7.137a3.051,3.051,0,0,0,1.171-2.4V71.735l.831.539a3.409,3.409,0,0,0,4.942-1.368l3.63-11.432A20.563,20.563,0,0,1,49.929,62.3a17.68,17.68,0,0,0,6.6,19.319,3.589,3.589,0,0,1-2.185.741Zm0,0"/>
      <path id="Trazado_775792" data-name="Trazado 775792" d="M71.468,79.112a12.561,12.561,0,0,0,4.391-2.858c7.874-7.875,2.412-21.626-8.96-21.626-11.337,0-16.851,13.735-8.96,21.626a12.637,12.637,0,0,0,8.156,3.677,1.254,1.254,0,0,0,.087-2.506,10.139,10.139,0,1,1,4.385-.655,1.255,1.255,0,0,0,.9,2.342Zm0,0"/>
      <path id="Trazado_775793" data-name="Trazado 775793" d="M71.814,60.939a1.255,1.255,0,0,0-1.727.409L63.706,71.694l-2.245-3.067a1.254,1.254,0,1,0-2.025,1.482l3.346,4.573a1.255,1.255,0,0,0,2.08-.082l7.361-11.933a1.255,1.255,0,0,0-.409-1.726Zm0,0"/>
      <path id="Trazado_775794" data-name="Trazado 775794" d="M36.811,34.927a1.98,1.98,0,1,0,1.981-1.979A1.98,1.98,0,0,0,36.811,34.927Zm0,0"/>
      <path id="Trazado_775795" data-name="Trazado 775795" d="M41.969,29.894a1.255,1.255,0,0,0,1.337-2.124c-2.671-1.68-6.959-.85-7.439-.75a1.254,1.254,0,0,0,.512,2.456,11.891,11.891,0,0,1,4.4-.043,3.8,3.8,0,0,1,1.186.462Zm0,0"/>
      <path id="Trazado_775796" data-name="Trazado 775796" d="M21.659,32.948a2,2,0,1,0,.093,0,.9.9,0,0,0-.093,0Zm0,0"/>
      <path id="Trazado_775797" data-name="Trazado 775797" d="M24.585,27.02c-.481-.1-4.77-.93-7.44.75a1.256,1.256,0,0,0,.669,2.317c.668,0,.634-.375,1.855-.656a11.9,11.9,0,0,1,4.4.045,1.254,1.254,0,0,0,.512-2.456Zm0,0"/>
      <path id="Trazado_775798" data-name="Trazado 775798" d="M32.78,42.767a2.554,2.554,0,0,1-5.109,0,1.256,1.256,0,0,0-1.255-1.254c-2.643,0-1.01,6.318,3.809,6.318,3.952,0,5.589-4.171,4.955-5.574a1.256,1.256,0,0,0-2.4.51Zm0,0"/>
    </g>
  </g>
</svg>
