<svg xmlns="http://www.w3.org/2000/svg" xmlns:xlink="http://www.w3.org/1999/xlink" width="148.59" height="286.463" viewBox="0 0 148.59 286.463">
  <defs>
    <clipPath id="clip-path">
      <rect id="Rectángulo_361877" data-name="Rectángulo 361877" width="57" height="57" transform="translate(929 6895)" fill="#fe502d"/>
    </clipPath>
  </defs>
  <g id="Grupo_1029814" data-name="Grupo 1029814" transform="translate(-883.704 -6772.584)">
    <g id="Grupo_1029727" data-name="Grupo 1029727" transform="translate(158 8)">
      <rect id="Rectángulo_361868" data-name="Rectángulo 361868" width="4.902" height="2.451" transform="translate(797.548 7032.688)" fill="#ee4657"/>
      <path id="Trazado_776600" data-name="Trazado 776600" d="M128.08,627.589h-4.9v-4.877h4.9Zm0-9.751h-4.9v-4.877h4.9Zm0-9.75h-4.9v-4.877h4.9Zm0-9.751h-4.9v-4.877h4.9Z" transform="translate(674.37 6400.223)" fill="#ffca00"/>
      <path id="Trazado_776601" data-name="Trazado 776601" d="M131.922,701.942a15.908,15.908,0,1,1-15.908-15.907,15.908,15.908,0,0,1,15.908,15.907" transform="translate(683.985 6333.197)" fill="#ffca00"/>
      <path id="Trazado_776571" data-name="Trazado 776571" d="M1069.7,180.013l-74.3,74.3-74.295-74.3V95.7L995.4,21.4l74.3,74.3Z" transform="translate(-195.404 6743.184)" fill="#ffca00"/>
      <path id="Trazado_776572" data-name="Trazado 776572" d="M944.885,188.282V115.452l60.428-60.427,60.428,60.428v72.828l-60.428,60.428Z" transform="translate(-205.313 6729.17)" fill="#fff"/>
      <rect id="Rectángulo_361853" data-name="Rectángulo 361853" width="82.345" height="82.345" transform="translate(741.772 6822.812) rotate(-45.001)" fill="#ffca00"/>
      <path id="Trazado_776588" data-name="Trazado 776588" d="M1052.8,123.466c-1.77.885-5.751,1.833-10.934,1.833-14.727,0-22.311-9.165-22.311-21.3,0-14.537,10.365-22.627,23.259-22.627,4.993,0,8.786,1.011,10.492,1.9l-1.959,7.648a20.816,20.816,0,0,0-8.09-1.58c-7.648,0-13.589,4.614-13.589,14.095,0,8.533,5.056,13.905,13.652,13.905a24.063,24.063,0,0,0,8.027-1.39Z" transform="translate(-236.432 6718.191)" fill="#fff"/>
    </g>
    <g id="Enmascarar_grupo_998662" data-name="Enmascarar grupo 998662" clip-path="url(#clip-path)">
      <g id="proteccion-ambiental" transform="translate(928.08 6893.82)">
        <circle id="Elipse_8868" data-name="Elipse 8868" cx="16.554" cy="16.554" r="16.554" transform="translate(12.875 13.795)" fill="#cbe1ff"/>
        <path id="Trazado_776639" data-name="Trazado 776639" d="M32.914,42.525l-.69,4.138a16.557,16.557,0,0,1-12.4-2.823l1.021-4.028a2.759,2.759,0,0,0-.377-2.2l-1.407-2.106a2.8,2.8,0,0,1-.386-2.2l.386-1.536a2.741,2.741,0,0,0-2.143-3.357l-3.835-.782a16.527,16.527,0,0,1,9.592-12.388l4.433,1.775a2.386,2.386,0,0,1,1.3,3.182l-3.7,8.323a2.386,2.386,0,0,0,.855,2.952l.956.625a2.361,2.361,0,0,1,.938,2.731l-.671,2.032a2.391,2.391,0,0,0,3.026,3.016,2.385,2.385,0,0,1,3.1,2.649Z" fill="#6ed974"/>
        <circle id="Elipse_8869" data-name="Elipse 8869" cx="3.449" cy="3.449" r="3.449" transform="translate(48.052 37.706)" fill="#ffd098"/>
        <path id="Trazado_776640" data-name="Trazado 776640" d="M40.465,53.34l5.518-2.759v6.438H57.018V48.742A3.222,3.222,0,0,0,53.8,45.523H47.518a4.606,4.606,0,0,0-2.759.92l-4.295,3.219Z" fill="#ff8080"/>
        <circle id="Elipse_8870" data-name="Elipse 8870" cx="3.449" cy="3.449" r="3.449" transform="translate(25.98 37.706)" fill="#ffd098"/>
        <path id="Trazado_776641" data-name="Trazado 776641" d="M18.393,53.34l5.518-2.759v6.438H34.947V50.581l5.518,2.759V49.661l-3.8-2.851A6.436,6.436,0,0,0,32.8,45.523H25.447a4.606,4.606,0,0,0-2.759.92l-4.295,3.219Z" fill="#4d99ff"/>
        <circle id="Elipse_8871" data-name="Elipse 8871" cx="3.449" cy="3.449" r="3.449" transform="translate(3.909 37.706)" fill="#ffd098"/>
        <path id="Trazado_776642" data-name="Trazado 776642" d="M18.393,49.661,14.1,46.442a4.606,4.606,0,0,0-2.759-.92H5.058a3.222,3.222,0,0,0-3.219,3.219v8.277H12.875V50.581l5.518,2.759Z" fill="#ffde66"/>
        <path id="Trazado_776643" data-name="Trazado 776643" d="M30.4,3.4c1.619-1.619,4.874-.975,4.874-.975S35.922,5.693,34.3,7.3s-4.874.975-4.874.975S28.785,5.012,30.4,3.4Z" fill="#9ae674"/>
        <path id="Trazado_776644" data-name="Trazado 776644" d="M25.2,7.3c-1.435-1.435-.975-4.23-.975-4.23s2.787-.46,4.23.975.975,4.23.975,4.23S26.642,8.737,25.2,7.3Z" fill="#9ae674"/>
        <path id="Trazado_776645" data-name="Trazado 776645" d="M44.98,24.674,38.846,29.64a1.213,1.213,0,0,1-1.977-1.122l.34-2.078a1.227,1.227,0,0,0-1.2-1.435,1.182,1.182,0,0,0-.717.258A1.214,1.214,0,0,1,33.42,23.9l2.943-8.6a16.613,16.613,0,0,1,8.617,9.362Z" fill="#6ed974"/>
        <path id="Trazado_776646" data-name="Trazado 776646" d="M17.777,40.768a15.608,15.608,0,0,1-3.982-10.42,15.81,15.81,0,0,1,.083-1.628l2.869.579a1.865,1.865,0,0,1,1.2.828,1.81,1.81,0,0,1,.23,1.407l-.4,1.563a3.763,3.763,0,0,0,.524,2.924l1.4,2.1a1.832,1.832,0,0,1,.294.791l1.821-.248a3.634,3.634,0,0,0-.589-1.563l-1.4-2.1a1.859,1.859,0,0,1-.267-1.471l.4-1.545A3.679,3.679,0,0,0,17.106,27.5l-2.924-.589A15.651,15.651,0,0,1,22.725,16.25l4.046,1.609a1.522,1.522,0,0,1,.828.828,1.485,1.485,0,0,1-.009,1.14l-3.706,8.314a3.335,3.335,0,0,0,1.2,4.1l.947.625a1.41,1.41,0,0,1,.635,1.37l1.821.23a3.244,3.244,0,0,0-1.453-3.136l-.947-.616a1.481,1.481,0,0,1-.533-1.821l3.706-8.323A3.294,3.294,0,0,0,29.291,18a3.343,3.343,0,0,0-1.839-1.839l-2.17-.864a15.721,15.721,0,0,1,4.138-.57A15.491,15.491,0,0,1,35.2,15.846l-2.658,7.789a2.133,2.133,0,0,0,3.3,2.382.281.281,0,0,1,.4.055.274.274,0,0,1,.055.239l-.34,2.078a2.132,2.132,0,0,0,2.106,2.492,2.142,2.142,0,0,0,1.352-.487l5.086-4.1a15.426,15.426,0,0,1,.561,4.092A15.608,15.608,0,0,1,41.081,40.8l1.37,1.223a17.458,17.458,0,0,0-12.1-29.079V9.334c.175.009.359.018.552.018a5.7,5.7,0,0,0,4.046-1.37c1.94-1.94,1.26-5.545,1.223-5.7a.924.924,0,0,0-.727-.727c-.156-.028-3.761-.717-5.7,1.223a3.806,3.806,0,0,0-.57.745c-.028-.028-.055-.064-.083-.092C27.332,1.683,24.2,2.18,24.058,2.2a.918.918,0,0,0-.754.754c-.018.129-.515,3.274,1.232,5.03A5.487,5.487,0,0,0,28.4,9.3h.092v3.66a17.458,17.458,0,0,0-12.1,29.079l1.37-1.223Zm26.1-16.379-5.628,4.543a.28.28,0,0,1-.34.028.283.283,0,0,1-.138-.3l.34-2.078a2.133,2.133,0,0,0-.46-1.729,2.173,2.173,0,0,0-2.915-.34.254.254,0,0,1-.34,0,.273.273,0,0,1-.11-.331l2.593-7.6a15.752,15.752,0,0,1,7,7.789ZM31.047,4.046a4.608,4.608,0,0,1,3.4-.809c.083,1,.018,2.584-.809,3.4a4.488,4.488,0,0,1-3.237.818,7.676,7.676,0,0,0-.129-1.637,3.175,3.175,0,0,1,.763-1.784Zm-5.205,2.6a3.864,3.864,0,0,1-.773-2.731A3.955,3.955,0,0,1,27.8,4.69a3.864,3.864,0,0,1,.773,2.731A3.955,3.955,0,0,1,25.842,6.649Z"/>
        <path id="Trazado_776647" data-name="Trazado 776647" d="M54.112,44.631a4.368,4.368,0,1,0-5.26-.028H47.518a5.572,5.572,0,0,0-3.311,1.1l-3.743,2.8-3.246-2.437A7.422,7.422,0,0,0,32.8,44.6h-.727a4.368,4.368,0,1,0-5.3,0H25.447a5.572,5.572,0,0,0-3.311,1.1l-3.743,2.8-3.743-2.8a5.572,5.572,0,0,0-3.311-1.1H10.006a4.369,4.369,0,1,0-5.26.028A4.133,4.133,0,0,0,.92,48.742v8.277a.922.922,0,0,0,.92.92H12.875a.922.922,0,0,0,.92-.92V52.071l4.184,2.1a.946.946,0,0,0,.818,0l4.184-2.1v4.948a.922.922,0,0,0,.92.92H34.938a.922.922,0,0,0,.92-.92V52.071l4.184,2.1a.946.946,0,0,0,.818,0c.258-.12,4.184-2.088,4.184-2.088v4.948a.922.922,0,0,0,.92.92H57a.922.922,0,0,0,.92-.92V48.751a4.133,4.133,0,0,0-3.826-4.111ZM7.357,38.625a2.529,2.529,0,1,1-2.529,2.529A2.528,2.528,0,0,1,7.357,38.625ZM17.473,51.85l-4.184-2.1a.931.931,0,0,0-.892.037.918.918,0,0,0-.432.782V56.09H2.759V48.732a2.3,2.3,0,0,1,2.3-2.3h6.281a3.681,3.681,0,0,1,2.207.736l3.927,2.943v1.729ZM29.429,38.625A2.529,2.529,0,1,1,26.9,41.154,2.528,2.528,0,0,1,29.429,38.625ZM39.545,51.85l-4.184-2.1a.931.931,0,0,0-.892.037.918.918,0,0,0-.432.782V56.09h-9.2V50.572a.918.918,0,0,0-.432-.782.907.907,0,0,0-.892-.037l-4.184,2.1V50.121l3.927-2.943a3.681,3.681,0,0,1,2.207-.736h7.357a5.572,5.572,0,0,1,3.311,1.1l3.43,2.575V51.85ZM51.5,38.625a2.529,2.529,0,1,1-2.529,2.529A2.528,2.528,0,0,1,51.5,38.625ZM56.1,56.1H46.9V50.581a.919.919,0,0,0-.432-.782.907.907,0,0,0-.892-.037l-4.184,2.1V50.13l3.927-2.943a3.681,3.681,0,0,1,2.207-.736h6.281a2.3,2.3,0,0,1,2.3,2.3v7.357Z"/>
      </g>
    </g>
  </g>
</svg>
