<svg xmlns="http://www.w3.org/2000/svg" xmlns:xlink="http://www.w3.org/1999/xlink" width="1328" height="437" viewBox="0 0 1328 437">
  <defs>
    <clipPath id="clip-path">
      <rect id="Rectángulo_361020" data-name="Rectángulo 361020" width="1328" height="437" rx="20" fill="#fff" stroke="#707070" stroke-width="1"/>
    </clipPath>
  </defs>
  <g id="Enmascarar_grupo_998589" data-name="Enmascarar grupo 998589" clip-path="url(#clip-path)">
    <g id="bg-curve" transform="translate(0 -517.712)">
      <path id="Trazado_774122" data-name="Trazado 774122" d="M1328,911.933V67.648C937.048,192.327,513.822,32.035,0,0V844.285C390.952,719.606,814.178,879.9,1328,911.933Z" fill="#fcf6d8"/>
      <path id="Trazado_774123" data-name="Trazado 774123" d="M86.616,525.894A1433.008,1433.008,0,0,0,0,770.3l2.624.372A1419.306,1419.306,0,0,1,88.795,527.091c51.974-113.305,78.157-224.129,77.824-329.392C166.4,127.79,154.511,61.6,131.321,0c-.86.1-1.723.178-2.583.272C186.812,154.761,172.654,338.329,86.616,525.894Z" transform="translate(1007.538 107.141)" fill="#fff"/>
      <path id="Trazado_774124" data-name="Trazado 774124" d="M35.724,669.806c-9.687,20.089-19.7,40.858-29.226,61.083C4.254,735.654,2.1,740.4,0,745.145l2.544.394c1.985-4.469,4.007-8.943,6.121-13.431C18.184,711.9,28.2,691.131,37.88,671.052c85.951-178.259,174.828-362.589,119.036-546.7Q137.344,59.765,95.071.042,93.52.023,91.968,0,134.939,60.244,154.6,125.194C210.066,308.223,121.436,492.043,35.724,669.806Z" transform="translate(887.134 114.28)" fill="#fff"/>
      <path id="Trazado_774125" data-name="Trazado 774125" d="M1.589,327.906c-6.083,90.888,5.261,171.5,34.68,246.442,19.146,48.773,46.1,95.688,82.7,142.759V713c-35.5-46.064-61.734-92-80.461-139.7-58.722-149.59-46.7-322.426,39-560.411,1.549-4.3,3.017-8.6,4.447-12.885-.944.257-1.893.489-2.838.744-1.254,3.714-2.536,7.434-3.878,11.163C31.846,132.415,7.755,235.781,1.589,327.906Z" transform="translate(1209.03 78.584)" fill="#fff"/>
      <path id="Trazado_774126" data-name="Trazado 774126" d="M178.772,343.5c24.775,160.228-22.387,321.54-133.64,463.6q1.977-.337,3.955-.664c45.739-58.619,80.54-120.4,103.912-184.63,33.193-91.215,42.673-185,28.178-278.748C164.844,237.427,117.57,134.7,44.466,45.977Q25.026,22.384,3.3.295,1.652.145,0,0C95.862,96.813,159,215.616,178.772,343.5Z" transform="translate(82.596 6.279)" fill="#fff"/>
      <path id="Trazado_774127" data-name="Trazado 774127" d="M100.631,335.473C106.5,232.4,73.393,121.587,0,0V4.884c71.648,119.734,103.98,228.9,98.2,330.422C92.763,430.724,54.388,511.863,0,585.272v4.253C55.672,515.084,95.093,432.7,100.631,335.473Z" transform="translate(0 113.329)" fill="#fff"/>
      <path id="Trazado_774128" data-name="Trazado 774128" d="M204.907,379.042c8.065,96.409-23.526,186.561-93.893,267.953C72.223,691.864,38.845,734.9,10.5,776.652c1.013-.061,2.028-.112,3.041-.17,28.155-41.181,61.12-83.554,99.247-127.654C183.655,566.856,215.467,476,207.335,378.8,199.938,290.388,155.622,160.232,3.993.518,2.661.346,1.333.17,0,0,152.956,160.24,197.511,290.642,204.907,379.042Z" transform="translate(237.178 23.189)" fill="#fff"/>
    </g>
  </g>
</svg>
