<svg xmlns="http://www.w3.org/2000/svg" xmlns:xlink="http://www.w3.org/1999/xlink" width="70" height="70" viewBox="0 0 70 70">
  <defs>
    <clipPath id="clip-path">
      <rect id="Rectángulo_361777" data-name="Rectángulo 361777" width="70" height="70" transform="translate(411 3808)" fill="#fff" stroke="#707070" stroke-width="1"/>
    </clipPath>
  </defs>
  <g id="Enmascarar_grupo_998610" data-name="Enmascarar grupo 998610" transform="translate(-411 -3808)" clip-path="url(#clip-path)">
    <g id="bolsa-de-dinero" transform="translate(409.947 3807.02)">
      <g id="Grupo_1029487" data-name="Grupo 1029487">
        <g id="Grupo_1029478" data-name="Grupo 1029478">
          <path id="Trazado_775951" data-name="Trazado 775951" d="M40.29,7.075l3.65,10.951H40.56l-6.76-6.76a3.831,3.831,0,0,1,3.357-3.8l3.121-.394Z" fill="#fe502d"/>
        </g>
        <g id="Grupo_1029479" data-name="Grupo 1029479">
          <path id="Trazado_775952" data-name="Trazado 775952" d="M55.207,3.38,54.08,7.042,50.7,18.027H43.94L40.29,7.075l-.856-2.569L45.067,3.38,47.32,6.76,50.7,2.253Z" fill="#fe502d"/>
        </g>
        <g id="Grupo_1029480" data-name="Grupo 1029480">
          <path id="Trazado_775953" data-name="Trazado 775953" d="M60.84,11.267l-6.76,6.76H50.7L54.08,7.042l3.4.428A3.831,3.831,0,0,1,60.84,11.267Z" fill="#fe502d"/>
        </g>
        <g id="Grupo_1029481" data-name="Grupo 1029481">
          <path id="Trazado_775954" data-name="Trazado 775954" d="M56.333,18.027a2.26,2.26,0,0,1,2.253,2.253,2.27,2.27,0,0,1-2.253,2.253H38.307a2.26,2.26,0,0,1-2.253-2.253,2.27,2.27,0,0,1,2.253-2.253H56.333Z" fill="#ccd1d9"/>
        </g>
        <g id="Grupo_1029482" data-name="Grupo 1029482">
          <path id="Trazado_775955" data-name="Trazado 775955" d="M45.067,56.333V47.32H25.012a21.723,21.723,0,0,1-.225-3.11,21.157,21.157,0,0,1,9.7-17.779l6.073-3.9H54.08l6.073,3.9A21.138,21.138,0,0,1,48.717,65.347H45.923c-.293,0-.575-.011-.856-.023Z" fill="#fe502d"/>
        </g>
        <g id="Grupo_1029483" data-name="Grupo 1029483">
          <path id="Trazado_775956" data-name="Trazado 775956" d="M45.067,65.324v4.529H19.153a11.267,11.267,0,0,0,0-22.533H45.067v18Z" fill="#b4dd7f"/>
        </g>
        <g id="Grupo_1029484" data-name="Grupo 1029484">
          <circle id="Elipse_8788" data-name="Elipse 8788" cx="11.267" cy="11.267" r="11.267" transform="translate(7.887 47.32)" fill="#ffca00"/>
        </g>
        <g id="Grupo_1029485" data-name="Grupo 1029485">
          <path id="Trazado_775957" data-name="Trazado 775957" d="M13.52,47.32h5.633a11.267,11.267,0,1,0,0,22.533H6.76a4.505,4.505,0,0,1-4.507-4.507V42.813A4.505,4.505,0,0,0,6.76,47.32Z" fill="#b4dd7f"/>
        </g>
        <g id="Grupo_1029486" data-name="Grupo 1029486">
          <path id="Trazado_775958" data-name="Trazado 775958" d="M13.52,38.307V47.32H6.76a4.507,4.507,0,1,1,0-9.013Z" fill="#a0d468"/>
        </g>
      </g>
      <g id="Grupo_1029488" data-name="Grupo 1029488">
        <path id="Trazado_775959" data-name="Trazado 775959" d="M28.169,43.922l2.253.035a15.7,15.7,0,0,1,.176-2.1l-2.229-.337A17.962,17.962,0,0,0,28.169,43.922Z"/>
        <path id="Trazado_775960" data-name="Trazado 775960" d="M36.32,29.277A17.732,17.732,0,0,0,28.911,39.1l2.159.644a15.481,15.481,0,0,1,6.469-8.575l1.437-.923-1.218-1.9Z"/>
        <path id="Trazado_775961" data-name="Trazado 775961" d="M66.471,43.919l-2.253.042,0,.251a15.513,15.513,0,0,1-.1,1.786l2.239.258a17.948,17.948,0,0,0,.117-2.043Z"/>
        <path id="Trazado_775962" data-name="Trazado 775962" d="M53.716,58.888l.728,2.133A17.736,17.736,0,0,0,65.876,48.781L63.7,48.2a15.484,15.484,0,0,1-9.982,10.688Z"/>
        <path id="Trazado_775963" data-name="Trazado 775963" d="M60.757,25.486l-3.208-2.062a3.364,3.364,0,0,0-.792-6.482l5.21-5.21v-.466A4.963,4.963,0,0,0,57.626,6.35l-2.074-.259,1.082-3.514L50.248.98,47.374,4.811,45.585,2.127,37.96,3.653l.826,2.476-1.772.221a4.962,4.962,0,0,0-4.34,4.917v.466l5.21,5.21a3.364,3.364,0,0,0-.792,6.482l-3.208,2.062A22.166,22.166,0,0,0,23.66,44.212c0,.661.039,1.323.1,1.982h-9.11V37.18H6.76a5.64,5.64,0,0,0-5.633,5.633V65.347A5.64,5.64,0,0,0,6.76,70.98H46.193V66.474h2.525A22.261,22.261,0,0,0,60.757,25.486Zm-3.41-16.9a2.709,2.709,0,0,1,2.332,2.249L53.614,16.9H52.226l2.653-8.624Zm-12.8-3.952,2.719,4.076,3.887-5.183,2.627.657L49.869,16.9H44.752L40.906,5.362ZM37.294,8.585l2.218-.277L42.376,16.9h-1.35l-6.065-6.066a2.709,2.709,0,0,1,2.332-2.249Zm1.013,10.568H56.333a1.127,1.127,0,1,1,0,2.253H38.307a1.127,1.127,0,0,1,0-2.253ZM6.76,39.433h5.633v6.76H6.76a3.38,3.38,0,0,1,0-6.76Zm0,29.293a3.384,3.384,0,0,1-3.38-3.38V47.318a5.6,5.6,0,0,0,3.38,1.129h5.29a12.364,12.364,0,0,0,0,20.28Zm12.393-20.28a10.14,10.14,0,1,1-10.14,10.14A10.152,10.152,0,0,1,19.153,48.447ZM43.94,68.727H26.257a12.364,12.364,0,0,0,0-20.28H43.94Zm2.253-20.758a5.577,5.577,0,0,0,2.253.478,3.38,3.38,0,0,1,0,6.76H46.193ZM48.718,64.22H46.193V57.46h2.253a5.633,5.633,0,1,0,0-11.267,3.38,3.38,0,0,1,0-6.76h3.38v3.38H54.08V37.18H49.573V34.927H47.32v2.367a5.643,5.643,0,0,0-4.507,5.52,5.575,5.575,0,0,0,1.156,3.38H26.023c-.064-.658-.109-1.319-.109-1.982A19.927,19.927,0,0,1,35.1,27.381L40.89,23.66H53.75l5.789,3.721A20.008,20.008,0,0,1,48.718,64.22Z"/>
        <path id="Trazado_775964" data-name="Trazado 775964" d="M18.027,66.474H20.28V64.22a3.38,3.38,0,1,0,0-6.76H18.027a1.127,1.127,0,1,1,0-2.253h3.38v1.127H23.66v-3.38H20.28V50.7H18.027v2.253a3.38,3.38,0,0,0,0,6.76H20.28a1.127,1.127,0,1,1,0,2.253H16.9V60.84H14.647v3.38h3.38Z"/>
        <path id="Trazado_775965" data-name="Trazado 775965" d="M39.433,56.333h2.253V50.7H36.053v2.253h3.38Z"/>
        <path id="Trazado_775966" data-name="Trazado 775966" d="M41.687,60.84H39.433v3.38h-3.38v2.253h5.633Z"/>
      </g>
    </g>
  </g>
</svg>
