<svg xmlns="http://www.w3.org/2000/svg" xmlns:xlink="http://www.w3.org/1999/xlink" width="70" height="70" viewBox="0 0 70 70">
  <defs>
    <clipPath id="clip-path">
      <rect id="Rectángulo_361781" data-name="Rectángulo 361781" width="70" height="70" transform="translate(1119 3808)" fill="#fff" stroke="#707070" stroke-width="1"/>
    </clipPath>
  </defs>
  <g id="Enmascarar_grupo_998614" data-name="Enmascarar grupo 998614" transform="translate(-1119 -3808)" clip-path="url(#clip-path)">
    <g id="_x30_7_x2C__Liquidity_business_and_finance_x2C__dollar_x2C__arrow_x2C__economic_crisies" transform="translate(1118.863 3807.863)">
      <g id="Grupo_1029490" data-name="Grupo 1029490">
        <g id="XMLID_269_">
          <circle id="XMLID_296_" cx="9.608" cy="9.608" r="9.608" transform="translate(25.529 1.51)" fill="#fe502d"/>
          <circle id="XMLID_295_" cx="13.725" cy="13.725" r="13.725" transform="translate(1.51 41.314)" fill="#ffca00"/>
          <path id="XMLID_294_" d="M58.381,23.829a1.187,1.187,0,0,1,1.285,1.642l-1.882,4.358H47.776l-2.439-4.171a1.188,1.188,0,0,1,1.22-1.771,34.8,34.8,0,0,0,11.475,0Z" fill="#2d54fe"/>
          <path id="XMLID_293_" d="M57.784,29.828a2.745,2.745,0,0,1,0,5.49H47.776a2.745,2.745,0,0,1,0-5.49Z" fill="#2d54fe"/>
          <path id="XMLID_292_" d="M58.185,35.318a35.484,35.484,0,0,1,10.58,25.189,8.245,8.245,0,0,1-8.235,8.257H45.507a8.241,8.241,0,0,1-8.219-7.715,22.834,22.834,0,0,1,.605-7.52c2.685-9.472,7.457-15.794,9.882-18.211Z" fill="#2d54fe"/>
          <path id="XMLID_289_" d="M15.235,70.137a15.1,15.1,0,1,1,15.1-15.1A15.115,15.115,0,0,1,15.235,70.137Zm0-27.451A12.353,12.353,0,1,0,27.588,55.039,12.352,12.352,0,0,0,15.235,42.686Z"/>
          <path id="XMLID_288_" d="M15.235,61.9H12.49a1.373,1.373,0,1,1,0-2.745h2.745a1.373,1.373,0,0,0,0-2.745,4.118,4.118,0,1,1,0-8.235H17.98a1.373,1.373,0,1,1,0,2.745H15.235a1.373,1.373,0,1,0,0,2.745,4.118,4.118,0,0,1,0,8.235Z"/>
          <path id="XMLID_286_" d="M15.235,50.922a1.373,1.373,0,0,1-1.373-1.373V46.8a1.373,1.373,0,0,1,2.745,0v2.745A1.373,1.373,0,0,1,15.235,50.922Z"/>
          <path id="XMLID_285_" d="M15.235,64.647a1.373,1.373,0,0,1-1.373-1.373V60.529a1.373,1.373,0,0,1,2.745,0v2.745A1.373,1.373,0,0,1,15.235,64.647Z"/>
          <path id="XMLID_284_" d="M57.784,36.691a1.373,1.373,0,0,1,0-2.745,1.373,1.373,0,1,0,0-2.745H47.776a1.373,1.373,0,0,0,0,2.745,1.373,1.373,0,1,1,0,2.745,4.118,4.118,0,0,1,0-8.235H57.784a4.118,4.118,0,0,1,0,8.235Z"/>
          <path id="XMLID_281_" d="M60.529,70.137H45.507a9.636,9.636,0,0,1-9.588-9,23.9,23.9,0,0,1,.654-7.983c2.51-8.857,7.082-15.668,10.234-18.809a1.373,1.373,0,0,1,.969-.4H58.185a1.373,1.373,0,0,1,.969.4A36.793,36.793,0,0,1,70.137,60.508a9.633,9.633,0,0,1-9.608,9.629ZM48.355,36.691A43.684,43.684,0,0,0,39.214,53.9a21.2,21.2,0,0,0-.556,7.057,6.885,6.885,0,0,0,6.849,6.432H60.529a6.885,6.885,0,0,0,6.863-6.886,34,34,0,0,0-9.781-23.816Z"/>
          <path id="XMLID_280_" d="M38.569,31.706H24.843a1.373,1.373,0,0,1,0-2.745H36l-1.322-1.984a1.372,1.372,0,1,1,2.284-1.523l2.745,4.118a1.372,1.372,0,0,1-1.142,2.134Z"/>
          <path id="XMLID_279_" d="M26.446,40.7,23.7,36.585a1.372,1.372,0,0,1,1.142-2.134H38.569a1.373,1.373,0,0,1,0,2.745H27.408L28.73,39.18A1.372,1.372,0,1,1,26.446,40.7Z"/>
          <path id="XMLID_278_" d="M9.745,43.83a1.373,1.373,0,0,1-1.373-1.373V11.118a5.5,5.5,0,0,1,5.49-5.49H25.529a1.373,1.373,0,1,1,0,2.745H13.863a2.748,2.748,0,0,0-2.745,2.745V42.457A1.373,1.373,0,0,1,9.745,43.83Z"/>
          <path id="XMLID_277_" d="M55.738,19.353a1.373,1.373,0,0,1-1.373-1.373V11.118A2.748,2.748,0,0,0,51.62,8.373H44.745a1.373,1.373,0,0,1,0-2.745H51.62a5.5,5.5,0,0,1,5.49,5.49V17.98A1.373,1.373,0,0,1,55.738,19.353Z"/>
          <path id="XMLID_276_" d="M47.794,52.514a1.373,1.373,0,0,1-.936-1.7l4.6-15.878a1.373,1.373,0,0,1,2.615-.067l4.455,12.858a1.373,1.373,0,1,1-2.594.9L52.9,39.846l-3.4,11.732a1.372,1.372,0,0,1-1.7.936Z"/>
          <path id="XMLID_273_" d="M35.137,22.1a10.98,10.98,0,1,1,10.98-10.98A10.993,10.993,0,0,1,35.137,22.1Zm0-19.216a8.235,8.235,0,1,0,8.235,8.235A8.245,8.245,0,0,0,35.137,2.882Z"/>
          <path id="XMLID_272_" d="M36.226,14.833,33.48,12.088a1.373,1.373,0,0,1-.4-.971V7a1.373,1.373,0,0,1,2.745,0v3.549l2.343,2.343a1.373,1.373,0,1,1-1.941,1.941Z"/>
          <path id="XMLID_271_" d="M54.693,18.884l-4.8-5.49a1.373,1.373,0,0,1,2.066-1.808l3.771,4.31,3.771-4.31a1.373,1.373,0,0,1,2.066,1.808l-4.815,5.5a1.372,1.372,0,0,1-2.054-.013Z"/>
          <path id="XMLID_270_" d="M57.24,31.088a1.373,1.373,0,0,1-.716-1.8l1.747-4.046A36.07,36.07,0,0,1,46.72,25.3l2.241,3.832a1.373,1.373,0,0,1-2.37,1.386L44.152,26.35a2.56,2.56,0,0,1,2.63-3.817,33.431,33.431,0,0,0,11.024,0l.353-.058a2.56,2.56,0,0,1,2.768,3.539l-1.882,4.359A1.372,1.372,0,0,1,57.24,31.088Z"/>
        </g>
      </g>
    </g>
  </g>
</svg>
