<svg xmlns="http://www.w3.org/2000/svg" xmlns:xlink="http://www.w3.org/1999/xlink" width="70" height="70" viewBox="0 0 70 70">
  <defs>
    <clipPath id="clip-path">
      <rect id="Rectángulo_361782" data-name="Rectángulo 361782" width="70" height="70" transform="translate(1296 3808)" fill="#fff" stroke="#707070" stroke-width="1"/>
    </clipPath>
  </defs>
  <g id="Enmascarar_grupo_998615" data-name="Enmascarar grupo 998615" transform="translate(-1296 -3808)" clip-path="url(#clip-path)">
    <g id="vacaciones_1_" data-name="vacaciones (1)" transform="translate(1296 3808)">
      <path id="Trazado_775994" data-name="Trazado 775994" d="M66.719,8.75V54.687a3.282,3.282,0,0,1-3.281,3.281H6.563a3.282,3.282,0,0,1-3.281-3.281V8.75A3.282,3.282,0,0,1,6.563,5.469H63.437A3.282,3.282,0,0,1,66.719,8.75Z" fill="#d3d3d3"/>
      <path id="Trazado_775995" data-name="Trazado 775995" d="M63.437,5.469A3.282,3.282,0,0,1,66.719,8.75v7.656H3.281V8.75A3.282,3.282,0,0,1,6.563,5.469Z" fill="#2d54fe"/>
      <path id="Trazado_775998" data-name="Trazado 775998" d="M17.5,3.281V8.75a2.187,2.187,0,1,1-4.375,0V3.281a2.187,2.187,0,1,1,4.375,0Z" fill="#fe502d"/>
      <path id="Trazado_775999" data-name="Trazado 775999" d="M56.875,3.281V8.75a2.187,2.187,0,0,1-4.375,0V3.281a2.187,2.187,0,0,1,4.375,0Z" fill="#fe502d"/>
      <path id="Trazado_776001" data-name="Trazado 776001" d="M48.539,49.9l-8.07,8.07H20.234a2.734,2.734,0,1,0,0,5.469H42.656L47.7,58.105l4.244-4.954a2.385,2.385,0,0,0-1.762-3.933,2.32,2.32,0,0,0-1.641.68Z" fill="#2d54fe"/>
      <path id="Trazado_776003" data-name="Trazado 776003" d="M52.326,46.177,22.168,40.858c1.258-7.138,9.03-11.735,17.358-10.266S53.585,39.037,52.326,46.177Z" fill="#fe502d"/>
      <path id="Trazado_776005" data-name="Trazado 776005" d="M30.784,42.378c1.259-7.139,5.173-12.415,8.742-11.786s5.442,6.927,4.184,14.065Z" fill="#ffca00"/>
      <path id="Trazado_776008" data-name="Trazado 776008" d="M63.437,4.375H57.969V3.281a3.281,3.281,0,1,0-6.562,0V4.375H18.594V3.281a3.281,3.281,0,1,0-6.562,0V4.375H6.563A4.381,4.381,0,0,0,2.188,8.75V54.687a4.381,4.381,0,0,0,4.375,4.375h7.656a1.094,1.094,0,1,0,0-2.187H6.563a2.19,2.19,0,0,1-2.187-2.187V17.5h61.25V54.687a2.19,2.19,0,0,1-2.187,2.187H53.594a1.094,1.094,0,1,0,0,2.187h9.844a4.381,4.381,0,0,0,4.375-4.375V8.75A4.381,4.381,0,0,0,63.437,4.375ZM53.594,3.281a1.094,1.094,0,0,1,2.187,0V8.75a1.094,1.094,0,0,1-2.187,0Zm-39.375,0a1.094,1.094,0,1,1,2.187,0V8.75a1.094,1.094,0,1,1-2.187,0ZM65.625,15.312H4.375V8.75A2.19,2.19,0,0,1,6.563,6.562h5.469V8.75a3.281,3.281,0,0,0,6.562,0V6.562H51.406V8.75a3.281,3.281,0,1,0,6.562,0V6.562h5.469A2.19,2.19,0,0,1,65.625,8.75Z"/>
      <path id="Trazado_776009" data-name="Trazado 776009" d="M50.18,48.125a3.392,3.392,0,0,0-2.414,1l-7.75,7.75H36l2.132-12.091c14.943,2.635,14.045,2.486,14.193,2.486a1.094,1.094,0,0,0,1.077-.9c1.306-7.408-4.293-14.665-12.617-16.63l.2-1.109a1.094,1.094,0,0,0-2.154-.38l-.2,1.109c-8.494-1-16.237,3.9-17.543,11.312a1.094,1.094,0,0,0,.887,1.267l14,2.469-2.2,12.47H20.234a3.828,3.828,0,1,0,0,7.656h1.4l-.832,4.16a1.094,1.094,0,0,0,2.145.429l.918-4.59h8.61l-.6,4.222a1.094,1.094,0,0,0,2.166.305l.638-4.528H41.76l.918,4.589a1.094,1.094,0,1,0,2.145-.429l-.983-4.914c5.885-6.224,3.566-3.65,8.933-9.915A3.481,3.481,0,0,0,50.18,48.125Zm-18.106-6.63a19.4,19.4,0,0,1,3.093-7.271c.958-1.292,2.589-2.86,4.168-2.554,1.583.25,2.583,2.274,3.045,3.826a19.393,19.393,0,0,1,.42,7.891L32.074,41.494Zm19.308,3.4-6.429-1.134c.463-3.41.336-7.518-1.133-10.628C48.64,35.534,51.708,40.112,51.382,44.9ZM34.619,31.515c-2.448,2.425-3.969,6.242-4.7,9.6l-6.429-1.134c1.331-4.609,5.779-7.861,11.127-8.466ZM51.406,51.642a1.228,1.228,0,0,1-.3.8c-5.323,6.213-3.287,3.939-8.926,9.9H20.234a1.641,1.641,0,1,1,0-3.281H40.469a1.094,1.094,0,0,0,.773-.32l8.07-8.07a1.229,1.229,0,0,1,2.094.97Z"/>
    </g>
  </g>
</svg>
