<svg xmlns="http://www.w3.org/2000/svg" xmlns:xlink="http://www.w3.org/1999/xlink" width="70" height="70" viewBox="0 0 70 70">
  <defs>
    <clipPath id="clip-path">
      <rect id="Rectángulo_361780" data-name="Rectángulo 361780" width="70" height="70" transform="translate(942 3808)" fill="#fff" stroke="#707070" stroke-width="1"/>
    </clipPath>
  </defs>
  <g id="Enmascarar_grupo_998613" data-name="Enmascarar grupo 998613" transform="translate(-942 -3808)" clip-path="url(#clip-path)">
    <g id="mano" transform="translate(941.942 3808)">
      <path id="Trazado_775987" data-name="Trazado 775987" d="M67.157,31.458a4.085,4.085,0,0,0-5.754.484l-9.349,9.609h.01a4.179,4.179,0,0,0-4.011-3.007H32.568A16.348,16.348,0,0,0,26,37.177c-6.468,0-12.061,3.135-14.732,9.077l12.359,12.3.023-.018,2.128-2.053a5.464,5.464,0,0,1,3.8-1.533H47.794a10.889,10.889,0,0,0,7.594-3.085L67.641,37.212a4.083,4.083,0,0,0-.484-5.754Zm0,0" fill="#fed2a4"/>
      <path id="Trazado_775988" data-name="Trazado 775988" d="M54.433,15.035A13.668,13.668,0,1,1,40.765,1.367,13.668,13.668,0,0,1,54.433,15.035Zm0,0" fill="#ffca00"/>
      <path id="Trazado_775989" data-name="Trazado 775989" d="M23.367,62.112l-6.62,6.521L1.4,53.169l6.5-6.521a2.735,2.735,0,0,1,3.867,0l11.6,11.6a2.734,2.734,0,0,1,0,3.867Zm0,0" fill="#2d54fe"/>
      <path id="Trazado_775990" data-name="Trazado 775990" d="M32.237,47.478a1.368,1.368,0,1,0-1.934,0A1.369,1.369,0,0,0,32.237,47.478Zm0,0"/>
      <path id="Trazado_775991" data-name="Trazado 775991" d="M25.765,15.035A15.035,15.035,0,1,0,40.8,0,15.052,15.052,0,0,0,25.765,15.035Zm27.336,0a12.3,12.3,0,1,1-12.3-12.3A12.315,12.315,0,0,1,53.1,15.035Zm0,0"/>
      <path id="Trazado_775992" data-name="Trazado 775992" d="M15.812,69.6a1.366,1.366,0,0,0,1.929.011l6.627-6.528a4.13,4.13,0,0,0,.973-4.241l1.425-1.375a4.076,4.076,0,0,1,2.846-1.15h18.17a12.238,12.238,0,0,0,8.58-3.486c.1-.092-.722.869,12.4-14.808a5.467,5.467,0,0,0-8.32-7.1l-8.065,8.29a5.493,5.493,0,0,0-4.25-2.035H32.882a17.634,17.634,0,0,0-6.844-1.367c-6.582,0-12.329,3.04-15.413,8.739a4.083,4.083,0,0,0-3.656,1.133L.467,52.2a1.367,1.367,0,0,0,0,1.928ZM26.037,38.544A14.921,14.921,0,0,1,32.055,39.8a1.364,1.364,0,0,0,.548.115H48.124a2.734,2.734,0,1,1,0,5.467H36.972a1.367,1.367,0,1,0,0,2.733H48.124a5.459,5.459,0,0,0,5.419-6.182c7.8-8.02,8.9-9.147,8.949-9.2a2.734,2.734,0,1,1,4.174,3.532L54.407,50.915a9.517,9.517,0,0,1-6.625,2.664H29.612A6.8,6.8,0,0,0,24.867,55.5l-1.162,1.121L13,45.909c2.5-4.695,7.2-7.365,13.04-7.365ZM8.9,47.615a1.363,1.363,0,0,1,1.692-.192c.237.144-.443-.474,11.838,11.79a1.369,1.369,0,0,1,.007,1.926L16.793,66.7,3.363,53.171Zm0,0"/>
      <path id="Trazado_775993" data-name="Trazado 775993" d="M39.125,6.877V8.436A4.1,4.1,0,0,0,40.467,16.4a1.391,1.391,0,0,1,1.383,1.209,1.368,1.368,0,0,1-1.358,1.525,2.455,2.455,0,0,1-1.754-1.009,1.393,1.393,0,0,0-1.759-.325,1.368,1.368,0,0,0-.354,2.059,5.669,5.669,0,0,0,2.5,1.78v1.553a1.4,1.4,0,0,0,1.164,1.395,1.368,1.368,0,0,0,1.57-1.352v-1.6a4.1,4.1,0,0,0-1.342-7.965,1.391,1.391,0,0,1-1.383-1.209,1.368,1.368,0,0,1,1.358-1.525,2.167,2.167,0,0,1,1.446.684,1.4,1.4,0,0,0,1.789.153,1.368,1.368,0,0,0,.145-2.087,5.28,5.28,0,0,0-2.013-1.258V6.834a1.367,1.367,0,0,0-1.57-1.352,1.394,1.394,0,0,0-1.164,1.394Zm0,0"/>
    </g>
  </g>
</svg>
