<svg xmlns="http://www.w3.org/2000/svg" xmlns:xlink="http://www.w3.org/1999/xlink" width="70" height="70" viewBox="0 0 70 70">
  <defs>
    <clipPath id="clip-path">
      <rect id="Rectángulo_361778" data-name="Rectángulo 361778" width="70" height="70" transform="translate(588 3808)" fill="#fff" stroke="#707070" stroke-width="1"/>
    </clipPath>
  </defs>
  <g id="Enmascarar_grupo_998611" data-name="Enmascarar grupo 998611" transform="translate(-588 -3808)" clip-path="url(#clip-path)">
    <g id="interesar" transform="translate(586.881 3806.888)">
      <path id="Trazado_775967" data-name="Trazado 775967" d="M19.394,31.4A14.686,14.686,0,0,0,31.455,19.039L36.12,23.7l18.06-18.06L50.794,2.258H62.082V13.545L58.7,10.159,36.12,32.734l-4.515-4.515L9.03,50.794,4.515,46.279Z" fill="#2d54fe"/>
      <circle id="Elipse_8789" data-name="Elipse 8789" cx="10.159" cy="10.159" r="10.159" transform="translate(48.537 20.318)" fill="#f0ae42"/>
      <path id="Trazado_775968" data-name="Trazado 775968" d="M30.477,45.151h2.258V55.309H30.477Z" fill="#6bc13b"/>
      <path id="Trazado_775969" data-name="Trazado 775969" d="M69.983,44.022v4.515c0,1.87-5.053,3.386-11.288,3.386s-11.288-1.516-11.288-3.386V44.022c0,1.87,5.053,3.386,11.288,3.386S69.983,45.892,69.983,44.022Z" fill="#fad85d"/>
      <path id="Trazado_775970" data-name="Trazado 775970" d="M69.983,48.537v4.515c0,1.87-5.053,3.386-11.288,3.386s-11.288-1.516-11.288-3.386V48.537c0,1.87,5.053,3.386,11.288,3.386S69.983,50.407,69.983,48.537Z" fill="#f6b940"/>
      <path id="Trazado_775971" data-name="Trazado 775971" d="M69.983,53.052v4.515c0,1.87-5.053,3.386-11.288,3.386s-11.288-1.516-11.288-3.386V53.052c0,1.87,5.053,3.386,11.288,3.386S69.983,54.922,69.983,53.052Z" fill="#fad85d"/>
      <path id="Trazado_775972" data-name="Trazado 775972" d="M69.983,57.567v4.515c0,1.87-5.053,3.386-11.288,3.386s-11.288-1.516-11.288-3.386V57.567c0,1.87,5.053,3.386,11.288,3.386S69.983,59.437,69.983,57.567Z" fill="#f6b940"/>
      <path id="Trazado_775973" data-name="Trazado 775973" d="M69.983,62.082V66.6c0,1.87-5.053,3.386-11.288,3.386S47.408,68.467,47.408,66.6V62.082c0,1.87,5.053,3.386,11.288,3.386S69.983,63.952,69.983,62.082Z" fill="#fad85d"/>
      <ellipse id="Elipse_8790" data-name="Elipse 8790" cx="11.288" cy="3.386" rx="11.288" ry="3.386" transform="translate(47.408 40.636)" fill="#fce797"/>
      <path id="Trazado_775974" data-name="Trazado 775974" d="M42.893,57.567v4.515c0,1.87-5.053,3.386-11.288,3.386s-11.288-1.516-11.288-3.386V57.567c0,1.87,5.053,3.386,11.288,3.386S42.893,59.437,42.893,57.567Z" fill="#fad85d"/>
      <path id="Trazado_775975" data-name="Trazado 775975" d="M42.893,62.082V66.6c0,1.87-5.053,3.386-11.288,3.386S20.318,68.467,20.318,66.6V62.082c0,1.87,5.053,3.386,11.288,3.386S42.893,63.952,42.893,62.082Z" fill="#f6b940"/>
      <ellipse id="Elipse_8791" data-name="Elipse 8791" cx="11.288" cy="3.386" rx="11.288" ry="3.386" transform="translate(20.318 54.181)" fill="#fce797"/>
      <path id="Trazado_775976" data-name="Trazado 775976" d="M31.605,48.537l-1.129-1.308a5.787,5.787,0,0,0-9.03,0l1.129,1.308a5.785,5.785,0,0,0,9.03,0Z" fill="#4d8c28"/>
      <path id="Trazado_775977" data-name="Trazado 775977" d="M63.211,28.219V27.09A3.386,3.386,0,0,0,59.825,23.7V22.575H57.567V23.7a3.386,3.386,0,0,0-3.386,3.386v1.129a3.386,3.386,0,0,0,3.386,3.386v3.386a1.129,1.129,0,0,1-1.129-1.129V32.734H54.181v1.129a3.386,3.386,0,0,0,3.386,3.386v1.129h2.258V37.249a3.386,3.386,0,0,0,3.386-3.386V32.734a3.386,3.386,0,0,0-3.386-3.386V25.962a1.129,1.129,0,0,1,1.129,1.129v1.129Zm-2.258,4.515v1.129a1.129,1.129,0,0,1-1.129,1.129V31.605A1.129,1.129,0,0,1,60.953,32.734Zm-3.386-3.386a1.129,1.129,0,0,1-1.129-1.129V27.09a1.129,1.129,0,0,1,1.129-1.129Z" fill="#f9d266"/>
      <circle id="Elipse_8792" data-name="Elipse 8792" cx="14.674" cy="14.674" r="14.674" transform="translate(2.258 2.258)" fill="#fe502d"/>
      <g id="Grupo_1029489" data-name="Grupo 1029489">
        <path id="Trazado_775978" data-name="Trazado 775978" d="M20.746,9.731,9.731,20.746a2.394,2.394,0,0,0,3.386,3.386L24.132,13.117a2.394,2.394,0,0,0-3.386-3.386Z" fill="#ffca00"/>
        <circle id="Elipse_8793" data-name="Elipse 8793" cx="2.258" cy="2.258" r="2.258" transform="translate(9.03 9.03)" fill="#ffca00"/>
        <circle id="Elipse_8794" data-name="Elipse 8794" cx="2.258" cy="2.258" r="2.258" transform="translate(20.318 20.318)" fill="#ffca00"/>
      </g>
      <path id="Trazado_775979" data-name="Trazado 775979" d="M31.605,45.175l2.258-2.549a5.883,5.883,0,0,1,9.03,0l-2.258,2.549a5.882,5.882,0,0,1-9.03,0Z" fill="#559b2d"/>
      <path id="Trazado_775980" data-name="Trazado 775980" d="M64.7,40.017a11.288,11.288,0,1,0-12.012,0c-3.614.656-6.41,1.962-6.41,4V66.6c0,3.1,6.434,4.515,12.416,4.515S71.112,69.7,71.112,66.6V44.022C71.112,41.979,68.316,40.673,64.7,40.017Zm-15.036-9.54a9.03,9.03,0,1,1,9.03,9.03A9.03,9.03,0,0,1,49.666,30.477ZM58.7,41.764c6.6,0,9.988,1.648,10.159,2.241-.17.626-3.554,2.274-10.159,2.274-6.547,0-9.933-1.62-10.159-2.258C48.763,43.384,52.149,41.764,58.7,41.764Zm-10.159,5c2.4,1.21,6.37,1.774,10.159,1.774s7.758-.57,10.159-1.776V48.52c-.17.626-3.554,2.274-10.159,2.274s-9.988-1.648-10.159-2.258Zm0,4.515c2.4,1.21,6.37,1.774,10.159,1.774s7.758-.57,10.159-1.776v1.759c-.17.626-3.554,2.274-10.159,2.274s-9.988-1.648-10.159-2.258Zm0,4.515c2.4,1.21,6.37,1.774,10.159,1.774s7.758-.57,10.159-1.776V57.55c-.17.626-3.554,2.274-10.159,2.274s-9.988-1.648-10.159-2.258Zm0,4.515c2.4,1.21,6.37,1.774,10.159,1.774s7.758-.57,10.159-1.776v1.759c-.17.626-3.554,2.274-10.159,2.274s-9.988-1.648-10.159-2.258ZM58.7,68.855c-6.6,0-9.988-1.648-10.159-2.258V64.823c2.4,1.21,6.37,1.774,10.159,1.774s7.758-.57,10.159-1.776V66.58C68.684,67.207,65.3,68.855,58.7,68.855Z"/>
      <path id="Trazado_775981" data-name="Trazado 775981" d="M36.12,48.417a7.118,7.118,0,0,0,5.361-2.492l2.258-2.55a1.129,1.129,0,0,0,0-1.5,7.013,7.013,0,0,0-10.723,0l-2.258,2.549a1.129,1.129,0,0,0-.281.724v.589a6.885,6.885,0,0,0-4.515-1.718,7.048,7.048,0,0,0-5.37,2.56,1.129,1.129,0,0,0,0,1.474l1.129,1.307a7.048,7.048,0,0,0,5.37,2.56,6.766,6.766,0,0,0,3.386-.918v2.063c-5.634.167-11.288,1.59-11.288,4.5V66.6c0,3.1,6.434,4.515,12.416,4.515S44.022,69.7,44.022,66.6v-9.03c0-2.908-5.654-4.331-11.288-4.5V47.521a6.9,6.9,0,0,0,3.386.9Zm-1.412-5.042a4.884,4.884,0,0,1,3.67-1.73,4.741,4.741,0,0,1,2.949,1.047L39.79,44.427a4.883,4.883,0,0,1-3.67,1.733,4.741,4.741,0,0,1-2.949-1.05ZM27.09,49.666a4.827,4.827,0,0,1-3.661-1.777l-.439-.508a4.653,4.653,0,0,1,2.971-1.1,4.827,4.827,0,0,1,3.661,1.777l.439.508A4.653,4.653,0,0,1,27.09,49.666ZM21.447,60.308c2.4,1.21,6.37,1.774,10.159,1.774s7.758-.57,10.159-1.776v1.759c-.17.626-3.554,2.274-10.159,2.274s-9.988-1.648-10.159-2.258Zm10.159,8.547c-6.6,0-9.988-1.648-10.159-2.258V64.823c2.4,1.21,6.37,1.774,10.159,1.774s7.758-.57,10.159-1.776V66.58C41.594,67.207,38.21,68.855,31.605,68.855Zm10.159-11.3c-.17.626-3.554,2.274-10.159,2.274-6.547,0-9.933-1.62-10.159-2.258.226-.638,3.612-2.258,10.159-2.258C38.21,55.309,41.594,56.957,41.764,57.55Z"/>
      <path id="Trazado_775982" data-name="Trazado 775982" d="M59.825,23.7V22.575H57.567V23.7a3.386,3.386,0,0,0-3.386,3.386v1.129a3.386,3.386,0,0,0,3.386,3.386v3.386a1.129,1.129,0,0,1-1.129-1.129V32.734H54.181v1.129a3.386,3.386,0,0,0,3.386,3.386v1.129h2.258V37.249a3.386,3.386,0,0,0,3.386-3.386V32.734a3.386,3.386,0,0,0-3.386-3.386V25.962a1.129,1.129,0,0,1,1.129,1.129v1.129h2.258V27.09A3.386,3.386,0,0,0,59.825,23.7Zm1.129,9.03v1.129a1.129,1.129,0,0,1-1.129,1.129V31.605A1.129,1.129,0,0,1,60.953,32.734Zm-3.386-3.386a1.129,1.129,0,0,1-1.129-1.129V27.09a1.129,1.129,0,0,1,1.129-1.129Z"/>
      <path id="Trazado_775983" data-name="Trazado 775983" d="M35.322,33.532a1.129,1.129,0,0,0,1.6,0L58.7,11.755l2.588,2.588a1.129,1.129,0,0,0,1.927-.8V2.258a1.129,1.129,0,0,0-1.129-1.129H50.794A1.129,1.129,0,0,0,50,3.056l2.588,2.588L36.12,22.108l-3.481-3.483A15.8,15.8,0,1,0,16.487,32.712L3.717,45.481a1.129,1.129,0,0,0,0,1.6l4.515,4.515a1.129,1.129,0,0,0,1.6,0L31.605,29.815ZM3.386,16.931A13.545,13.545,0,1,1,16.931,30.477,13.545,13.545,0,0,1,3.386,16.931ZM9.03,49.2,6.111,46.279,19.953,32.437A15.841,15.841,0,0,0,32.109,21.289L35.322,24.5a1.129,1.129,0,0,0,1.6,0l18.06-18.06a1.129,1.129,0,0,0,0-1.6L53.519,3.386h7.434V10.82L59.494,9.361a1.129,1.129,0,0,0-1.6,0L36.12,31.138,32.4,27.421a1.129,1.129,0,0,0-1.6,0Z"/>
      <path id="Trazado_775984" data-name="Trazado 775984" d="M25.962,11.424a3.523,3.523,0,0,0-6.014-2.491L8.933,19.948a3.523,3.523,0,0,0,4.982,4.982L24.93,13.915a3.547,3.547,0,0,0,1.032-2.491Zm-2.628.9L12.319,23.334a1.265,1.265,0,0,1-2.16-.9,1.279,1.279,0,0,1,.37-.9L21.544,10.529a1.265,1.265,0,0,1,2.16.9,1.279,1.279,0,0,1-.37.9Z"/>
      <path id="Trazado_775985" data-name="Trazado 775985" d="M11.288,14.674A3.386,3.386,0,1,0,7.9,11.288,3.386,3.386,0,0,0,11.288,14.674Zm0-4.515a1.129,1.129,0,1,1-1.129,1.129A1.129,1.129,0,0,1,11.288,10.159Z"/>
      <path id="Trazado_775986" data-name="Trazado 775986" d="M22.575,19.189a3.386,3.386,0,1,0,3.386,3.386A3.386,3.386,0,0,0,22.575,19.189Zm0,4.515A1.129,1.129,0,1,1,23.7,22.575,1.129,1.129,0,0,1,22.575,23.7Z"/>
    </g>
  </g>
</svg>
