<svg xmlns="http://www.w3.org/2000/svg" xmlns:xlink="http://www.w3.org/1999/xlink" width="70" height="70" viewBox="0 0 70 70">
  <defs>
    <clipPath id="clip-path">
      <rect id="Rectángulo_361776" data-name="Rectángulo 361776" width="70" height="70" transform="translate(234 3808)" fill="#fff" stroke="#707070" stroke-width="1"/>
    </clipPath>
  </defs>
  <g id="Enmascarar_grupo_998609" data-name="Enmascarar grupo 998609" transform="translate(-234 -3808)" clip-path="url(#clip-path)">
    <g id="dinero-en-efectivo" transform="translate(232.871 3806.871)">
      <g id="Grupo_1029476" data-name="Grupo 1029476">
        <g id="Grupo_1029459" data-name="Grupo 1029459">
          <path id="Trazado_775928" data-name="Trazado 775928" d="M2.258,58.71H33.871v4.516H2.258Z" fill="#a0d468"/>
        </g>
        <g id="Grupo_1029460" data-name="Grupo 1029460">
          <path id="Trazado_775929" data-name="Trazado 775929" d="M38.387,58.71H70v4.516H38.387Z" fill="#a0d468"/>
        </g>
        <g id="Grupo_1029461" data-name="Grupo 1029461">
          <path id="Trazado_775930" data-name="Trazado 775930" d="M38.387,63.226H70v4.516H38.387Z" fill="#b4dd7f"/>
        </g>
        <g id="Grupo_1029462" data-name="Grupo 1029462">
          <path id="Trazado_775931" data-name="Trazado 775931" d="M2.258,63.226H33.871v4.516H2.258Z" fill="#b4dd7f"/>
        </g>
        <g id="Grupo_1029463" data-name="Grupo 1029463">
          <path id="Trazado_775932" data-name="Trazado 775932" d="M33.871,58.484v.226H2.258V36.129H22.581v5.645a3.37,3.37,0,0,0,2.506,3.263,11.841,11.841,0,0,0-.248,2.382A11.3,11.3,0,0,0,33.871,58.484Z" fill="#b4dd7f"/>
        </g>
        <g id="Grupo_1029464" data-name="Grupo 1029464">
          <path id="Trazado_775933" data-name="Trazado 775933" d="M70,36.129V58.71H38.387v-.226a11.3,11.3,0,0,0,9.032-11.065,11.841,11.841,0,0,0-.248-2.382,3.37,3.37,0,0,0,2.506-3.263V36.129Z" fill="#b4dd7f"/>
        </g>
        <g id="Grupo_1029465" data-name="Grupo 1029465">
          <circle id="Elipse_8785" data-name="Elipse 8785" cx="11.29" cy="11.29" r="11.29" transform="translate(47.419 9.032)" fill="#ffca00"/>
        </g>
        <g id="Grupo_1029466" data-name="Grupo 1029466">
          <circle id="Elipse_8786" data-name="Elipse 8786" cx="11.29" cy="11.29" r="11.29" transform="translate(24.839 2.258)" fill="#ffca00"/>
        </g>
        <g id="Grupo_1029467" data-name="Grupo 1029467">
          <circle id="Elipse_8787" data-name="Elipse 8787" cx="11.29" cy="11.29" r="11.29" transform="translate(2.258 9.032)" fill="#ffca00"/>
        </g>
        <g id="Grupo_1029468" data-name="Grupo 1029468">
          <path id="Trazado_775934" data-name="Trazado 775934" d="M33.871,40.927V58.484a11.3,11.3,0,0,1-9.032-11.065,11.841,11.841,0,0,1,.248-2.382,3.254,3.254,0,0,0,.881.124h.158a3.387,3.387,0,0,0,1.8-.519Z" fill="#ffca00"/>
        </g>
        <g id="Grupo_1029469" data-name="Grupo 1029469">
          <path id="Trazado_775935" data-name="Trazado 775935" d="M47.171,45.037a11.841,11.841,0,0,1,.248,2.382,11.3,11.3,0,0,1-9.032,11.065V40.927l5.95,3.715a3.387,3.387,0,0,0,1.8.519h.158A3.253,3.253,0,0,0,47.171,45.037Z" fill="#ffca00"/>
        </g>
        <g id="Grupo_1029470" data-name="Grupo 1029470">
          <path id="Trazado_775936" data-name="Trazado 775936" d="M38.387,58.484V68.871A1.132,1.132,0,0,1,37.258,70H35a1.132,1.132,0,0,1-1.129-1.129V40.927l.011-.011a3.371,3.371,0,0,0,4.494,0l.011.011Z" fill="#fe502d"/>
        </g>
        <g id="Grupo_1029471" data-name="Grupo 1029471">
          <path id="Trazado_775937" data-name="Trazado 775937" d="M27.921,44.642a3.387,3.387,0,0,1-1.8.519h-.158a3.254,3.254,0,0,1-.881-.124,3.383,3.383,0,0,1,.881-6.65h6.774A3.32,3.32,0,0,0,33.871,40.9v.023Z" fill="#fe502d"/>
        </g>
        <g id="Grupo_1029472" data-name="Grupo 1029472">
          <path id="Trazado_775938" data-name="Trazado 775938" d="M47.171,45.037a3.253,3.253,0,0,1-.881.124h-.158a3.387,3.387,0,0,1-1.8-.519l-5.95-3.715V40.9a3.32,3.32,0,0,0,1.129-2.518H46.29a3.383,3.383,0,0,1,.881,6.65Z" fill="#fe502d"/>
        </g>
        <g id="Grupo_1029473" data-name="Grupo 1029473">
          <path id="Trazado_775939" data-name="Trazado 775939" d="M25.968,38.387a3.383,3.383,0,0,0-3.387,3.387V35a3.383,3.383,0,0,1,3.387-3.387h.158a3.387,3.387,0,0,1,1.8.519l5.961,3.726a3.354,3.354,0,0,0-1.14,2.529Z" fill="#fe502d"/>
        </g>
        <g id="Grupo_1029474" data-name="Grupo 1029474">
          <path id="Trazado_775940" data-name="Trazado 775940" d="M49.677,36.129v5.645a3.383,3.383,0,0,0-3.387-3.387H39.516a3.354,3.354,0,0,0-1.14-2.529l.011-.011,5.95-3.715a3.387,3.387,0,0,1,1.8-.519h.158A3.383,3.383,0,0,1,49.677,35Z" fill="#fe502d"/>
        </g>
        <g id="Grupo_1029475" data-name="Grupo 1029475">
          <path id="Trazado_775941" data-name="Trazado 775941" d="M38.376,35.858a3.354,3.354,0,0,1,1.14,2.529A3.32,3.32,0,0,1,38.387,40.9a.011.011,0,0,1-.011.011,3.371,3.371,0,0,1-4.494,0,.011.011,0,0,1-.011-.011,3.32,3.32,0,0,1-1.129-2.518,3.383,3.383,0,0,1,5.634-2.529Z" fill="#e9573f"/>
        </g>
      </g>
      <g id="Grupo_1029477" data-name="Grupo 1029477">
        <path id="Trazado_775942" data-name="Trazado 775942" d="M36.129,16.935A1.129,1.129,0,0,1,35,15.806H32.742A3.382,3.382,0,0,0,35,18.986v2.466h2.258V18.986a3.379,3.379,0,0,0-1.129-6.566,1.129,1.129,0,1,1,1.129-1.129h2.258a3.382,3.382,0,0,0-2.258-3.179V5.645H35V8.111a3.379,3.379,0,0,0,1.129,6.566,1.129,1.129,0,0,1,0,2.258Z"/>
        <path id="Trazado_775943" data-name="Trazado 775943" d="M58.71,23.71a1.129,1.129,0,0,1-1.129-1.129H55.323a3.382,3.382,0,0,0,2.258,3.179v2.466h2.258V25.76a3.379,3.379,0,0,0-1.129-6.566,1.129,1.129,0,1,1,1.129-1.129H62.1a3.382,3.382,0,0,0-2.258-3.179V12.419H57.581v2.466a3.379,3.379,0,0,0,1.129,6.566,1.129,1.129,0,1,1,0,2.258Z"/>
        <path id="Trazado_775944" data-name="Trazado 775944" d="M13.548,23.71a1.129,1.129,0,0,1-1.129-1.129H10.161a3.382,3.382,0,0,0,2.258,3.179v2.466h2.258V25.76a3.379,3.379,0,0,0-1.129-6.566,1.129,1.129,0,1,1,1.129-1.129h2.258a3.382,3.382,0,0,0-2.258-3.179V12.419H12.419v2.466a3.379,3.379,0,0,0,1.129,6.566,1.129,1.129,0,0,1,0,2.258Z"/>
        <path id="Trazado_775945" data-name="Trazado 775945" d="M13.548,32.742a12.427,12.427,0,0,0,12.4-12.1,12.39,12.39,0,0,0,20.354,0,12.427,12.427,0,1,0,2.226-7.418,12.407,12.407,0,0,0-24.807,0A12.414,12.414,0,1,0,13.548,32.742ZM58.71,10.161A10.161,10.161,0,1,1,48.548,20.323,10.172,10.172,0,0,1,58.71,10.161ZM36.129,3.387A10.161,10.161,0,1,1,25.968,13.548,10.172,10.172,0,0,1,36.129,3.387ZM13.548,10.161A10.161,10.161,0,1,1,3.387,20.323,10.172,10.172,0,0,1,13.548,10.161Z"/>
        <path id="Trazado_775946" data-name="Trazado 775946" d="M46.29,30.484h-.158a4.512,4.512,0,0,0-2.394.686L38.4,34.507a4.379,4.379,0,0,0-4.544,0L28.519,31.17a4.512,4.512,0,0,0-2.394-.686h-.158A4.521,4.521,0,0,0,21.452,35H1.129V68.871H32.742A2.26,2.26,0,0,0,35,71.129h2.258a2.26,2.26,0,0,0,2.258-2.258H71.129V35H50.806A4.521,4.521,0,0,0,46.29,30.484Zm0,16.935a10.191,10.191,0,0,1-6.774,9.573V42.965L43.739,45.6a4.512,4.512,0,0,0,2.394.686h.094A10.43,10.43,0,0,1,46.29,47.419ZM39.516,59.839H68.871V62.1H39.516ZM46.29,44.032h-.158a2.257,2.257,0,0,1-1.2-.343l-4.907-3.066a4.473,4.473,0,0,0,.456-1.106H46.29a2.258,2.258,0,0,1,0,4.516ZM44.937,33.085a2.251,2.251,0,0,1,1.2-.343h.158A2.26,2.26,0,0,1,48.548,35v2.886a4.47,4.47,0,0,0-2.258-.628H40.485a4.513,4.513,0,0,0-.455-1.106Zm-8.808,3.044a2.258,2.258,0,1,1-2.258,2.258,2.26,2.26,0,0,1,2.258-2.258Zm-4.356,3.387a4.473,4.473,0,0,0,.456,1.106l-4.907,3.066a2.257,2.257,0,0,1-1.2.343h-.158a2.258,2.258,0,0,1,0-4.516ZM26.032,46.29h.094a4.512,4.512,0,0,0,2.394-.686l4.223-2.64V56.991a10.191,10.191,0,0,1-6.774-9.573,10.426,10.426,0,0,1,.064-1.128Zm-.064-13.548h.158a2.257,2.257,0,0,1,1.2.343l4.907,3.068a4.452,4.452,0,0,0-.455,1.106H25.968a4.47,4.47,0,0,0-2.258.628V35A2.26,2.26,0,0,1,25.968,32.742Zm-4.516,4.516v4.516a4.5,4.5,0,0,0,2.386,3.957,12.247,12.247,0,0,0,5.17,11.849H3.387V37.258Zm11.29,22.581V62.1H3.387V59.839ZM3.387,66.613V64.355H32.742v2.258ZM35,68.871V42.743a4.056,4.056,0,0,0,2.258,0V68.871Zm4.516-2.258V64.355H68.871v2.258ZM68.871,37.258V57.581H43.251a12.247,12.247,0,0,0,5.17-11.849,4.5,4.5,0,0,0,2.386-3.957V37.258Z"/>
        <path id="Trazado_775947" data-name="Trazado 775947" d="M7.9,41.774h2.258V39.516H5.645v4.516H7.9Z"/>
        <path id="Trazado_775948" data-name="Trazado 775948" d="M10.161,53.065H7.9V50.806H5.645v4.516h4.516Z"/>
        <path id="Trazado_775949" data-name="Trazado 775949" d="M64.355,44.032h2.258V39.516H62.1v2.258h2.258Z"/>
        <path id="Trazado_775950" data-name="Trazado 775950" d="M66.613,50.806H64.355v2.258H62.1v2.258h4.516Z"/>
      </g>
    </g>
  </g>
</svg>
