<svg xmlns="http://www.w3.org/2000/svg" xmlns:xlink="http://www.w3.org/1999/xlink" width="125" height="125" viewBox="0 0 125 125">
  <defs>
    <clipPath id="clip-path">
      <rect id="Rectángulo_361826" data-name="Rectángulo 361826" width="85" height="85" transform="translate(495 4805)" fill="#fe502d"/>
    </clipPath>
  </defs>
  <g id="Grupo_1029812" data-name="Grupo 1029812" transform="translate(-475 -4821)">
    <circle id="Elipse_8862" data-name="Elipse 8862" cx="62.5" cy="62.5" r="62.5" transform="translate(475 4821)" fill="#fe502d"/>
    <g id="Enmascarar_grupo_998658" data-name="Enmascarar grupo 998658" transform="translate(0 40)" clip-path="url(#clip-path)">
      <g id="_23-Training" data-name="23-Training" transform="translate(492.167 4802.167)">
        <rect id="Rectángulo_361828" data-name="Rectángulo 361828" width="53.833" height="5.667" transform="translate(32.583 4.25)" fill="#64b5f6"/>
        <rect id="Rectángulo_361829" data-name="Rectángulo 361829" width="7.083" height="5.667" transform="translate(79.333 4.25)" fill="#42a5f5"/>
        <path id="Trazado_776502" data-name="Trazado 776502" d="M36.833,9.917H82.167V41.083a2.833,2.833,0,0,1-2.833,2.833H39.667a2.833,2.833,0,0,1-2.833-2.833Z" fill="#eee"/>
        <path id="Trazado_776503" data-name="Trazado 776503" d="M82.167,9.917V41.083a2.842,2.842,0,0,1-2.833,2.833H39.667a2.842,2.842,0,0,1-2.833-2.833V39.667H72.25a2.842,2.842,0,0,0,2.833-2.833V9.917Z" fill="#e0e0e0"/>
        <path id="Trazado_776504" data-name="Trazado 776504" d="M49.583,75.083h-8.5A7.083,7.083,0,0,0,34,82.167v4.25H56.667v-4.25A7.083,7.083,0,0,0,49.583,75.083Z" fill="#ffb74d"/>
        <circle id="Elipse_8857" data-name="Elipse 8857" cx="7.083" cy="7.083" r="7.083" transform="translate(38.25 60.917)" fill="#ffccbc"/>
        <path id="Trazado_776505" data-name="Trazado 776505" d="M21.25,75.083h-8.5a7.083,7.083,0,0,0-7.083,7.083v4.25H28.333v-4.25A7.083,7.083,0,0,0,21.25,75.083Z" fill="#ffb74d"/>
        <circle id="Elipse_8858" data-name="Elipse 8858" cx="7.083" cy="7.083" r="7.083" transform="translate(9.917 60.917)" fill="#ffccbc"/>
        <path id="Trazado_776506" data-name="Trazado 776506" d="M77.917,75.083h-8.5a7.083,7.083,0,0,0-7.083,7.083v4.25H85v-4.25A7.083,7.083,0,0,0,77.917,75.083Z" fill="#ffb74d"/>
        <path id="Trazado_776507" data-name="Trazado 776507" d="M85,82.167v4.25H62.333v-4.25H73.669a2.972,2.972,0,0,0,2.217-4.976l-.038-.039a7.114,7.114,0,0,0-5.015-2.068h7.083A7.083,7.083,0,0,1,85,82.167Z" fill="#ffa726"/>
        <path id="Trazado_776508" data-name="Trazado 776508" d="M56.667,82.167v4.25H34v-4.25H45.336a2.972,2.972,0,0,0,2.217-4.976l-.038-.039A7.114,7.114,0,0,0,42.5,75.083h7.083A7.083,7.083,0,0,1,56.667,82.167Z" fill="#ffa726"/>
        <path id="Trazado_776509" data-name="Trazado 776509" d="M28.333,82.167v4.25H5.667v-4.25H17A2.972,2.972,0,0,0,19.22,77.19l-.038-.039a7.114,7.114,0,0,0-5.015-2.068H21.25A7.083,7.083,0,0,1,28.333,82.167Z" fill="#ffa726"/>
        <circle id="Elipse_8859" data-name="Elipse 8859" cx="7.083" cy="7.083" r="7.083" transform="translate(66.583 60.917)" fill="#ffccbc"/>
        <path id="Trazado_776510" data-name="Trazado 776510" d="M80.75,68a7.086,7.086,0,0,1-7.083,7.083,7,7,0,0,1-4.25-1.417,7.083,7.083,0,0,0,4.25-12.75A7.086,7.086,0,0,1,80.75,68Z" fill="#ffab91"/>
        <path id="Trazado_776511" data-name="Trazado 776511" d="M52.417,68a7.086,7.086,0,0,1-7.083,7.083,7,7,0,0,1-4.25-1.417,7.083,7.083,0,0,0,4.25-12.75A7.086,7.086,0,0,1,52.417,68Z" fill="#ffab91"/>
        <path id="Trazado_776512" data-name="Trazado 776512" d="M24.083,68A7.086,7.086,0,0,1,17,75.083a7,7,0,0,1-4.25-1.417A7.083,7.083,0,0,0,17,60.917,7.086,7.086,0,0,1,24.083,68Z" fill="#ffab91"/>
        <circle id="Elipse_8860" data-name="Elipse 8860" cx="7.083" cy="7.083" r="7.083" transform="translate(11.333 7.083)" fill="#ffccbc"/>
        <path id="Trazado_776513" data-name="Trazado 776513" d="M4.25,28.333v12.75a2.833,2.833,0,0,0,2.833,2.833H9.917v8.5h17v-25.5H38.25a2.833,2.833,0,0,0,2.833-2.833h0A2.833,2.833,0,0,0,38.25,21.25H11.333A7.083,7.083,0,0,0,4.25,28.333Z" fill="#64b5f6"/>
        <path id="Trazado_776514" data-name="Trazado 776514" d="M38.1,21.25H34a2.833,2.833,0,0,1-2.833,2.833H25.5a5.667,5.667,0,0,0-5.667,5.667V42.5a5.667,5.667,0,0,1-5.667,5.667H9.917v4.25h17v-25.5H38.25a2.835,2.835,0,0,0,2.795-3.309A2.939,2.939,0,0,0,38.1,21.25Z" fill="#42a5f5"/>
        <circle id="Elipse_8861" data-name="Elipse 8861" cx="4.25" cy="4.25" r="4.25" transform="translate(55.25 51)" fill="#64b5f6"/>
        <path id="Trazado_776515" data-name="Trazado 776515" d="M63.75,55.25A4.244,4.244,0,0,1,59.5,59.5a4.2,4.2,0,0,1-3.258-1.53A4.255,4.255,0,0,0,59.5,53.833a4.192,4.192,0,0,0-.992-2.72A4.628,4.628,0,0,1,59.5,51a4.244,4.244,0,0,1,4.25,4.25Z" fill="#42a5f5"/>
        <path id="Trazado_776516" data-name="Trazado 776516" d="M25.5,14.167a7.086,7.086,0,0,1-7.083,7.083,7,7,0,0,1-4.25-1.417,7.083,7.083,0,0,0,4.25-12.75A7.086,7.086,0,0,1,25.5,14.167Z" fill="#ffab91"/>
        <path id="Trazado_776517" data-name="Trazado 776517" d="M86.417,2.833H32.583A1.416,1.416,0,0,0,31.167,4.25V9.917a1.416,1.416,0,0,0,1.417,1.417h2.833v4.25a1.417,1.417,0,0,0,2.833,0v-4.25h42.5v29.75A1.418,1.418,0,0,1,79.333,42.5H39.667a1.418,1.418,0,0,1-1.417-1.417v-8.5a1.417,1.417,0,0,0-2.833,0v8.5a4.255,4.255,0,0,0,4.25,4.25H58.083v5.928a4.25,4.25,0,1,0,2.833,0V45.333H79.333a4.255,4.255,0,0,0,4.25-4.25V11.333h2.833a1.416,1.416,0,0,0,1.417-1.417V4.25a1.416,1.416,0,0,0-1.417-1.417ZM59.5,56.667a1.417,1.417,0,1,1,1.417-1.417A1.417,1.417,0,0,1,59.5,56.667ZM85,8.5H34V5.667H85ZM51.456,73.881a8.5,8.5,0,1,0-12.245,0,8.51,8.51,0,0,0-6.627,8.285v4.25a1.417,1.417,0,0,0,2.833,0v-4.25A5.672,5.672,0,0,1,41.083,76.5h8.5a5.672,5.672,0,0,1,5.667,5.667v4.25a1.417,1.417,0,0,0,2.833,0v-4.25a8.51,8.51,0,0,0-6.627-8.285ZM45.333,62.333A5.667,5.667,0,1,1,39.667,68a5.667,5.667,0,0,1,5.667-5.667ZM23.123,73.881a8.5,8.5,0,1,0-12.245,0A8.509,8.509,0,0,0,4.25,82.167v4.25a1.417,1.417,0,0,0,2.833,0v-4.25A5.672,5.672,0,0,1,12.75,76.5h8.5a5.672,5.672,0,0,1,5.667,5.667v4.25a1.417,1.417,0,0,0,2.833,0v-4.25a8.51,8.51,0,0,0-6.627-8.285ZM17,62.333A5.667,5.667,0,1,1,11.333,68,5.667,5.667,0,0,1,17,62.333ZM79.789,73.881a8.5,8.5,0,1,0-12.245,0,8.509,8.509,0,0,0-6.627,8.285v4.25a1.417,1.417,0,0,0,2.833,0v-4.25A5.672,5.672,0,0,1,69.417,76.5h8.5a5.672,5.672,0,0,1,5.667,5.667v4.25a1.417,1.417,0,0,0,2.833,0v-4.25a8.51,8.51,0,0,0-6.627-8.285ZM73.667,62.333A5.667,5.667,0,1,1,68,68a5.667,5.667,0,0,1,5.667-5.667ZM8.5,45.333v7.083a1.417,1.417,0,1,0,2.833,0V32.583a1.417,1.417,0,0,0-2.833,0V42.5H7.083a1.418,1.418,0,0,1-1.417-1.417V28.333a5.672,5.672,0,0,1,5.667-5.667H38.25a1.417,1.417,0,0,1,0,2.833H26.917A1.416,1.416,0,0,0,25.5,26.917v25.5a1.417,1.417,0,1,0,2.833,0V28.333H38.25a4.25,4.25,0,0,0,0-8.5H24.734a8.5,8.5,0,1,0-12.635,0h-.766a8.509,8.509,0,0,0-8.5,8.5v12.75a4.255,4.255,0,0,0,4.25,4.25Zm4.25-31.167a5.667,5.667,0,1,1,5.667,5.667A5.667,5.667,0,0,1,12.75,14.167ZM18.417,42.5a1.416,1.416,0,0,1,1.417,1.417v8.5a1.417,1.417,0,1,1-2.833,0v-8.5A1.416,1.416,0,0,1,18.417,42.5ZM75.083,18.417a1.416,1.416,0,0,1-1.417,1.417H45.333a1.417,1.417,0,1,1,0-2.833H73.667a1.416,1.416,0,0,1,1.417,1.417Zm0,8.5a1.416,1.416,0,0,1-1.417,1.417H59.5a1.417,1.417,0,1,1,0-2.833H73.667a1.416,1.416,0,0,1,1.417,1.417Zm-31.167,0A1.416,1.416,0,0,1,45.333,25.5h8.5a1.417,1.417,0,1,1,0,2.833h-8.5a1.416,1.416,0,0,1-1.417-1.417Zm0,8.5A1.416,1.416,0,0,1,45.333,34H73.667a1.417,1.417,0,0,1,0,2.833H45.333a1.416,1.416,0,0,1-1.417-1.417Z"/>
      </g>
    </g>
  </g>
</svg>
