<svg xmlns="http://www.w3.org/2000/svg" xmlns:xlink="http://www.w3.org/1999/xlink" width="85" height="85" viewBox="0 0 85 85">
  <defs>
    <clipPath id="clip-path">
      <rect id="Rectángulo_361715" data-name="Rectángulo 361715" width="85" height="85" transform="translate(758 531)" fill="#fff"/>
    </clipPath>
    <clipPath id="clip-path-2">
      <path id="path1509" d="M0-85H85V0H0Z"/>
    </clipPath>
  </defs>
  <g id="Enmascarar_grupo_998600" data-name="Enmascarar grupo 998600" transform="translate(-758 -531)" clip-path="url(#clip-path)">
    <g id="g1503" transform="translate(758 616)">
      <g id="g1505">
        <g id="g1507" clip-path="url(#clip-path-2)">
          <g id="g1513" transform="translate(21.383 -65.655)">
            <path id="path1515" d="M0,0V18.185a8.243,8.243,0,0,0,8.243,8.243H22.7a8.243,8.243,0,0,0,8.243-8.243V0a6.3,6.3,0,0,0-6.3-6.3H6.3A6.3,6.3,0,0,0,0,0" fill="#fa9801"/>
          </g>
          <g id="g1517" transform="translate(46.027 -71.955)">
            <path id="path1519" d="M0,0H-.17A14.2,14.2,0,0,1,.379,3.909V24.485a8.243,8.243,0,0,1-8.243,8.243h5.921A8.243,8.243,0,0,0,6.3,24.485V6.3A6.3,6.3,0,0,0,0,0" fill="#f88604"/>
          </g>
          <g id="g1521" transform="translate(56.198 -26.153)">
            <path id="path1523" d="M0,0H-39.524L-43.94,4.206v12.2H5.254V4.206Z" fill="#fff0dc"/>
          </g>
          <g id="g1525" transform="translate(56.198 -26.153)">
            <path id="path1527" d="M0,0H-.667V16.405H5.254V4.206Z" fill="#ffddce"/>
          </g>
          <g id="g1529" transform="translate(54.268 -42.511)">
            <path id="path1531" d="M0,0-11.442-2.688v-8.128H-23.385v8.128L-34.827,0a8.993,8.993,0,0,0-7.184,8.847V20.564h7.46a3.021,3.021,0,0,1,3.021,3.021v9.178H-3.3V23.585A3.021,3.021,0,0,1-.276,20.564h7.46V8.847A8.993,8.993,0,0,0,0,0" fill="#fff0dc"/>
          </g>
          <g id="g1533" transform="translate(54.268 -42.511)">
            <path id="path1535" d="M0,0-11.442-2.688v-8.127h-5.921v8.8a3.54,3.54,0,0,0,2.73,3.446l8.712,2.046a8.994,8.994,0,0,1,7.184,8.847v8.244H7.184V8.847A8.993,8.993,0,0,0,0,0" fill="#ffddce"/>
          </g>
          <g id="g1537" transform="translate(54.268 -42.511)">
            <path id="path1539" d="M0,0-5.888-1.383c-1.995,3.744-6.4,6.348-11.525,6.348s-9.531-2.6-11.526-6.348L-34.827,0a8.993,8.993,0,0,0-7.184,8.847V20.564h7.46a3.021,3.021,0,0,1,3.021,3.021v9.178H-3.3V23.585A3.021,3.021,0,0,1-.276,20.564h7.46V8.847A8.993,8.993,0,0,0,0,0" fill="#fc90d2"/>
          </g>
          <g id="g1541" transform="translate(54.268 -42.511)">
            <path id="path1543" d="M0,0-5.888-1.383a11.324,11.324,0,0,1-3.665,4l3.632.853a8.994,8.994,0,0,1,7.184,8.847v8.244H7.184V8.847A8.993,8.993,0,0,0,0,0" fill="#fb74c4"/>
          </g>
          <g id="g1545" transform="translate(25.837 -59.239)">
            <path id="path1547" d="M0,0A10.306,10.306,0,0,0,3.494,7.611c1.778,1.531,4.278,4.393,7.58,4.43,3.3-.037,5.8-2.9,7.579-4.43A10.306,10.306,0,0,0,22.146,0l.016-14.648H-.124Z" fill="#fff0dc"/>
          </g>
          <g id="g1549" transform="translate(42.075 -73.886)">
            <path id="path1551" d="M0,0-.012,17.579a10.306,10.306,0,0,1-3.494,7.611c-.495.426-1.046.956-1.654,1.5,3.3-.039,5.8-2.9,7.576-4.43a10.306,10.306,0,0,0,3.494-7.611L5.925,0Z" fill="#ffddce"/>
          </g>
          <g id="g1553" transform="translate(52.327 -65.423)">
            <path id="path1555" d="M0,0A9.163,9.163,0,0,1-6.369-3.716a1.747,1.747,0,0,0-2.434-.5C-12.6-1.66-22.46,7.029-30.944,3.066V-2.623a14.2,14.2,0,0,1,14.2-14.2h2.54A14.2,14.2,0,0,1,0-2.623Z" fill="#fba615"/>
          </g>
          <g id="g1557" transform="translate(38.125 -82.249)">
            <path id="path1559" d="M0,0H-2.54A14.317,14.317,0,0,0-4.231.1,14.2,14.2,0,0,1,8.268,13.7,9.329,9.329,0,0,0,14.2,16.826V14.2A14.2,14.2,0,0,0,0,0" fill="#fa9801"/>
          </g>
          <g id="g1561" transform="translate(83.723 -61.428)">
            <path id="path1563" d="M0,0A11.575,11.575,0,0,1-11.575,11.575,11.575,11.575,0,0,1-23.15,0,11.575,11.575,0,0,1-11.575-11.575,11.575,11.575,0,0,1,0,0" fill="#fbd307"/>
          </g>
          <g id="g1565" transform="translate(72.148 -73.003)">
            <path id="path1567" d="M0,0A11.59,11.59,0,0,0-2.961.384,11.579,11.579,0,0,1,5.654,11.575,11.579,11.579,0,0,1-2.961,22.766,11.583,11.583,0,0,0,0,23.15,11.575,11.575,0,0,0,11.575,11.575,11.575,11.575,0,0,0,0,0" fill="#f9c301"/>
          </g>
          <g id="g1569" transform="translate(72.148 -67.079)">
            <path id="path1571" d="M0,0V5.652L3.011,8.662" fill="none" stroke="#000" stroke-linecap="round" stroke-linejoin="round" stroke-miterlimit="10" stroke-width="2.49"/>
          </g>
          <g id="g1573" transform="translate(42.485 -13.017)">
            <path id="path1575" d="M0,0H-37.418V-23.855A2.344,2.344,0,0,1-35.074-26.2h32.73A2.344,2.344,0,0,1,0-23.855Z" fill="#eff3f5"/>
          </g>
          <g id="g1577" transform="translate(40.141 -39.216)">
            <path id="path1579" d="M0,0H-5.891A2.344,2.344,0,0,1-3.547,2.344V26.2H2.344V2.344A2.344,2.344,0,0,0,0,0" fill="#e5ecf1"/>
          </g>
          <g id="g1581" transform="translate(44.415 -14.985)">
            <path id="path1583" d="M0,0H-41.277A1.893,1.893,0,0,0-43.17,1.893a3.345,3.345,0,0,0,3.345,3.345H-1.452A3.345,3.345,0,0,0,1.893,1.893,1.893,1.893,0,0,0,0,0" fill="#e5ecf1"/>
          </g>
          <g id="g1585" transform="translate(82.401 -2.751)">
            <path id="path1587" d="M0,0H-79.8a1.354,1.354,0,0,1-1.354-1.354V-6.4A1.354,1.354,0,0,1-79.8-7.759H0A1.354,1.354,0,0,1,1.354-6.4v5.051A1.354,1.354,0,0,1,0,0" fill="#f9c36e"/>
          </g>
          <g id="g1589" transform="translate(82.401 -10.51)">
            <path id="path1591" d="M0,0H-4.567V6.4A1.354,1.354,0,0,1-5.921,7.759H0A1.354,1.354,0,0,0,1.354,6.4V1.354A1.354,1.354,0,0,0,0,0" fill="#e7b467"/>
          </g>
          <g id="g1593" transform="translate(27.844 -27.61)">
            <path id="path1595" d="M0,0A3.277,3.277,0,0,1-3.277,3.277,3.277,3.277,0,0,1-6.554,0,3.277,3.277,0,0,1-3.277-3.277,3.277,3.277,0,0,1,0,0" fill="#557981"/>
          </g>
          <g id="g1597" transform="translate(82.401 -2.751)">
            <path id="path1599" d="M0,0H-79.8a1.354,1.354,0,0,1-1.354-1.354V-6.4A1.354,1.354,0,0,1-79.8-7.759H0A1.354,1.354,0,0,1,1.354-6.4v5.051A1.354,1.354,0,0,1,0,0Z" fill="none" stroke="#000" stroke-linecap="round" stroke-linejoin="round" stroke-miterlimit="10" stroke-width="2.49"/>
          </g>
          <g id="g1601" transform="translate(27.844 -27.61)">
            <path id="path1603" d="M0,0A3.277,3.277,0,0,1-3.277,3.277,3.277,3.277,0,0,1-6.554,0,3.277,3.277,0,0,1-3.277-3.277,3.277,3.277,0,0,1,0,0Z" fill="none" stroke="#000" stroke-linecap="round" stroke-linejoin="round" stroke-miterlimit="10" stroke-width="2.49"/>
          </g>
          <g id="g1605" transform="translate(42.485 -29.987)">
            <path id="path1607" d="M0,0V-6.886A2.344,2.344,0,0,0-2.344-9.229h-32.73a2.344,2.344,0,0,0-2.344,2.344V15" fill="none" stroke="#000" stroke-linecap="round" stroke-linejoin="round" stroke-miterlimit="10" stroke-width="2.49"/>
          </g>
          <g id="g1609" transform="translate(42.485 -14.985)">
            <path id="path1611" d="M0,0V-9.17" fill="none" stroke="#000" stroke-linecap="round" stroke-linejoin="round" stroke-miterlimit="10" stroke-width="2.49"/>
          </g>
          <g id="g1613" transform="translate(45.088 -10.51)">
            <path id="path1615" d="M0,0A3.339,3.339,0,0,0,1.219-2.583,1.893,1.893,0,0,0-.674-4.475H-41.95a1.893,1.893,0,0,0-1.893,1.893A3.338,3.338,0,0,0-42.615.006" fill="none" stroke="#000" stroke-linecap="round" stroke-linejoin="round" stroke-miterlimit="10" stroke-width="2.49"/>
          </g>
          <g id="g1617" transform="translate(50.971 -10.51)">
            <path id="path1619" d="M0,0V-8.416a3.021,3.021,0,0,1,3.021-3.021h7.46V-23.154A8.993,8.993,0,0,0,3.3-32l-5.888-1.383a12.01,12.01,0,0,1-6.5,5.458" fill="none" stroke="#000" stroke-linecap="round" stroke-linejoin="round" stroke-miterlimit="10" stroke-width="2.49"/>
          </g>
          <g id="g1621" transform="translate(30.105 -39.216)">
            <path id="path1623" d="M0,0A11.613,11.613,0,0,1-4.776-4.678l-5.888,1.383A9.073,9.073,0,0,0-15.958,0" fill="none" stroke="#000" stroke-linecap="round" stroke-linejoin="round" stroke-miterlimit="10" stroke-width="2.49"/>
          </g>
          <g id="g1625" transform="translate(48.381 -43.894)">
            <path id="path1627" d="M0,0-5.554-1.3V-6.227" fill="none" stroke="#000" stroke-linecap="round" stroke-linejoin="round" stroke-miterlimit="10" stroke-width="2.49"/>
          </g>
          <g id="g1629" transform="translate(30.884 -50.22)">
            <path id="path1631" d="M0,0V5.022l-5.554,1.3" fill="none" stroke="#000" stroke-linecap="round" stroke-linejoin="round" stroke-miterlimit="10" stroke-width="2.49"/>
          </g>
          <g id="g1633" transform="translate(25.819 -61.341)">
            <path id="path1635" d="M0,0,.018,2.1A10.306,10.306,0,0,0,3.511,9.713c1.778,1.531,4.278,4.393,7.58,4.43,3.3-.037,5.8-2.9,7.579-4.43A10.306,10.306,0,0,0,22.164,2.1l.008-7.83" fill="none" stroke="#000" stroke-linecap="round" stroke-linejoin="round" stroke-miterlimit="10" stroke-width="2.49"/>
          </g>
          <g id="g1637" transform="translate(25.99 -78.517)">
            <path id="path1639" d="M0,0A14.151,14.151,0,0,1,9.6-3.732h2.54a14.2,14.2,0,0,1,14.2,14.2v2.623a9.164,9.164,0,0,1-6.369-3.717,1.747,1.747,0,0,0-2.434-.5C13.742,11.434,3.877,20.123-4.607,16.16V10.471a14.156,14.156,0,0,1,1.148-5.6" fill="none" stroke="#000" stroke-linecap="round" stroke-linejoin="round" stroke-miterlimit="10" stroke-width="2.49"/>
          </g>
          <g id="g1641" transform="translate(21.383 -62.358)">
            <path id="path1643" d="M0,0V14.887a8.2,8.2,0,0,0,1.167,4.229" fill="none" stroke="#000" stroke-linecap="round" stroke-linejoin="round" stroke-miterlimit="10" stroke-width="2.49"/>
          </g>
          <g id="g1645" transform="translate(51.16 -43.241)">
            <path id="path1647" d="M0,0A8.2,8.2,0,0,0,1.167-4.229V-22.182" fill="none" stroke="#000" stroke-linecap="round" stroke-linejoin="round" stroke-miterlimit="10" stroke-width="2.49"/>
          </g>
          <g id="g1649" transform="translate(61.452 -10.51)">
            <path id="path1651" d="M0,0V-11.437" fill="none" stroke="#000" stroke-linecap="round" stroke-linejoin="round" stroke-miterlimit="10" stroke-width="2.49"/>
          </g>
          <g id="g1653" transform="translate(83.723 -61.428)">
            <path id="path1655" d="M0,0A11.575,11.575,0,0,1-11.575,11.575,11.575,11.575,0,0,1-23.15,0,11.575,11.575,0,0,1-11.575-11.575,11.575,11.575,0,0,1,0,0Z" fill="none" stroke="#000" stroke-linecap="round" stroke-linejoin="round" stroke-miterlimit="10" stroke-width="2.49"/>
          </g>
        </g>
      </g>
    </g>
  </g>
</svg>
