<svg xmlns="http://www.w3.org/2000/svg" xmlns:xlink="http://www.w3.org/1999/xlink" width="125" height="125" viewBox="0 0 125 125">
  <defs>
    <clipPath id="clip-path">
      <rect id="Rectángulo_361827" data-name="Rectángulo 361827" width="85" height="85" transform="translate(1020 4845)" fill="#2d54fe"/>
    </clipPath>
  </defs>
  <g id="Grupo_1029813" data-name="Grupo 1029813" transform="translate(-1000 -4821)">
    <circle id="Elipse_8863" data-name="Elipse 8863" cx="62.5" cy="62.5" r="62.5" transform="translate(1000 4821)" fill="#fe502d"/>
    <g id="Enmascarar_grupo_998659" data-name="Enmascarar grupo 998659" clip-path="url(#clip-path)">
      <g id="habilidades" transform="translate(1018.629 4843.629)">
        <g id="Grupo_1029720" data-name="Grupo 1029720">
          <g id="Grupo_1029696" data-name="Grupo 1029696">
            <path id="Trazado_776518" data-name="Trazado 776518" d="M39.5,13.71h-1.11A5.482,5.482,0,0,0,32.9,19.194v2.742H31.532a4.1,4.1,0,0,0-3.03,1.33l-.919-4.606a8.731,8.731,0,0,1,.85-5.772,8.8,8.8,0,0,1,2.838-3.112l.26-.178A10.933,10.933,0,0,1,41.664,2.742H46.6A13.721,13.721,0,0,1,60.323,16.465a14.632,14.632,0,0,1-.26,2.687l-.823,4.113a4.1,4.1,0,0,0-3.03-1.33H54.839V16.863a3.154,3.154,0,0,0-3.153-3.153,3.078,3.078,0,0,0-1.755.535L48.2,15.4a6.32,6.32,0,0,1-7.965-.8,6.548,6.548,0,0,1-.74-.891Z" fill="#b27946"/>
          </g>
          <g id="Grupo_1029697" data-name="Grupo 1029697">
            <path id="Trazado_776519" data-name="Trazado 776519" d="M45.242,52.1l1.988,3.976a18.345,18.345,0,0,1-3.359,2.879l-3.359-2.879L42.5,52.1Z" fill="#ff826e"/>
          </g>
          <g id="Grupo_1029698" data-name="Grupo 1029698">
            <path id="Trazado_776520" data-name="Trazado 776520" d="M47.3,47.984,45.242,52.1H42.5l-2.056-4.113,3.427-2.742Z" fill="#fc6e51"/>
          </g>
          <g id="Grupo_1029699" data-name="Grupo 1029699">
            <path id="Trazado_776521" data-name="Trazado 776521" d="M45.242,52.1,47.3,47.984l3.373,2.7a18.414,18.414,0,0,1-3.441,5.388Z" fill="#ffeaa7"/>
          </g>
          <g id="Grupo_1029700" data-name="Grupo 1029700">
            <path id="Trazado_776522" data-name="Trazado 776522" d="M40.444,47.984,42.5,52.1l-1.988,3.976a18.608,18.608,0,0,1-2.687-3.784,17.1,17.1,0,0,1-.754-1.6Z" fill="#ffeaa7"/>
          </g>
          <g id="Grupo_1029701" data-name="Grupo 1029701">
            <path id="Trazado_776523" data-name="Trazado 776523" d="M43.871,45.242,50.726,42.5l1.371.165v.919a18.333,18.333,0,0,1-1.234,6.635,4.737,4.737,0,0,1-.192.466l-3.373-2.7Z" fill="#fcd770"/>
          </g>
          <g id="Grupo_1029702" data-name="Grupo 1029702">
            <path id="Trazado_776524" data-name="Trazado 776524" d="M37.016,42.5l6.855,2.742-3.427,2.742-3.373,2.7a4.736,4.736,0,0,1-.192-.466,18.333,18.333,0,0,1-1.234-6.635v-.919Z" fill="#fcd770"/>
          </g>
          <g id="Grupo_1029703" data-name="Grupo 1029703">
            <path id="Trazado_776525" data-name="Trazado 776525" d="M59.829,67.246l.617,1.22a2.706,2.706,0,0,1,.069,2.235,2.289,2.289,0,0,1-.343.59H52.1a8.232,8.232,0,0,0-8.226-8.226V58.952l1.467-.247A17.023,17.023,0,0,0,56.21,52.1l-1.988-2.989,3.359-1.124V43.323l3.263.4A27.413,27.413,0,0,1,85,70.934v.356H76.925a2.289,2.289,0,0,1-.343-.59,2.715,2.715,0,0,1-.206-1.042,2.764,2.764,0,0,1,.274-1.193l.617-1.22L75.952,65.93A17.827,17.827,0,0,0,61.9,53.728l-.823-.137a43.255,43.255,0,0,0-.754,8.1v5.059Z" fill="#4fc1e9"/>
          </g>
          <g id="Grupo_1029704" data-name="Grupo 1029704">
            <path id="Trazado_776526" data-name="Trazado 776526" d="M43.871,58.952v4.113a8.232,8.232,0,0,0-8.226,8.226H30.161V65.806a2.75,2.75,0,0,0-2.742-2.742V61.694a43.255,43.255,0,0,0-.754-8.1l-.823.137a17.839,17.839,0,0,0-12.928,9.446v.014a2.744,2.744,0,0,0-1.947,2.619V71.29H2.742v-.356A27.413,27.413,0,0,1,26.9,43.72l3.263-.4v4.661l3.359,1.124L31.532,52.1A17.023,17.023,0,0,0,42.4,58.7Z" fill="#4fc1e9"/>
          </g>
          <g id="Grupo_1029705" data-name="Grupo 1029705">
            <path id="Trazado_776527" data-name="Trazado 776527" d="M50.863,50.219A18.333,18.333,0,0,0,52.1,43.583v-.919l5.484.658v4.661l-3.359,1.124Z" fill="#3bafda"/>
          </g>
          <g id="Grupo_1029706" data-name="Grupo 1029706">
            <path id="Trazado_776528" data-name="Trazado 776528" d="M51.411,56.456A17.273,17.273,0,0,1,45.338,58.7l-1.467.247a18.482,18.482,0,0,0,6.8-8.267,4.737,4.737,0,0,0,.192-.466l3.359-1.11L56.21,52.1A17.3,17.3,0,0,1,51.411,56.456Z" fill="#3bafda"/>
          </g>
          <g id="Grupo_1029707" data-name="Grupo 1029707">
            <path id="Trazado_776529" data-name="Trazado 776529" d="M40.512,56.073l3.359,2.879L42.4,58.7A17.023,17.023,0,0,1,31.532,52.1l1.988-2.989,3.359,1.11a4.737,4.737,0,0,0,.192.466,17.1,17.1,0,0,0,.754,1.6,18.608,18.608,0,0,0,2.687,3.784Z" fill="#3bafda"/>
          </g>
          <g id="Grupo_1029708" data-name="Grupo 1029708">
            <path id="Trazado_776530" data-name="Trazado 776530" d="M35.645,43.583a18.333,18.333,0,0,0,1.234,6.635l-3.359-1.11-3.359-1.124V43.323l5.484-.658Z" fill="#3bafda"/>
          </g>
          <g id="Grupo_1029709" data-name="Grupo 1029709">
            <path id="Trazado_776531" data-name="Trazado 776531" d="M30.161,71.29v5.484a2.75,2.75,0,0,1-2.742,2.742H13.71a2.75,2.75,0,0,1-2.742-2.742V65.806a2.744,2.744,0,0,1,1.947-2.619,2.54,2.54,0,0,1,.8-.123h13.71a2.75,2.75,0,0,1,2.742,2.742Z" fill="#ff826e"/>
          </g>
          <g id="Grupo_1029710" data-name="Grupo 1029710">
            <path id="Trazado_776532" data-name="Trazado 776532" d="M43.871,79.516a8.109,8.109,0,0,0,4.058-1.069l-1.1,5.456A1.368,1.368,0,0,1,45.489,85H42.253a1.368,1.368,0,0,1-1.344-1.1l-1.1-5.456A8.109,8.109,0,0,0,43.871,79.516Z" fill="#aab2bd"/>
          </g>
          <g id="Grupo_1029711" data-name="Grupo 1029711">
            <path id="Trazado_776533" data-name="Trazado 776533" d="M43.871,79.516a8.109,8.109,0,0,1-4.058-1.069,8.226,8.226,0,1,1,8.116,0A8.109,8.109,0,0,1,43.871,79.516Z" fill="#ffeaa7"/>
          </g>
          <g id="Grupo_1029712" data-name="Grupo 1029712">
            <circle id="Elipse_8864" data-name="Elipse 8864" cx="2.742" cy="2.742" r="2.742" transform="translate(41.129 68.548)" fill="#fcd770"/>
          </g>
          <g id="Grupo_1029713" data-name="Grupo 1029713">
            <path id="Trazado_776534" data-name="Trazado 776534" d="M66.739,83.711a2.659,2.659,0,0,0-1.522-1.645,2.706,2.706,0,0,0-2.235.069l-1.22.617-1.933-1.933.617-1.22a2.764,2.764,0,0,0,.274-1.193,2.715,2.715,0,0,0-.206-1.042,2.659,2.659,0,0,0-1.645-1.522l-1.289-.425V72.648l1.289-.425a2.618,2.618,0,0,0,1.3-.932,2.289,2.289,0,0,0,.343-.59,2.706,2.706,0,0,0-.069-2.235l-.617-1.22.494-.494,1.44-1.44,1.22.617a2.764,2.764,0,0,0,1.193.274A2.715,2.715,0,0,0,65.217,66a2.659,2.659,0,0,0,1.522-1.645l.425-1.289h2.769l.425,1.289A2.659,2.659,0,0,0,71.88,66a2.706,2.706,0,0,0,2.235-.069l1.22-.617.617.617,1.316,1.316-.617,1.22a2.764,2.764,0,0,0-.274,1.193,2.715,2.715,0,0,0,.206,1.042,2.29,2.29,0,0,0,.343.59,2.618,2.618,0,0,0,1.3.932l1.289.425v2.769l-1.289.425a2.659,2.659,0,0,0-1.645,1.522,2.706,2.706,0,0,0,.069,2.235l.617,1.22-.48.48-1.453,1.453-1.22-.617a2.764,2.764,0,0,0-1.193-.274,2.715,2.715,0,0,0-1.042.206,2.659,2.659,0,0,0-1.522,1.645L69.933,85H67.164Zm4.552-9.679a2.742,2.742,0,1,0-2.742,2.742A2.75,2.75,0,0,0,71.29,74.032Z" fill="#fcd770"/>
          </g>
          <g id="Grupo_1029714" data-name="Grupo 1029714">
            <path id="Trazado_776535" data-name="Trazado 776535" d="M76.925,71.29H85v9.6a4.11,4.11,0,0,1-8.2.425l-.014-.014.48-.48-.617-1.22a2.706,2.706,0,0,1-.069-2.235,2.659,2.659,0,0,1,1.645-1.522l1.289-.425V72.648l-1.289-.425A2.618,2.618,0,0,1,76.925,71.29Z" fill="#f0d0b4"/>
          </g>
          <g id="Grupo_1029715" data-name="Grupo 1029715">
            <path id="Trazado_776536" data-name="Trazado 776536" d="M10.968,78.145v2.742a4.113,4.113,0,0,1-8.226,0v-9.6h8.226v6.855Z" fill="#f0d0b4"/>
          </g>
          <g id="Grupo_1029716" data-name="Grupo 1029716">
            <path id="Trazado_776537" data-name="Trazado 776537" d="M56.21,21.935a4.113,4.113,0,0,1,0,8.226H54.839V21.935Z" fill="#f0d0b4"/>
          </g>
          <g id="Grupo_1029717" data-name="Grupo 1029717">
            <path id="Trazado_776538" data-name="Trazado 776538" d="M49.56,37.839,50.726,42.5l-6.855,2.742L37.016,42.5l1.165-4.661a8.1,8.1,0,0,0,2.948.548h5.484A8.1,8.1,0,0,0,49.56,37.839Z" fill="#f0d0b4"/>
          </g>
          <g id="Grupo_1029718" data-name="Grupo 1029718">
            <path id="Trazado_776539" data-name="Trazado 776539" d="M32.9,21.935v8.226H31.532a4.113,4.113,0,1,1,0-8.226Z" fill="#f0d0b4"/>
          </g>
          <g id="Grupo_1029719" data-name="Grupo 1029719">
            <path id="Trazado_776540" data-name="Trazado 776540" d="M54.839,21.935v8.226a8.228,8.228,0,0,1-5.278,7.677,8.1,8.1,0,0,1-2.948.548H41.129a8.1,8.1,0,0,1-2.948-.548A8.228,8.228,0,0,1,32.9,30.161V19.194a5.482,5.482,0,0,1,5.484-5.484H39.5a6.547,6.547,0,0,0,.74.891,6.32,6.32,0,0,0,7.965.8l1.727-1.152a3.078,3.078,0,0,1,1.755-.535,3.154,3.154,0,0,1,3.153,3.153Z" fill="#f0d0b4"/>
          </g>
        </g>
        <g id="Grupo_1029721" data-name="Grupo 1029721">
          <path id="Trazado_776541" data-name="Trazado 776541" d="M68.548,69.919a4.113,4.113,0,1,0,4.113,4.113A4.118,4.118,0,0,0,68.548,69.919Zm0,5.484a1.371,1.371,0,1,1,1.371-1.371A1.373,1.373,0,0,1,68.548,75.4Z"/>
          <circle id="Elipse_8865" data-name="Elipse 8865" cx="1.371" cy="1.371" r="1.371" transform="translate(37.016 20.565)"/>
          <circle id="Elipse_8866" data-name="Elipse 8866" cx="1.371" cy="1.371" r="1.371" transform="translate(47.984 20.565)"/>
          <path id="Trazado_776542" data-name="Trazado 776542" d="M50.726,28.79H47.984a2.745,2.745,0,0,1-2.742,2.742H39.758v2.742h5.484A5.489,5.489,0,0,0,50.726,28.79Z"/>
          <path id="Trazado_776543" data-name="Trazado 776543" d="M42.5,23.306h2.742V28.79H42.5Z"/>
          <path id="Trazado_776544" data-name="Trazado 776544" d="M19.194,72.094l-1.773-1.773L15.482,72.26l3.711,3.711,6.453-6.453-1.939-1.939Z"/>
          <path id="Trazado_776545" data-name="Trazado 776545" d="M61.011,42.353l-9.184-1.1-.661-2.645A9.609,9.609,0,0,0,56.1,31.532h.11A5.471,5.471,0,0,0,60.7,22.918l.7-3.495A15.092,15.092,0,0,0,46.6,1.371H41.657A12.212,12.212,0,0,0,30.429,8.685,10.016,10.016,0,0,0,26.243,18.93l.8,3.988a5.471,5.471,0,0,0,4.491,8.614h.11a9.613,9.613,0,0,0,4.934,7.074l-.661,2.645-9.184,1.1A28.811,28.811,0,0,0,1.371,70.939v9.948a5.484,5.484,0,1,0,10.968,0v-.234a4.125,4.125,0,0,0,1.371.234h13.71a4.118,4.118,0,0,0,4.113-4.113V72.661h2.852A9.6,9.6,0,0,0,38.59,79.3l.975,4.871a2.747,2.747,0,0,0,2.688,2.2h3.235a2.749,2.749,0,0,0,2.688-2.2l.975-4.872a9.6,9.6,0,0,0,4.206-6.634H56.21V76.4l2.232.735a1.322,1.322,0,0,1,.77,1.844l-1.049,2.11,3.322,3.323L63.6,83.369a1.321,1.321,0,0,1,1.844.77l.424,1.289c.314.939.768.939,2.683.939s2.369,0,2.684-.943l.424-1.283a1.322,1.322,0,0,1,1.844-.77l2.111,1.049.636-.638a5.473,5.473,0,0,0,10.125-2.894V70.939a28.811,28.811,0,0,0-25.36-28.586Zm22.57,27.566H77.8a1.3,1.3,0,0,1,.084-.838l1.049-2.11-1.795-1.8A19.068,19.068,0,0,0,62.705,52.5c.093-.425.171-.853.277-1.275l.041-.165-2.66-.662-.041.163a45.908,45.908,0,0,0-1.371,11.136v4.491l-.787.787,1.047,2.11a1.3,1.3,0,0,1,.084.838H53.358A9.6,9.6,0,0,0,45.242,61.8v-1.69l.318-.053a18.4,18.4,0,0,0,11.746-7.14l.583-.776-1.537-2.3,2.6-.866v-4.1l1.733.208A26.048,26.048,0,0,1,83.581,69.919ZM61.694,61.694a43.148,43.148,0,0,1,.51-6.485A16.316,16.316,0,0,1,73.914,64.49L73.5,64.7a1.322,1.322,0,0,1-1.844-.77l-.735-2.232H66.177l-.735,2.232a1.323,1.323,0,0,1-1.844.77l-1.9-.946ZM31.532,44.539l2.78-.333a19.852,19.852,0,0,0,.5,3.883L31.532,47Zm22.982,7.485a15.634,15.634,0,0,1-5.633,4.2,19.749,19.749,0,0,0,2.985-4.889l1.79-.6Zm-10.119-1.3H43.347l-1.182-2.364L43.871,47l1.705,1.364Zm-1.047,2.742h1.047l1.171,2.342a17.175,17.175,0,0,1-1.695,1.464,17.173,17.173,0,0,1-1.695-1.464Zm4.15.074L46.775,52.1l.991-1.982,1.219.975A17.012,17.012,0,0,1,47.5,53.542Zm-7.521-3.427.991,1.982-.723,1.445a17.025,17.025,0,0,1-1.487-2.454Zm12.957-2.026a19.878,19.878,0,0,0,.5-3.883l2.78.333V47Zm-2.231-4.1a17.107,17.107,0,0,1-.694,4.41l-3.444-2.754ZM37.735,48.4a17.107,17.107,0,0,1-.694-4.41l4.138,1.655Zm-3.648,2.342,1.79.6a19.749,19.749,0,0,0,2.985,4.889,15.638,15.638,0,0,1-5.633-4.2ZM56.21,28.79V23.306a2.742,2.742,0,1,1,0,5.484ZM28.79,26.048a2.745,2.745,0,0,1,2.742-2.742V28.79A2.745,2.745,0,0,1,28.79,26.048Zm2.742-6.855v1.371a5.445,5.445,0,0,0-2.084.417l-.517-2.588a7.333,7.333,0,0,1-.141-1.427,7.259,7.259,0,0,1,3.24-6.054l.617-.411.159-.4a9.488,9.488,0,0,1,8.851-5.991H46.6A12.351,12.351,0,0,1,58.712,18.886l-.42,2.095a5.433,5.433,0,0,0-2.083-.417v-3.7A4.528,4.528,0,0,0,49.17,13.1l-1.727,1.152a4.943,4.943,0,0,1-7.684-4.113V9.6H37.016v.542a7.685,7.685,0,0,0,.344,2.279,6.863,6.863,0,0,0-5.828,6.777Zm2.742,10.968V19.194a4.118,4.118,0,0,1,4.113-4.113h.433a7.68,7.68,0,0,0,10.142,1.452l1.726-1.15a1.786,1.786,0,0,1,2.779,1.485V30.161a6.863,6.863,0,0,1-6.855,6.855H41.129a6.863,6.863,0,0,1-6.855-6.855Zm6.855,9.6h5.484a9.642,9.642,0,0,0,1.963-.2l.529,2.117-5.234,2.093-5.234-2.093.529-2.117a9.642,9.642,0,0,0,1.963.2ZM6.855,83.629a2.745,2.745,0,0,1-2.742-2.742V72.661H9.6v8.226A2.745,2.745,0,0,1,6.855,83.629ZM26.048,61.694H15.465A16.491,16.491,0,0,1,25.538,55.2,43.388,43.388,0,0,1,26.048,61.694ZM28.79,76.774a1.373,1.373,0,0,1-1.371,1.371H13.71a1.373,1.373,0,0,1-1.371-1.371V65.806a1.373,1.373,0,0,1,1.371-1.371h13.71a1.373,1.373,0,0,1,1.371,1.371Zm0-14.828v-.252a45.9,45.9,0,0,0-1.371-11.135l-.041-.165-2.66.662.041.166c.107.426.186.858.28,1.287a19.238,19.238,0,0,0-13.065,9.58A4.111,4.111,0,0,0,9.6,65.806v4.113H4.161a26.05,26.05,0,0,1,22.9-24.845l1.732-.207v4.1l2.6.866-1.537,2.3.583.776a18.4,18.4,0,0,0,11.745,7.14l.319.053V61.8a9.6,9.6,0,0,0-8.116,8.116H31.532V65.806a4.107,4.107,0,0,0-2.742-3.861Zm16.7,21.683H42.253l-.6-3.012a9.261,9.261,0,0,0,4.441,0ZM42.5,71.29a1.371,1.371,0,1,1,1.371,1.371A1.373,1.373,0,0,1,42.5,71.29Zm2.742,6.716V75.151a4.113,4.113,0,1,0-2.742,0v2.856a6.855,6.855,0,1,1,2.742,0Zm29.476,2.905a4.062,4.062,0,0,0-5.666,2.37l-.114.343H68.16l-.112-.343a4.064,4.064,0,0,0-5.669-2.369l-.345.171-.536-.536.171-.345a4.062,4.062,0,0,0-2.37-5.666l-.347-.117v-.775l.347-.114a4.065,4.065,0,0,0,2.369-5.669l-.171-.345.536-.536.345.171a4.063,4.063,0,0,0,5.666-2.37l.117-.347h.775l.114.347a4.065,4.065,0,0,0,5.669,2.369l.345-.171.536.536-.171.347a4.063,4.063,0,0,0,2.37,5.666l.347.115v.775l-.347.114A4.064,4.064,0,0,0,75.429,80.2l.171.345-.536.536Zm6.169,2.717a2.728,2.728,0,0,1-2.6-1.889l.647-.647-1.047-2.11a1.321,1.321,0,0,1,.77-1.844l2.232-.735V72.661h2.742v8.226A2.745,2.745,0,0,1,80.887,83.629Z"/>
        </g>
      </g>
    </g>
  </g>
</svg>
