<svg xmlns="http://www.w3.org/2000/svg" xmlns:xlink="http://www.w3.org/1999/xlink" width="85" height="85" viewBox="0 0 85 85">
  <defs>
    <clipPath id="clip-path">
      <rect id="Rectángulo_361716" data-name="Rectángulo 361716" width="85" height="85" transform="translate(1107 531)" fill="#fff"/>
    </clipPath>
    <clipPath id="clip-path-2">
      <path id="path4329" d="M0-85H85V0H0Z"/>
    </clipPath>
  </defs>
  <g id="Enmascarar_grupo_998601" data-name="Enmascarar grupo 998601" transform="translate(-1107 -531)" clip-path="url(#clip-path)">
    <g id="g4323" transform="translate(1107 616)">
      <g id="g4325">
        <g id="g4327" clip-path="url(#clip-path-2)">
          <g id="g4333" transform="translate(35.434 -48.835)">
            <path id="path4335" d="M0,0H-5.76A16.348,16.348,0,0,0-22.108,16.348v1.207a5.237,5.237,0,0,0,5.237,5.237h7.8l6.409-4.448,5.967,4.448h7.8a5.237,5.237,0,0,0,5.237-5.237V16.348A16.348,16.348,0,0,0,0,0" fill="#f5f8f9"/>
          </g>
          <g id="g4337" transform="translate(26.186 -26.043)">
            <path id="path4339" d="M0,0H-7.625A5.236,5.236,0,0,1-12.86-5.237V-6.444A16.348,16.348,0,0,1,3.488-22.791H9.247c.314,0,.625.008.934.028A16.346,16.346,0,0,0-5.236-6.444v1.206A5.236,5.236,0,0,0,0,0" fill="#d9e7ec"/>
          </g>
          <g id="g4341" transform="translate(26.912 -48.6)">
            <path id="path4343" d="M0,0C-.03,0-.058.008-.088.013v0a16.349,16.349,0,0,0-13.5,16.1V17.32a5.237,5.237,0,0,0,5.237,5.237H15.934" fill="none" stroke="#000" stroke-linecap="round" stroke-linejoin="round" stroke-miterlimit="10" stroke-width="2.49"/>
          </g>
          <g id="g4345" transform="translate(38.196 -48.601)">
            <path id="path4347" d="M0,0,.088.015v0A16.351,16.351,0,0,1,11.136,7.5" fill="none" stroke="#000" stroke-linecap="round" stroke-linejoin="round" stroke-miterlimit="10" stroke-width="2.49"/>
          </g>
          <g id="g4349" transform="translate(35.917 -41.594)">
            <path id="path4351" d="M0,0-3.6,3.147-6.727,0-9.552-8.346H2.825Z" fill="#26a6fe"/>
          </g>
          <g id="g4353" transform="translate(38.283 -48.587)">
            <path id="path4355" d="M0,0V0l-2.366,6.99H-9.094L-11.46,0V0" fill="none" stroke="#000" stroke-linecap="round" stroke-linejoin="round" stroke-miterlimit="10" stroke-width="2.49"/>
          </g>
          <g id="g4357" transform="translate(29.19 -41.594)">
            <path id="path4359" d="M0,0H6.727L9.552,15.551H-2.825Z" fill="#60b7ff"/>
          </g>
          <g id="g4361" transform="translate(29.19 -41.594)">
            <path id="path4363" d="M0,0H6.727L9.552,15.551H-2.825Z" fill="none" stroke="#000" stroke-linecap="round" stroke-linejoin="round" stroke-miterlimit="10" stroke-width="2.49"/>
          </g>
          <g id="g4365" transform="translate(37.339 -83.755)">
            <path id="path4367" d="M0,0H-9.349A12.487,12.487,0,0,0-21.837,12.487,12.487,12.487,0,0,0-9.349,24.975H0A12.487,12.487,0,0,0,12.487,12.487,12.487,12.487,0,0,0,0,0" fill="#7a6d79"/>
          </g>
          <g id="g4369" transform="translate(27.447 -62.436)">
            <path id="path4371" d="M0,0A12.452,12.452,0,0,0,8.831,3.657H.542A12.448,12.448,0,0,1-8.288,0a12.452,12.452,0,0,1-3.657-8.831A12.487,12.487,0,0,1,.542-21.318H8.831A12.488,12.488,0,0,0-3.657-8.831,12.452,12.452,0,0,0,0,0" fill="#685e68"/>
          </g>
          <g id="g4373" transform="translate(47.708 -64.307)">
            <path id="path4375" d="M0,0A12.435,12.435,0,0,0,2.119-6.962a12.448,12.448,0,0,0-3.657-8.83,12.452,12.452,0,0,0-8.831-3.657h-9.348A12.488,12.488,0,0,0-32.206-6.962,12.446,12.446,0,0,0-30.084.007" fill="none" stroke="#000" stroke-linecap="round" stroke-linejoin="round" stroke-miterlimit="10" stroke-width="2.49"/>
          </g>
          <g id="g4377" transform="translate(50.896 -61.1)">
            <path id="path4379" d="M0,0A3.142,3.142,0,0,1-3.166,2.982H-4.8A13.925,13.925,0,0,1-18.343,13.691,13.927,13.927,0,0,1-31.888,2.982h-1.631A3.142,3.142,0,0,1-36.685,0a3.1,3.1,0,0,1,3.092-3.207h0a4.98,4.98,0,0,1,2.784.8A11.259,11.259,0,0,0-24.664-.6,11.309,11.309,0,0,0-13.613-9.511a9.394,9.394,0,0,0,8.871,6.3h1.65A3.1,3.1,0,0,1,0,0" fill="#ffdfcf"/>
          </g>
          <g id="g4381" transform="translate(32.656 -47.41)">
            <path id="path4383" d="M0,0C-.035,0-.068,0-.1,0A13.927,13.927,0,0,1-13.648-10.707H-15.28a3.143,3.143,0,0,1-3.165-2.982A3.1,3.1,0,0,1-15.353-16.9h.077a4.968,4.968,0,0,1,2.708.8A11.274,11.274,0,0,0-6.53-14.288a15.217,15.217,0,0,0-.1,1.771A15.107,15.107,0,0,0,0,0" fill="#ffcebf"/>
          </g>
          <g id="g4385" transform="translate(23.777 -50.527)">
            <path id="path4387" d="M0,0A13.852,13.852,0,0,0,8.776,3.118,13.924,13.924,0,0,0,22.321-7.59h1.632a3.141,3.141,0,0,0,3.166-2.982,3.094,3.094,0,0,0-3.091-3.207h-1.65a9.393,9.393,0,0,1-8.87-6.3A11.31,11.31,0,0,1,2.455-11.171a11.259,11.259,0,0,1-6.144-1.813,4.971,4.971,0,0,0-2.708-.8h-.076a3.1,3.1,0,0,0-3.093,3.207A3.142,3.142,0,0,0-6.4-7.59h1.63A13.855,13.855,0,0,0-3.634-4.5" fill="none" stroke="#000" stroke-linecap="round" stroke-linejoin="round" stroke-miterlimit="10" stroke-width="2.49"/>
          </g>
          <g id="g4389" transform="translate(45.332 -5.291)">
            <path id="path4391" d="M0,0,2.179-.784A1.92,1.92,0,0,1,4.667.466l.672,2.216a1.92,1.92,0,0,0,3.553.305L20.972-21.058,9.715-26.713-2.366-2.669A1.92,1.92,0,0,0,0,0" fill="#fd4755"/>
          </g>
          <g id="g4393" transform="translate(48.371 -18.714)">
            <path id="path4395" d="M0,0-5.4,10.755a1.92,1.92,0,0,0,2.366,2.668l2.178-.784a1.92,1.92,0,0,1,2.487,1.249L2.3,16.105a1.921,1.921,0,0,0,3.554.306l2.991-5.955" fill="none" stroke="#000" stroke-linecap="round" stroke-linejoin="round" stroke-miterlimit="10" stroke-width="2.49"/>
          </g>
          <g id="g4397" transform="translate(69.098 -5.291)">
            <path id="path4399" d="M0,0-2.179-.784A1.92,1.92,0,0,0-4.667.466l-.671,2.216a1.92,1.92,0,0,1-3.553.305L-20.972-21.058l11.257-5.656L2.366-2.669A1.92,1.92,0,0,1,0,0" fill="#fe646f"/>
          </g>
          <g id="g4401" transform="translate(70.329 -10.22)">
            <path id="path4403" d="M0,0,1.136,2.261A1.92,1.92,0,0,1-1.23,4.929l-2.18-.784A1.921,1.921,0,0,0-5.9,5.4l-.671,2.216a1.92,1.92,0,0,1-3.553.305L-16.565-4.907" fill="none" stroke="#000" stroke-linecap="round" stroke-linejoin="round" stroke-miterlimit="10" stroke-width="2.49"/>
          </g>
          <g id="g4405" transform="translate(67.726 -15.4)">
            <path id="path4407" d="M0,0-1.665-3.314" fill="none" stroke="#000" stroke-linecap="round" stroke-linejoin="round" stroke-miterlimit="10" stroke-width="2.49"/>
          </g>
          <g id="g4409" transform="translate(71.241 -31.994)">
            <path id="path4411" d="M0,0V0a6.7,6.7,0,0,0-5.086-8.81h0A6.7,6.7,0,0,1-8.94-11.038a6.7,6.7,0,0,0-10.171,0,6.7,6.7,0,0,1-3.851,2.223h0A6.7,6.7,0,0,0-28.052,0V0a6.7,6.7,0,0,1,0,4.448v0a6.7,6.7,0,0,0,5.086,8.81h0a6.7,6.7,0,0,1,3.851,2.223,6.7,6.7,0,0,0,10.171,0,6.7,6.7,0,0,1,3.851-2.223h0A6.7,6.7,0,0,0,0,4.452v0A6.7,6.7,0,0,1,0,0" fill="#ffe177"/>
          </g>
          <g id="g4413" transform="translate(59.618 -44.927)">
            <path id="path4415" d="M0,0A6.675,6.675,0,0,1,2.683,1.9,6.712,6.712,0,0,0,6.534,4.119h0a6.7,6.7,0,0,1,5.087,8.81l0,0a6.7,6.7,0,0,0,0,4.448l0,0a6.7,6.7,0,0,1-5.087,8.809l0,0a6.733,6.733,0,0,0-2.115.782,6.656,6.656,0,0,0-1.737,1.441A6.675,6.675,0,0,1-2.4,30.756a6.673,6.673,0,0,1-5.085-2.337A6.7,6.7,0,0,0-11.339,26.2l0,0a6.7,6.7,0,0,1-5.085-8.809l0,0a6.7,6.7,0,0,0,0-4.448l0,0a6.7,6.7,0,0,1,5.085-8.81h0A6.716,6.716,0,0,0-7.487,1.9v0A6.661,6.661,0,0,1-5.522.325" fill="none" stroke="#000" stroke-linecap="round" stroke-linejoin="round" stroke-miterlimit="10" stroke-width="2.49"/>
          </g>
          <g id="g4417" transform="translate(65.989 -29.77)">
            <path id="path4419" d="M0,0A8.774,8.774,0,0,0-8.774-8.774,8.774,8.774,0,0,0-17.548,0,8.774,8.774,0,0,0-8.774,8.774,8.774,8.774,0,0,0,0,0" fill="#f5f8f9"/>
          </g>
          <g id="g4421" transform="translate(59.783 -21.38)">
            <path id="path4423" d="M0,0A8.746,8.746,0,0,1-2.569.382a8.773,8.773,0,0,1-8.773-8.773,8.773,8.773,0,0,1,8.773-8.775A8.746,8.746,0,0,1,0-16.783,8.777,8.777,0,0,0-6.2-8.391,8.776,8.776,0,0,0,0,0" fill="#d9e7ec"/>
          </g>
          <g id="g4425" transform="translate(65.989 -29.77)">
            <path id="path4427" d="M0,0A8.774,8.774,0,0,0-8.774-8.774,8.774,8.774,0,0,0-17.548,0,8.774,8.774,0,0,0-8.774,8.774,8.774,8.774,0,0,0,0,0Z" fill="none" stroke="#000" stroke-linecap="round" stroke-linejoin="round" stroke-miterlimit="10" stroke-width="2.49"/>
          </g>
        </g>
      </g>
    </g>
  </g>
</svg>
