<svg xmlns="http://www.w3.org/2000/svg" xmlns:xlink="http://www.w3.org/1999/xlink" width="85" height="85" viewBox="0 0 85 85">
  <defs>
    <clipPath id="clip-path">
      <rect id="Rectángulo_361719" data-name="Rectángulo 361719" width="85" height="85" transform="translate(-4145 -11169)" fill="#fff"/>
    </clipPath>
  </defs>
  <g id="Enmascarar_grupo_998602" data-name="Enmascarar grupo 998602" transform="translate(4145 11169)" clip-path="url(#clip-path)">
    <g id="capacitacion" transform="translate(-4146.371 -11170.371)">
      <path id="Trazado_775718" data-name="Trazado 775718" d="M67.177,65.806H75.4v6.855H67.177Z" fill="#eeb8ab"/>
      <path id="Trazado_775719" data-name="Trazado 775719" d="M69.919,68.548a4.435,4.435,0,0,1-2.742-.956v5.068H75.4V67.593a4.434,4.434,0,0,1-2.742.956Z" fill="#ffe1d3"/>
      <path id="Trazado_775720" data-name="Trazado 775720" d="M12.339,65.806h8.226v6.855H12.339Z" fill="#eeb8ab"/>
      <path id="Trazado_775721" data-name="Trazado 775721" d="M15.081,68.548a4.435,4.435,0,0,1-2.742-.956v5.068h8.226V67.593a4.434,4.434,0,0,1-2.742.956Z" fill="#ffe1d3"/>
      <path id="Trazado_775722" data-name="Trazado 775722" d="M27.419,54.839h32.9V86.371h-32.9Z" fill="#893b1b"/>
      <path id="Trazado_775723" data-name="Trazado 775723" d="M60.323,56.21H31.532V76.774a5.484,5.484,0,0,0,5.484,5.484H60.323Z" fill="#a44b2f"/>
      <path id="Trazado_775724" data-name="Trazado 775724" d="M53.468,54.839V46.613l2.913,2.913a4.1,4.1,0,0,0,4.859.7l12.217-6.663A3.735,3.735,0,0,0,75.4,40.282a3.266,3.266,0,0,0-4.853-2.856l-11.6,6.445L56.3,37.24c-.059-.149-.125-.295-.2-.439a5.774,5.774,0,0,0-4.033-3.081L47.984,32.9H39.758l-5.647,1.412a7.023,7.023,0,0,0-5.321,6.814v13.71" fill="#b4b4b4"/>
      <path id="Trazado_775725" data-name="Trazado 775725" d="M72.138,37.015a3.266,3.266,0,0,0-1.588.411l-11.6,6.445L56.3,37.24c-.059-.149-.125-.295-.2-.439a5.774,5.774,0,0,0-4.033-3.081L47.984,32.9H39.758l-5.647,1.412a7.073,7.073,0,0,0-.76.259,6.988,6.988,0,0,0-.448,2.442v9.6a4.113,4.113,0,0,0,4.113,4.113H53.468V46.613l2.913,2.913a4.1,4.1,0,0,0,4.859.7l12.217-6.663A3.735,3.735,0,0,0,75.4,40.282a3.267,3.267,0,0,0-3.266-3.267Z" fill="#c8c8c8"/>
      <path id="Trazado_775726" data-name="Trazado 775726" d="M47.984,38.387l4.526-4.526c-.149-.043-.287-.111-.44-.141L47.984,32.9l-4.113,1.371Z" fill="#b4b4b4"/>
      <path id="Trazado_775727" data-name="Trazado 775727" d="M43.871,34.274,39.758,32.9,35.371,34l4.387,4.387Z" fill="#b4b4b4"/>
      <path id="Trazado_775728" data-name="Trazado 775728" d="M46.887,37.29l-1.645,2.468H42.5L40.855,37.29l3.016-3.016Z" fill="#e66967"/>
      <path id="Trazado_775729" data-name="Trazado 775729" d="M39.758,29.06V32.9l4.113,1.371L47.984,32.9V29.06Z" fill="#eeb8ab"/>
      <path id="Trazado_775730" data-name="Trazado 775730" d="M32.9,16.52V9.6a6.856,6.856,0,0,1,6.855-6.855h6.855a4.113,4.113,0,0,1,4.113,4.113,4.113,4.113,0,0,1,4.113,4.113V16.52" fill="#3f4042"/>
      <path id="Trazado_775731" data-name="Trazado 775731" d="M54.839,10.968a4.113,4.113,0,0,0-4.113-4.113,4.113,4.113,0,0,0-4.113-4.113H39.758A6.809,6.809,0,0,0,35.815,4a6.845,6.845,0,0,0-.17,1.481,6.923,6.923,0,0,0,6.923,6.923h12.27Z" fill="#5a5b5d"/>
      <g id="Grupo_1029431" data-name="Grupo 1029431">
        <path id="Trazado_775732" data-name="Trazado 775732" d="M52.1,15.081v6.855a8.226,8.226,0,0,1-16.452,0V15.081H40.3a9.238,9.238,0,0,0,7.686-4.113Z" fill="#eeb8ab"/>
        <path id="Trazado_775733" data-name="Trazado 775733" d="M35.645,16.452H33.589a3.427,3.427,0,0,0,0,6.855h2.17" fill="#eeb8ab"/>
        <path id="Trazado_775734" data-name="Trazado 775734" d="M52.1,16.452h2.056a3.427,3.427,0,0,1,0,6.855h-2.17" fill="#eeb8ab"/>
      </g>
      <path id="Trazado_775735" data-name="Trazado 775735" d="M46.613,54.839,45.242,39.758H42.5L41.129,54.839Z" fill="#e66967"/>
      <path id="Trazado_775736" data-name="Trazado 775736" d="M44.556,30.127a8.223,8.223,0,0,0,7.54-8.192V15.081l-4.113-4.113A9.238,9.238,0,0,1,40.3,15.081H37.016v6.855A8.223,8.223,0,0,0,44.556,30.127Z" fill="#ffe1d3"/>
      <path id="Trazado_775737" data-name="Trazado 775737" d="M47.984,30.423a8.147,8.147,0,0,1-6.855.631V32.9l3.427,1.142L47.984,32.9Z" fill="#ffe1d3"/>
      <path id="Trazado_775738" data-name="Trazado 775738" d="M43.871,39.758,42.5,54.839h4.113L45.242,39.758Z" fill="#ee8382"/>
      <path id="Trazado_775739" data-name="Trazado 775739" d="M32.9,43.871h2.742V54.839H32.9Z" fill="#959595"/>
      <path id="Trazado_775740" data-name="Trazado 775740" d="M15.081,67.177a4.436,4.436,0,0,1-3.968-2.453l-.351-.7A11.04,11.04,0,0,1,9.6,59.087V55.635a4.911,4.911,0,0,1,4.909-4.909H18.4a4.911,4.911,0,0,1,4.909,4.909v3.452a11.04,11.04,0,0,1-1.165,4.937l-.35.7a4.44,4.44,0,0,1-3.969,2.453Z" fill="#893b1b"/>
      <path id="Trazado_775741" data-name="Trazado 775741" d="M39.758,65.806h8.226v6.855H39.758Z" fill="#eeb8ab"/>
      <path id="Trazado_775742" data-name="Trazado 775742" d="M65.806,9.6H82.258A2.741,2.741,0,0,1,85,12.339V23.306a2.741,2.741,0,0,1-2.742,2.742H74.032L65.806,32.9l1.371-6.855H65.806a2.741,2.741,0,0,1-2.742-2.742V12.339A2.741,2.741,0,0,1,65.806,9.6Z" fill="#6ac4e8"/>
      <path id="Trazado_775743" data-name="Trazado 775743" d="M82.258,9.6H65.806v9.6a4.113,4.113,0,0,0,4.113,4.113H85V12.339A2.741,2.741,0,0,0,82.258,9.6Z" fill="#8edff8"/>
      <path id="Trazado_775744" data-name="Trazado 775744" d="M78.145,19.194h2.742v2.742H78.145Z" fill="#fff"/>
      <path id="Trazado_775745" data-name="Trazado 775745" d="M72.661,19.194H75.4v2.742H72.661Z" fill="#fff"/>
      <path id="Trazado_775746" data-name="Trazado 775746" d="M67.177,19.194h2.742v2.742H67.177Z" fill="#fff"/>
      <path id="Trazado_775747" data-name="Trazado 775747" d="M72.138,37.015a3.266,3.266,0,0,0-1.588.411l-2.976,1.653,3.351,5.864,2.532-1.381A3.735,3.735,0,0,0,75.4,40.282a3.267,3.267,0,0,0-3.266-3.267Z" fill="#ffe1d3"/>
      <path id="Trazado_775748" data-name="Trazado 775748" d="M19.949,50.978a4.894,4.894,0,0,0-1.552-.252H14.506a4.9,4.9,0,0,0-3.481,1.45,4.773,4.773,0,0,0-.058.717v3.452a11.04,11.04,0,0,0,1.165,4.937l.35.7a4.44,4.44,0,0,0,3.969,2.453h2.742a4.427,4.427,0,0,0,3.49-1.715,11.051,11.051,0,0,0,.622-3.633V55.635a4.908,4.908,0,0,0-3.358-4.657Z" fill="#a44b2f"/>
      <path id="Trazado_775749" data-name="Trazado 775749" d="M42.5,67.177a4.436,4.436,0,0,1-3.968-2.453l-.351-.7a11.04,11.04,0,0,1-1.165-4.937V55.635a4.911,4.911,0,0,1,4.909-4.909h3.891a4.911,4.911,0,0,1,4.909,4.909v3.452a11.04,11.04,0,0,1-1.165,4.937l-.35.7a4.44,4.44,0,0,1-3.969,2.453Z" fill="#3f4042"/>
      <path id="Trazado_775750" data-name="Trazado 775750" d="M69.919,67.177a4.436,4.436,0,0,1-3.968-2.453l-.351-.7a11.04,11.04,0,0,1-1.165-4.937V55.635a4.911,4.911,0,0,1,4.909-4.909h3.891a4.911,4.911,0,0,1,4.909,4.909v3.452a11.04,11.04,0,0,1-1.165,4.937l-.35.7a4.44,4.44,0,0,1-3.969,2.453Z" fill="#c99728"/>
      <path id="Trazado_775751" data-name="Trazado 775751" d="M74.788,50.978a4.894,4.894,0,0,0-1.552-.252H69.345a4.9,4.9,0,0,0-3.481,1.45,4.773,4.773,0,0,0-.058.717v3.452a11.04,11.04,0,0,0,1.165,4.937l.35.7a4.44,4.44,0,0,0,3.969,2.453h2.742a4.427,4.427,0,0,0,3.49-1.715,11.051,11.051,0,0,0,.622-3.633V55.635a4.908,4.908,0,0,0-3.357-4.657Z" fill="#e7b532"/>
      <path id="Trazado_775752" data-name="Trazado 775752" d="M47.368,50.978a4.894,4.894,0,0,0-1.552-.252H41.926a4.9,4.9,0,0,0-3.481,1.45,4.773,4.773,0,0,0-.058.717v3.452a11.04,11.04,0,0,0,1.165,4.937l.35.7a4.44,4.44,0,0,0,3.969,2.453h2.742A4.427,4.427,0,0,0,50.1,62.72a11.051,11.051,0,0,0,.622-3.633V55.635a4.908,4.908,0,0,0-3.358-4.657Z" fill="#5a5b5d"/>
      <path id="Trazado_775753" data-name="Trazado 775753" d="M5.484,86.371v-9.6A4.113,4.113,0,0,1,9.6,72.661h13.71a4.113,4.113,0,0,1,4.113,4.113v9.6" fill="#6bb566"/>
      <path id="Trazado_775754" data-name="Trazado 775754" d="M13.71,82.258h13.71V76.774a4.113,4.113,0,0,0-4.113-4.113H9.6v5.484A4.113,4.113,0,0,0,13.71,82.258Z" fill="#89c683"/>
      <path id="Trazado_775755" data-name="Trazado 775755" d="M32.9,86.371v-9.6a4.113,4.113,0,0,1,4.113-4.113h13.71a4.113,4.113,0,0,1,4.113,4.113v9.6" fill="#6bb566"/>
      <path id="Trazado_775756" data-name="Trazado 775756" d="M41.129,82.258h13.71V76.774a4.113,4.113,0,0,0-4.113-4.113H37.016v5.484A4.113,4.113,0,0,0,41.129,82.258Z" fill="#89c683"/>
      <path id="Trazado_775757" data-name="Trazado 775757" d="M60.323,86.371v-9.6a4.113,4.113,0,0,1,4.113-4.113h13.71a4.113,4.113,0,0,1,4.113,4.113v9.6" fill="#6bb566"/>
      <path id="Trazado_775758" data-name="Trazado 775758" d="M68.548,82.258h13.71V76.774a4.113,4.113,0,0,0-4.113-4.113H64.435v5.484A4.113,4.113,0,0,0,68.548,82.258Z" fill="#89c683"/>
      <path id="Trazado_775759" data-name="Trazado 775759" d="M42.5,68.548a4.435,4.435,0,0,1-2.742-.956v5.068h8.226V67.593a4.434,4.434,0,0,1-2.742.956Z" fill="#ffe1d3"/>
      <path id="Trazado_775760" data-name="Trazado 775760" d="M21.935,2.742H5.484A2.741,2.741,0,0,0,2.742,5.484V16.452a2.741,2.741,0,0,0,2.742,2.742H13.71l8.226,6.855-1.371-6.855h1.371a2.741,2.741,0,0,0,2.742-2.742V5.484A2.741,2.741,0,0,0,21.935,2.742Z" fill="#6ac4e8"/>
      <path id="Trazado_775761" data-name="Trazado 775761" d="M21.935,2.742H5.484v9.6A4.113,4.113,0,0,0,9.6,16.452H24.677V5.484A2.741,2.741,0,0,0,21.935,2.742Z" fill="#8edff8"/>
      <path id="Trazado_775762" data-name="Trazado 775762" d="M6.855,12.339H9.6v2.742H6.855Z" fill="#fff"/>
      <path id="Trazado_775763" data-name="Trazado 775763" d="M12.339,12.339h2.742v2.742H12.339Z" fill="#fff"/>
      <path id="Trazado_775764" data-name="Trazado 775764" d="M17.823,12.339h2.742v2.742H17.823Z" fill="#fff"/>
      <path id="Trazado_775765" data-name="Trazado 775765" d="M26.048,72.053a5.427,5.427,0,0,0-2.742-.762H21.935v-4.46a5.826,5.826,0,0,0,1.082-1.493l.35-.7a12.474,12.474,0,0,0,1.311-5.55V55.635a6.281,6.281,0,0,0-6.28-6.28H14.506a6.279,6.279,0,0,0-6.28,6.28v3.452a12.474,12.474,0,0,0,1.311,5.55l.35.7a5.8,5.8,0,0,0,1.082,1.493v4.46H9.6a5.489,5.489,0,0,0-5.484,5.484v9.6H6.855v-9.6A2.745,2.745,0,0,1,9.6,74.032h13.71a2.745,2.745,0,0,1,2.742,2.742v9.6H28.79V56.21h6.855v2.878a12.474,12.474,0,0,0,1.311,5.55l.35.7a5.826,5.826,0,0,0,1.082,1.493v4.46H37.016a5.489,5.489,0,0,0-5.484,5.484v9.6h2.742v-9.6a2.745,2.745,0,0,1,2.742-2.742h13.71a2.745,2.745,0,0,1,2.742,2.742v9.6H56.21v-9.6a5.489,5.489,0,0,0-5.484-5.484H49.355v-4.46a5.826,5.826,0,0,0,1.082-1.493l.35-.7a12.474,12.474,0,0,0,1.311-5.55V56.21h6.855V86.371h2.742v-9.6a2.745,2.745,0,0,1,2.742-2.742h13.71a2.745,2.745,0,0,1,2.742,2.742v9.6h2.742v-9.6a5.489,5.489,0,0,0-5.484-5.484H76.774v-4.46a5.826,5.826,0,0,0,1.082-1.493l.35-.7a12.474,12.474,0,0,0,1.311-5.55V55.635a6.281,6.281,0,0,0-6.28-6.28H69.345a6.279,6.279,0,0,0-6.28,6.28v3.452a12.474,12.474,0,0,0,1.311,5.55l.35.7a5.826,5.826,0,0,0,1.082,1.493v4.46H64.435a5.427,5.427,0,0,0-2.742.762V54.839a1.371,1.371,0,0,0-1.371-1.371H54.839V49.922l.572.572a5.569,5.569,0,0,0,6.485.935l12.217-6.663a5.105,5.105,0,0,0,2.662-4.484,4.638,4.638,0,0,0-6.89-4.054L59.645,41.916l-2.072-5.18c-.074-.185-.155-.367-.245-.548a7.1,7.1,0,0,0-4.99-3.811l-2.983-.6V29.8a9.624,9.624,0,0,0,3.708-5.122h1.09a4.787,4.787,0,0,0,2.056-9.116V10.968a5.493,5.493,0,0,0-4.253-5.344,5.493,5.493,0,0,0-5.344-4.253H39.758A8.234,8.234,0,0,0,31.532,9.6v5.965a4.787,4.787,0,0,0,2.056,9.116h1.09A9.619,9.619,0,0,0,38.387,29.8v2.033l-4.609,1.152a8.386,8.386,0,0,0-6.359,8.145V53.468a1.371,1.371,0,0,0-1.371,1.371ZM10.968,55.635A3.537,3.537,0,0,1,14.506,52.1H18.4a3.537,3.537,0,0,1,3.538,3.538v3.452a9.7,9.7,0,0,1-1.021,4.324l-.35.7a3.049,3.049,0,0,1-2.742,1.695H15.081a3.049,3.049,0,0,1-2.742-1.695l-.35-.7a9.7,9.7,0,0,1-1.021-4.324ZM13.71,68.374a5.832,5.832,0,0,0,1.371.174h2.742a5.832,5.832,0,0,0,1.371-.174V71.29H13.71Zm52.1-12.739A3.537,3.537,0,0,1,69.345,52.1h3.891a3.537,3.537,0,0,1,3.538,3.538v3.452a9.7,9.7,0,0,1-1.021,4.324l-.35.7a3.049,3.049,0,0,1-2.742,1.695H69.919a3.049,3.049,0,0,1-2.742-1.695l-.35-.7a9.7,9.7,0,0,1-1.021-4.324Zm2.742,12.739a5.832,5.832,0,0,0,1.371.174h2.742a5.832,5.832,0,0,0,1.371-.174V71.29H68.548ZM46.613,71.29H41.129V68.374a5.832,5.832,0,0,0,1.371.174h2.742a5.832,5.832,0,0,0,1.371-.174Zm2.742-12.2a9.7,9.7,0,0,1-1.021,4.324l-.35.7a3.049,3.049,0,0,1-2.742,1.695H42.5a3.049,3.049,0,0,1-2.742-1.695l-.35-.7a9.7,9.7,0,0,1-1.021-4.324V55.635A3.537,3.537,0,0,1,41.926,52.1h3.891a3.537,3.537,0,0,1,3.538,3.538ZM39.7,34.33l1.63.543-1.575,1.575-1.705-1.705Zm8.37-.011,1.7.34-1.79,1.789-1.575-1.575Zm-4.321,6.81h.237l.747,8.226H43Zm.119-4.916,1.252,1.252-.614.923H43.233l-.616-.923Zm27.345,2.412a1.9,1.9,0,0,1,2.816,1.658A2.367,2.367,0,0,1,72.8,42.359l-1.352.738-2-3.492ZM54.874,37.411c.053.11.1.219.151.337l2.651,6.631a1.37,1.37,0,0,0,.814.783,1.387,1.387,0,0,0,1.126-.093l7.439-4.133,1.985,3.473-8.456,4.613a2.773,2.773,0,0,1-3.234-.466l-2.913-2.913a1.371,1.371,0,0,0-2.34.971v6.855h-.4a6.262,6.262,0,0,0-3.9-3.791c-.095-.032-.192-.044-.288-.071l-.862-9.49.462-.694a1.335,1.335,0,0,0,1.84-.066l3.918-3.918a4.374,4.374,0,0,1,2,1.973Zm-.721-15.475h-.685V17.823h.685a2.056,2.056,0,0,1,0,4.113ZM34.274,9.6a5.489,5.489,0,0,1,5.484-5.484h6.855a2.745,2.745,0,0,1,2.742,2.742,1.371,1.371,0,0,0,1.371,1.371,2.745,2.745,0,0,1,2.742,2.742v4.113a1.367,1.367,0,0,0-.4-.969L48.953,10a1.371,1.371,0,0,0-2.11.208,7.848,7.848,0,0,1-6.544,3.5H35.645a1.371,1.371,0,0,0-1.371,1.371Zm-.685,12.339a2.056,2.056,0,1,1,0-4.113h.685v4.113Zm3.427,0V16.452H40.3a10.581,10.581,0,0,0,7.806-3.425l2.62,2.621v6.287a6.855,6.855,0,0,1-13.71,0Zm6.855,9.6a9.536,9.536,0,0,0,2.742-.4v.787l-2.742.914-2.742-.914v-.787A9.536,9.536,0,0,0,43.871,31.532Zm-13.71,9.6a5.644,5.644,0,0,1,4.282-5.484l.507-.127,3.839,3.839a1.335,1.335,0,0,0,1.84.066l.462.694-.862,9.49c-.1.027-.193.04-.288.071a6.263,6.263,0,0,0-3.895,3.791h-.4v-9.6H32.9v9.6H30.161Z"/>
      <path id="Trazado_775766" data-name="Trazado 775766" d="M5.484,20.565h7.73L21.058,27.1a1.371,1.371,0,0,0,2.221-1.323l-1.045-5.226a4.116,4.116,0,0,0,3.814-4.1V5.484a4.118,4.118,0,0,0-4.113-4.113H5.484A4.118,4.118,0,0,0,1.371,5.484V16.452a4.118,4.118,0,0,0,4.113,4.113ZM4.113,5.484A1.373,1.373,0,0,1,5.484,4.113H21.935a1.373,1.373,0,0,1,1.371,1.371V16.452a1.373,1.373,0,0,1-1.371,1.371H20.565a1.37,1.37,0,0,0-1.344,1.64l.609,3.046-5.243-4.368a1.369,1.369,0,0,0-.877-.318H5.484a1.373,1.373,0,0,1-1.371-1.371Z"/>
      <path id="Trazado_775767" data-name="Trazado 775767" d="M6.855,12.339H9.6v2.742H6.855Z"/>
      <path id="Trazado_775768" data-name="Trazado 775768" d="M12.339,12.339h2.742v2.742H12.339Z"/>
      <path id="Trazado_775769" data-name="Trazado 775769" d="M17.823,12.339h2.742v2.742H17.823Z"/>
      <path id="Trazado_775770" data-name="Trazado 775770" d="M82.258,8.226H65.806a4.118,4.118,0,0,0-4.113,4.113V23.306a4.118,4.118,0,0,0,3.814,4.1l-1.045,5.226a1.37,1.37,0,0,0,2.221,1.322l7.845-6.537h7.73a4.118,4.118,0,0,0,4.113-4.113V12.339a4.118,4.118,0,0,0-4.113-4.113Zm1.371,15.081a1.373,1.373,0,0,1-1.371,1.371H74.032a1.369,1.369,0,0,0-.877.318l-5.243,4.368.609-3.046a1.37,1.37,0,0,0-1.344-1.64H65.806a1.373,1.373,0,0,1-1.371-1.371V12.339a1.373,1.373,0,0,1,1.371-1.371H82.258a1.373,1.373,0,0,1,1.371,1.371Z"/>
      <path id="Trazado_775771" data-name="Trazado 775771" d="M78.145,19.194h2.742v2.742H78.145Z"/>
      <path id="Trazado_775772" data-name="Trazado 775772" d="M72.661,19.194H75.4v2.742H72.661Z"/>
      <path id="Trazado_775773" data-name="Trazado 775773" d="M67.177,19.194h2.742v2.742H67.177Z"/>
    </g>
  </g>
</svg>
