<svg xmlns="http://www.w3.org/2000/svg" xmlns:xlink="http://www.w3.org/1999/xlink" width="85" height="85" viewBox="0 0 85 85">
  <defs>
    <clipPath id="clip-path">
      <rect id="Rectángulo_361658" data-name="Rectángulo 361658" width="56" height="56" transform="translate(615 2609)" fill="#2d54fe"/>
    </clipPath>
  </defs>
  <g id="Grupo_1029814" data-name="Grupo 1029814" transform="translate(-600 -2595)">
    <circle id="Elipse_8764" data-name="Elipse 8764" cx="42.5" cy="42.5" r="42.5" transform="translate(600 2595)" fill="#ffca00"/>
    <g id="Enmascarar_grupo_998594" data-name="Enmascarar grupo 998594" clip-path="url(#clip-path)">
      <g id="estadisticas" transform="translate(615 2609)">
        <path id="Trazado_775475" data-name="Trazado 775475" d="M17.463,33.237a3.607,3.607,0,0,1-5,5l-1,1.507a5.415,5.415,0,0,0,7.5-7.5Zm0,0" fill="#2d54fe"/>
        <path id="Trazado_775476" data-name="Trazado 775476" d="M14.452,31.613a3.59,3.59,0,0,1,1.988.6l1-1.506a5.415,5.415,0,0,0-7.5,7.5l1.507-1a3.608,3.608,0,0,1,3.011-5.6Zm0,0" fill="#2d54fe"/>
        <path id="Trazado_775477" data-name="Trazado 775477" d="M32.516,37.935v5.419h3.613V41.548H34.323V37.935Zm0,0" fill="#2d54fe"/>
        <path id="Trazado_775478" data-name="Trazado 775478" d="M33.419,32.516a9.955,9.955,0,0,0-6.287,2.244l1.145,1.4a8.133,8.133,0,0,1,4.239-1.779v1.75h1.806V34.376a8.14,8.14,0,0,1,7.172,7.172H39.742v1.806h1.75a8.136,8.136,0,0,1-1.779,4.24l1.4,1.144a9.934,9.934,0,0,0-7.691-16.223Zm0,0" fill="#2d54fe"/>
        <path id="Trazado_775479" data-name="Trazado 775479" d="M34.323,50.524v-1.75H32.516v1.753a8.14,8.14,0,0,1-7.172-7.172H27.1V41.548h-1.75a8.136,8.136,0,0,1,1.779-4.24l-1.4-1.144A9.934,9.934,0,0,0,39.707,50.144l-1.145-1.4a8.13,8.13,0,0,1-4.239,1.779Zm0,0" fill="#2d54fe"/>
        <path id="Trazado_775480" data-name="Trazado 775480" d="M50.581,41.548H48.774V16.258H43.355V33.271a13.621,13.621,0,0,0-1.806-1.633V20.774H36.129v8.4a13.588,13.588,0,0,0-1.806-.228V25.29H28.9v4.4a13.48,13.48,0,0,0-2.58,1.238,12.49,12.49,0,0,0-.624-1.469l1.428-2-4.913-4.914-2,1.429a12.578,12.578,0,0,0-1.882-.777l-.4-2.427H10.977l-.4,2.427a12.578,12.578,0,0,0-1.882.777l-2-1.429L1.777,27.463l1.428,2a12.414,12.414,0,0,0-.778,1.882L0,31.751V38.7l2.427.4A12.505,12.505,0,0,0,3.2,40.987l-1.428,2L6.689,47.9l2-1.429a12.578,12.578,0,0,0,1.882.777l.4,2.428h6.951l.4-2.427a12.577,12.577,0,0,0,1.882-.777l.361.258a13.534,13.534,0,0,0,26.348-3.377H56V9.032H50.581ZM45.161,18.064h1.806V41.548h-.046a13.444,13.444,0,0,0-1.761-5.827Zm-7.226,4.516h1.806v7.9a13.436,13.436,0,0,0-1.806-.784ZM30.71,27.1h1.806v1.852a13.515,13.515,0,0,0-1.806.228ZM19.83,44.627A10.747,10.747,0,0,1,17.3,45.673l-.559.152L16.4,47.871H12.507l-.341-2.046-.559-.152a10.763,10.763,0,0,1-2.535-1.047l-.5-.288-1.684,1.2-2.75-2.749,1.2-1.686-.288-.5A10.732,10.732,0,0,1,4,38.07l-.151-.559-2.046-.34V33.281l2.046-.34L4,32.382a10.76,10.76,0,0,1,1.047-2.534l.288-.5-1.2-1.686,2.75-2.749,1.684,1.2.5-.288a10.747,10.747,0,0,1,2.535-1.047l.559-.152.341-2.046H16.4l.341,2.046.559.152a10.763,10.763,0,0,1,2.535,1.047l.5.288,1.684-1.2,2.75,2.749-1.2,1.686.288.5a10.744,10.744,0,0,1,.926,2.178,13.709,13.709,0,0,0-1.47,1.438,9.067,9.067,0,1,0-3.438,8.964c0,.008,0,.016,0,.024a13.519,13.519,0,0,0,.172,2.053Zm1.825-8.869a13.478,13.478,0,0,0-1.484,3.871,7.216,7.216,0,1,1,1.507-4.4c0,.18-.01.356-.022.532ZM33.419,54.194A11.742,11.742,0,1,1,45.161,42.452,11.756,11.756,0,0,1,33.419,54.194ZM52.387,10.839h1.806v30.71H52.387Zm0,0" fill="#2d54fe"/>
        <path id="Trazado_775481" data-name="Trazado 775481" d="M50.581,0V1.806h1.941l-6.39,5.112L43.355,4.142,39.1,8.4a2.667,2.667,0,0,0-1.161-.272,2.713,2.713,0,0,0-2.71,2.71,2.678,2.678,0,0,0,.339,1.284l-4.721,5.246a2.7,2.7,0,0,0-1.037-.208c-.017,0-.033,0-.05.005L26.125,7.481A2.705,2.705,0,1,0,21.74,5.988l-7.4,4.556a2.679,2.679,0,0,0-4.233,1.2H5.253a2.71,2.71,0,1,0,0,1.806H10.1a2.7,2.7,0,0,0,5.191-1.472L22.7,7.52a2.677,2.677,0,0,0,1.689.609c.017,0,.033,0,.05-.005l3.632,9.685a2.716,2.716,0,1,0,4.109.778L36.9,13.341a2.707,2.707,0,0,0,3.747-2.5,2.667,2.667,0,0,0-.272-1.161L43.355,6.7,46,9.339l8.2-6.556V5.419H56V0ZM2.71,13.548a.9.9,0,1,1,.9-.9A.9.9,0,0,1,2.71,13.548Zm9.935,0a.9.9,0,1,1,.9-.9A.9.9,0,0,1,12.645,13.548ZM23.484,5.419a.9.9,0,1,1,.9.9A.9.9,0,0,1,23.484,5.419Zm6.323,15.355a.9.9,0,1,1,.9-.9A.9.9,0,0,1,29.806,20.774Zm8.129-9.032a.9.9,0,1,1,.9-.9A.9.9,0,0,1,37.935,11.742Zm0,0" fill="#2d54fe"/>
      </g>
    </g>
  </g>
</svg>
