<svg xmlns="http://www.w3.org/2000/svg" xmlns:xlink="http://www.w3.org/1999/xlink" width="148.59" height="286.463" viewBox="0 0 148.59 286.463">
  <defs>
    <clipPath id="clip-path">
      <rect id="Rectángulo_361875" data-name="Rectángulo 361875" width="57" height="57" transform="translate(299 6895)" fill="#fe502d"/>
    </clipPath>
  </defs>
  <g id="Grupo_1029812" data-name="Grupo 1029812" transform="translate(-253 -6772.584)">
    <g id="Grupo_1029726" data-name="Grupo 1029726" transform="translate(42.296 8)">
      <path id="Trazado_776547" data-name="Trazado 776547" d="M0,95.7v84.32l74.295,74.294,74.3-74.294V95.7l-74.3-74.3Z" transform="translate(210.705 6743.184)" fill="#2d54fe"/>
      <path id="Trazado_776548" data-name="Trazado 776548" d="M23.776,188.283V115.452L84.2,55.026l60.428,60.428v72.829L84.2,248.711Z" transform="translate(200.796 6729.17)" fill="#fff"/>
      <rect id="Rectángulo_361835" data-name="Rectángulo 361835" width="82.345" height="82.345" transform="translate(226.772 6822.812) rotate(-45)" fill="#2d54fe"/>
      <rect id="Rectángulo_361836" data-name="Rectángulo 361836" width="4.902" height="2.451" transform="translate(282.548 7032.688)" fill="#1a608d"/>
      <path id="Trazado_776549" data-name="Trazado 776549" d="M128.08,627.589h-4.9v-4.877h4.9Zm0-9.751h-4.9v-4.877h4.9Zm0-9.75h-4.9v-4.877h4.9Zm0-9.751h-4.9v-4.877h4.9Z" transform="translate(159.37 6400.223)" fill="#2d54fe"/>
      <path id="Trazado_776550" data-name="Trazado 776550" d="M131.922,701.942a15.908,15.908,0,1,1-15.908-15.907,15.908,15.908,0,0,1,15.908,15.907" transform="translate(168.985 6333.197)" fill="#2d54fe"/>
      <path id="Trazado_776586" data-name="Trazado 776586" d="M106.269,114.228l-3.033,10.934H93.249l13.02-42.6H118.91l13.21,42.6H121.755l-3.287-10.934Zm10.808-7.205-2.654-9.039c-.759-2.528-1.517-5.688-2.149-8.217h-.127c-.632,2.528-1.264,5.752-1.959,8.217l-2.528,9.039Z" transform="translate(171.843 6717.695)" fill="#fff"/>
    </g>
    <g id="Enmascarar_grupo_998660" data-name="Enmascarar grupo 998660" clip-path="url(#clip-path)">
      <g id="analisis" transform="translate(297.963 6893.963)">
        <g id="Grupo_1029731" data-name="Grupo 1029731">
          <path id="Trazado_776604" data-name="Trazado 776604" d="M35.761,39.837a3.326,3.326,0,0,0-2.351,5.676.987.987,0,0,1,0,1.4l-2.124,2.124a.987.987,0,0,1-1.4,0,3.326,3.326,0,0,0-5.676,2.351.987.987,0,0,1-.987.987h-3a.987.987,0,0,1-.987-.987,3.325,3.325,0,0,0-5.676-2.351.987.987,0,0,1-1.4,0l-2.124-2.124a.987.987,0,0,1,0-1.4A3.326,3.326,0,0,0,7.69,39.837a.987.987,0,0,1-.987-.987v-3a.987.987,0,0,1,.987-.987,3.326,3.326,0,0,0,2.351-5.676.987.987,0,0,1,0-1.4l2.124-2.124a.987.987,0,0,1,1.4,0,3.326,3.326,0,0,0,5.676-2.351.987.987,0,0,1,.987-.987h3a.987.987,0,0,1,.987.987,3.326,3.326,0,0,0,5.676,2.351.987.987,0,0,1,1.4,0l2.124,2.124a.987.987,0,0,1,0,1.4,3.326,3.326,0,0,0,2.351,5.676.987.987,0,0,1,.987.987v3A.987.987,0,0,1,35.761,39.837ZM21.725,30.131a7.218,7.218,0,1,0,7.218,7.218A7.218,7.218,0,0,0,21.725,30.131Z" fill="#fdcd56" fill-rule="evenodd"/>
          <g id="Grupo_1029729" data-name="Grupo 1029729">
            <path id="Trazado_776605" data-name="Trazado 776605" d="M39.963,30.989A8.969,8.969,0,0,1,47.13,45.352l2.736,2.736L48.093,49.86l-2.736-2.736a8.969,8.969,0,1,1-5.394-16.135Z" fill="#a9b0bb" fill-rule="evenodd"/>
            <path id="Trazado_776606" data-name="Trazado 776606" d="M47.689,49.039l1.354-1.354a1.154,1.154,0,0,1,1.627,0l6.224,6.224a1.154,1.154,0,0,1,0,1.627L55.54,56.889a1.154,1.154,0,0,1-1.627,0l-6.224-6.224A1.154,1.154,0,0,1,47.689,49.039Z" fill="#636c77" fill-rule="evenodd"/>
            <circle id="Elipse_8867" data-name="Elipse 8867" cx="7.065" cy="7.065" r="7.065" transform="translate(32.898 32.893)" fill="#a4d4ff"/>
          </g>
          <g id="Grupo_1029730" data-name="Grupo 1029730">
            <path id="Trazado_776607" data-name="Trazado 776607" d="M46.811,1.844,57.23,7.859v12.03L46.811,25.9,36.393,19.889V7.859Z" fill="#937661" fill-rule="evenodd"/>
            <path id="Trazado_776608" data-name="Trazado 776608" d="M36.393,7.859v12.03L46.811,25.9V13.874Z" fill="#d5a889" fill-rule="evenodd"/>
            <path id="Trazado_776609" data-name="Trazado 776609" d="M46.811,1.844,57.23,7.859,46.811,13.874,36.393,7.859Z" fill="#e8bf9d" fill-rule="evenodd"/>
            <path id="Trazado_776610" data-name="Trazado 776610" d="M40.153,15.043l2.9,1.673V11.7l-2.9-1.673ZM50.572,4.015l2.9,1.673L43.051,11.7l-2.9-1.673Z" fill="#efc7a4" fill-rule="evenodd"/>
            <path id="Trazado_776611" data-name="Trazado 776611" d="M40.153,10.03v5.013l2.9,1.673V11.7Z" fill="#e4bb99" fill-rule="evenodd"/>
          </g>
        </g>
        <path id="Trazado_776612" data-name="Trazado 776612" d="M36.337,50.848a.809.809,0,0,1,0,1.142,20.752,20.752,0,0,1-4.756,3.55l1.2.422a.808.808,0,0,1-.271,1.57.8.8,0,0,1-.266-.046L29.2,56.416a.811.811,0,0,1-.494-1.029l1.07-3.039a.808.808,0,0,1,1.526.535l-.423,1.2a18.94,18.94,0,0,0,4.311-3.234.812.812,0,0,1,1.145,0ZM15.483,18.456a.8.8,0,0,1,.554-1A20.715,20.715,0,0,1,39.86,27.4a.811.811,0,0,1-.32,1.1.8.8,0,0,1-.385.1.808.808,0,0,1-.711-.419,19.1,19.1,0,0,0-21.961-9.167.807.807,0,0,1-1-.555ZM27.965,56.244a.809.809,0,0,0-1-.555,19.075,19.075,0,0,1-14.4-35.07l-.418,1.2a.806.806,0,1,0,1.52.537l1.07-3.039a.8.8,0,0,0-.489-1.03l-3.04-1.069a.807.807,0,1,0-.537,1.523l1.2.422A20.692,20.692,0,0,0,27.411,57.243a.811.811,0,0,0,.554-1Zm28.356-1.278L54.964,56.32a.345.345,0,0,1-.483,0L48.259,50.1a.349.349,0,0,1,0-.485l1.352-1.353a.35.35,0,0,1,.489,0l6.222,6.223a.349.349,0,0,1,0,.484Zm-9.143-8.418.928.929-.63.631-.928-.93C46.766,46.977,46.978,46.767,47.178,46.548ZM31.8,39.961A8.163,8.163,0,1,0,39.963,31.8,8.173,8.173,0,0,0,31.8,39.961ZM57.461,53.339l-6.222-6.223a1.949,1.949,0,0,0-1.384-.572,2.008,2.008,0,0,0-.364.033l-1.319-1.32a9.788,9.788,0,1,0-2.915,2.916l1.319,1.319a1.954,1.954,0,0,0,.543,1.748l6.222,6.224a1.961,1.961,0,0,0,2.769,0l1.352-1.355a1.957,1.957,0,0,0,0-2.769Zm-17.5-7.844A5.534,5.534,0,1,1,45.5,39.961a5.538,5.538,0,0,1-5.538,5.533Zm0-12.683a7.149,7.149,0,1,0,7.15,7.15A7.154,7.154,0,0,0,39.958,32.811Zm-7.123-4.2a4.129,4.129,0,0,0-.825,1.169.808.808,0,0,0,1.46.691,2.461,2.461,0,0,1,.51-.718,1.8,1.8,0,0,0,0-2.538l-2.128-2.124a1.793,1.793,0,0,0-2.535,0,2.517,2.517,0,0,1-4.294-1.779,1.8,1.8,0,0,0-1.8-1.8h-3a1.8,1.8,0,0,0-1.8,1.8,2.517,2.517,0,0,1-4.294,1.779,1.8,1.8,0,0,0-2.541,0L9.468,27.219a1.8,1.8,0,0,0,0,2.538,2.518,2.518,0,0,1-1.781,4.3,1.8,1.8,0,0,0-1.8,1.794v3a1.8,1.8,0,0,0,1.8,1.794,2.52,2.52,0,0,1,1.781,4.3,1.791,1.791,0,0,0,0,2.537L11.591,49.6a1.8,1.8,0,0,0,2.541,0,2.516,2.516,0,0,1,4.294,1.78,1.8,1.8,0,0,0,1.8,1.794h3a1.8,1.8,0,0,0,1.8-1.794,2.517,2.517,0,0,1,4.294-1.78,1.79,1.79,0,0,0,2.535,0l.255-.252a.807.807,0,1,0-1.14-1.142l-.255.253a.181.181,0,0,1-.255,0A4.133,4.133,0,0,0,23.4,51.385a.179.179,0,0,1-.179.179h-3a.176.176,0,0,1-.179-.179,4.135,4.135,0,0,0-7.058-2.923.173.173,0,0,1-.25,0l-2.128-2.124a.187.187,0,0,1,0-.253,4.133,4.133,0,0,0-2.921-7.055.179.179,0,0,1-.179-.179v-3a.18.18,0,0,1,.179-.179,4.132,4.132,0,0,0,2.921-7.054.189.189,0,0,1,0-.254l2.128-2.124a.176.176,0,0,1,.25,0,4.136,4.136,0,0,0,7.058-2.921.177.177,0,0,1,.179-.18h3a.181.181,0,0,1,.179.18,4.133,4.133,0,0,0,7.052,2.921.18.18,0,0,1,.13-.052.177.177,0,0,1,.125.052l2.123,2.124A.179.179,0,0,1,32.835,28.615ZM15.31,37.35a6.411,6.411,0,0,0,11.83,3.426.809.809,0,0,1,1.368.865,8.028,8.028,0,1,1,.928-6.508.808.808,0,1,1-1.553.445A6.412,6.412,0,0,0,15.31,37.35Zm31.5-34.571,2.145,1.238L40.153,9.1,38,7.86Zm.809,21.729V14.342l8.8-5.082V19.425ZM42.243,12.171v3.147l-1.287-.74V11.43Zm.8-1.4L51.853,5.69,50.572,4.95l-8.806,5.082Zm1.618.932,2.145,1.238,8.8-5.083L53.465,6.622ZM37.2,9.26V19.425L46,24.507V14.342L43.856,13.1v3.615a.806.806,0,0,1-.4.7.808.808,0,0,1-.809,0l-2.9-1.673a.809.809,0,0,1-.4-.7V10.5ZM35.989,20.59l10.418,6.016a.8.8,0,0,0,.8,0L57.629,20.59a.811.811,0,0,0,.407-.7V7.86a.811.811,0,0,0-.407-.7L47.211,1.147a.8.8,0,0,0-.8,0L35.989,7.161a.8.8,0,0,0-.407.7V19.891A.8.8,0,0,0,35.989,20.59Z" fill-rule="evenodd"/>
      </g>
    </g>
  </g>
</svg>
