<svg xmlns="http://www.w3.org/2000/svg" xmlns:xlink="http://www.w3.org/1999/xlink" width="85" height="85" viewBox="0 0 85 85">
  <defs>
    <clipPath id="clip-path">
      <rect id="Rectángulo_361722" data-name="Rectángulo 361722" width="85" height="85" transform="translate(-3447 -11169)" fill="#fff"/>
    </clipPath>
  </defs>
  <g id="Enmascarar_grupo_998604" data-name="Enmascarar grupo 998604" transform="translate(3447 11169)" clip-path="url(#clip-path)">
    <g id="cientifico-de-datos" transform="translate(-3447 -11169)">
      <path id="Trazado_775799" data-name="Trazado 775799" d="M83.583,4.25V45.333L82.167,46.75h-59.5L21.25,45.333V4.25a2.842,2.842,0,0,1,2.833-2.833H80.75A2.842,2.842,0,0,1,83.583,4.25Z" fill="#4580c6"/>
      <path id="Trazado_775800" data-name="Trazado 775800" d="M63.75,59.5v1.417H41.962L41.083,59.5l1.289-.439a6.962,6.962,0,0,0,4.378-6.644V51H58.083v1.417A7.252,7.252,0,0,0,63.75,59.5Z" fill="#a3bdce"/>
      <path id="Trazado_775801" data-name="Trazado 775801" d="M68,63.75a1.417,1.417,0,0,1-1.417,1.417H44.568l-2.607-4.25L41.083,59.5H63.75A4.25,4.25,0,0,1,68,63.75Z" fill="#c4ddf0"/>
      <path id="Trazado_775802" data-name="Trazado 775802" d="M83.583,45.333v4.25a2.842,2.842,0,0,1-2.833,2.833H21.25V45.333Z" fill="#c4ddf0"/>
      <path id="Trazado_775803" data-name="Trazado 775803" d="M70.833,7.083a7.083,7.083,0,1,0,7.083,7.083A7.083,7.083,0,0,0,70.833,7.083Z" fill="#65ccaa"/>
      <path id="Trazado_775804" data-name="Trazado 775804" d="M77.917,14.167a7.092,7.092,0,0,1-12.1,5.015l5.015-5.015Z" fill="#fde36e"/>
      <path id="Trazado_775805" data-name="Trazado 775805" d="M77.917,14.167H70.833V7.083A7.083,7.083,0,0,1,77.917,14.167Z" fill="#76e6c6"/>
      <path id="Trazado_775806" data-name="Trazado 775806" d="M35.417,56.667A11.333,11.333,0,0,1,46.75,68V79.333a4.25,4.25,0,0,1-4.25,4.25H5.667a4.25,4.25,0,0,1-4.25-4.25V68A11.333,11.333,0,0,1,12.75,56.667Z" fill="#38689b"/>
      <path id="Trazado_775807" data-name="Trazado 775807" d="M29.75,52.417l5.667,4.25L30.341,62.08a.815.815,0,0,1-1.181,0l-5.076-5.413L19.007,62.08a.815.815,0,0,1-1.181,0L12.75,56.667l5.667-4.25Z" fill="#e4f1ff"/>
      <path id="Trazado_775808" data-name="Trazado 775808" d="M29.75,46.75v5.667l-5.667,4.25-5.667-4.25V46.75Z" fill="#eac2aa"/>
      <path id="Trazado_775809" data-name="Trazado 775809" d="M7.083,31.167A53.6,53.6,0,0,1,5.667,19.833,16.228,16.228,0,0,1,5.95,16.8a6.658,6.658,0,0,1,2.408-3.938,7.065,7.065,0,0,1,4.392-1.53s1.417-4.25,11.333-4.25c4.958,0,7.792,1.062,9.378,2.125a4.773,4.773,0,0,1,1.955,2.125,6.885,6.885,0,0,1,6.8,5.468,16.228,16.228,0,0,1,.283,3.032,53.606,53.606,0,0,1-1.417,11.333Z" fill="#725852"/>
      <path id="Trazado_775810" data-name="Trazado 775810" d="M41.083,31.167a4.25,4.25,0,0,1-3.172,4.108,1.428,1.428,0,0,0-1.123,1.214,12.75,12.75,0,0,1-25.409,0,1.428,1.428,0,0,0-1.123-1.214,4.25,4.25,0,0,1,.017-8.229,1.436,1.436,0,0,0,1.116-1.207,8.83,8.83,0,0,1,6.575-7.394.606.606,0,0,1,.666.212,6.321,6.321,0,0,0,5.454,2.593,6.321,6.321,0,0,0,5.454-2.593.606.606,0,0,1,.666-.212,8.83,8.83,0,0,1,6.575,7.4,1.437,1.437,0,0,0,1.116,1.207A4.25,4.25,0,0,1,41.083,31.167Z" fill="#f9d6bd"/>
      <path id="Trazado_775811" data-name="Trazado 775811" d="M80.75,0H24.083a4.25,4.25,0,0,0-4.25,4.25V5.961c-5.025.752-7.123,2.778-7.948,4a8.561,8.561,0,0,0-4.411,1.8,8.1,8.1,0,0,0-2.916,4.78,17.6,17.6,0,0,0-.309,3.3A54.4,54.4,0,0,0,5.688,31.422a5.559,5.559,0,0,0,4.278,5.191A14.2,14.2,0,0,0,17,47.644v4.064l-4.756,3.567A12.75,12.75,0,0,0,0,68V79.333A5.667,5.667,0,0,0,5.667,85H42.5a5.667,5.667,0,0,0,5.667-5.667V68a12.657,12.657,0,0,0-.084-1.417h18.5a2.833,2.833,0,0,0,2.833-2.833,5.667,5.667,0,0,0-5.383-5.638,5.855,5.855,0,0,1-4.377-4.278H80.75A4.25,4.25,0,0,0,85,49.583V4.25A4.25,4.25,0,0,0,80.75,0ZM22.667,4.25a1.417,1.417,0,0,1,1.417-1.417H80.75A1.417,1.417,0,0,1,82.167,4.25V43.917H35.417a14.152,14.152,0,0,0,2.857-7.266,5.654,5.654,0,0,0,4.209-5.229,54.424,54.424,0,0,0,1.434-11.588h5.667a1.417,1.417,0,1,0,0-2.833h-5.91c-.025-.157-.038-.317-.068-.473a7.987,7.987,0,0,0-.88-2.36H56.667a1.417,1.417,0,1,0,0-2.833H40.092a8.432,8.432,0,0,0-3.818-1.374,7.29,7.29,0,0,0-2.023-1.928c-2.345-1.568-5.766-2.364-10.167-2.364-.492,0-.962.011-1.417.03ZM7.343,17.071a5.189,5.189,0,0,1,1.9-3.1A5.61,5.61,0,0,1,12.75,12.75a1.487,1.487,0,0,0,1.329-.925c.013-.034,1.465-3.325,10-3.325,4.773,0,7.306,1.026,8.595,1.888a3.879,3.879,0,0,1,1.4,1.393,1.417,1.417,0,0,0,1.343.969,5.468,5.468,0,0,1,5.407,4.318c.085.441.142.888.19,1.342v.037c.044.459.065.922.065,1.387a46.4,46.4,0,0,1-.606,7.028,5.643,5.643,0,0,0-2.291-1.169A10.22,10.22,0,0,0,30.6,17.085a2.051,2.051,0,0,0-2.235.772,4.939,4.939,0,0,1-4.281,1.976,4.95,4.95,0,0,1-4.311-2.014,2.033,2.033,0,0,0-2.206-.734c-.1.028-.215.064-.343.106a10.233,10.233,0,0,0-7.307,8.486,5.63,5.63,0,0,0-2.235,1.169,46.387,46.387,0,0,1-.6-7.012,14.76,14.76,0,0,1,.259-2.763ZM12.79,36.377a2.813,2.813,0,0,0-2.179-2.468,2.833,2.833,0,0,1,.014-5.487A2.833,2.833,0,0,0,12.8,25.994a7.279,7.279,0,0,1,5.05-6.019,7.85,7.85,0,0,0,6.233,2.692,7.85,7.85,0,0,0,6.233-2.692,9.321,9.321,0,0,1,1.378.63A6.888,6.888,0,0,1,35.37,26v.011a2.833,2.833,0,0,0,2.172,2.414,2.833,2.833,0,0,1,.013,5.487,2.809,2.809,0,0,0-2.177,2.465,11.333,11.333,0,0,1-22.589,0Zm16.96,17.81L33.3,56.851,29.75,60.633,26.2,56.851Zm-5.667-4.6a13.949,13.949,0,0,0,4.25-.673v2.8L24.083,54.9l-4.25-3.187v-2.8a13.942,13.942,0,0,0,4.25.673Zm-5.667,4.6,3.552,2.663-3.552,3.782-3.552-3.782ZM45.333,79.333A2.833,2.833,0,0,1,42.5,82.167H5.667a2.833,2.833,0,0,1-2.833-2.833V68a9.917,9.917,0,0,1,9.332-9.887l4.642,4.958a2.233,2.233,0,0,0,3.233-.017l4.043-4.317,4.057,4.328a2.233,2.233,0,0,0,3.233-.017L36,58.113A9.917,9.917,0,0,1,45.333,68ZM66.583,63.75H47.423a12.635,12.635,0,0,0-1.417-2.833H63.75A2.833,2.833,0,0,1,66.583,63.75Zm-7.854-5.667H46.1a8.181,8.181,0,0,0,1.954-4.25H56.78a8.109,8.109,0,0,0,1.949,4.25ZM80.75,51H36.833a1.417,1.417,0,1,0,0,2.833h8.336A5.383,5.383,0,0,1,42.5,57.406a12.668,12.668,0,0,0-6.578-2.125l-4.756-3.573V47.647a14.429,14.429,0,0,0,1.371-.9H82.167v2.833A1.417,1.417,0,0,1,80.75,51Z"/>
      <path id="Trazado_775812" data-name="Trazado 775812" d="M70.833,22.667a8.5,8.5,0,1,0-8.5-8.5,8.5,8.5,0,0,0,8.5,8.5Zm0-2.833a5.592,5.592,0,0,1-2.86-.8l3.447-3.447H76.3A5.667,5.667,0,0,1,70.833,19.833ZM76.3,12.75H72.25V8.7A5.654,5.654,0,0,1,76.3,12.75ZM69.417,8.7V13.58L65.97,17.027a5.591,5.591,0,0,1-.8-2.86A5.667,5.667,0,0,1,69.417,8.7Z"/>
      <path id="Trazado_775813" data-name="Trazado 775813" d="M43.917,36.833A1.417,1.417,0,0,0,42.5,38.25v1.417a1.417,1.417,0,1,0,2.833,0V38.25A1.417,1.417,0,0,0,43.917,36.833Z"/>
      <path id="Trazado_775814" data-name="Trazado 775814" d="M49.583,32.583A1.417,1.417,0,0,0,48.167,34v5.667a1.417,1.417,0,0,0,2.833,0V34A1.417,1.417,0,0,0,49.583,32.583Z"/>
      <path id="Trazado_775815" data-name="Trazado 775815" d="M55.25,28.333a1.417,1.417,0,0,0-1.417,1.417v9.917a1.417,1.417,0,1,0,2.833,0V29.75A1.417,1.417,0,0,0,55.25,28.333Z"/>
      <path id="Trazado_775816" data-name="Trazado 775816" d="M60.917,41.083a1.417,1.417,0,0,0,1.417-1.417v-4.25a1.417,1.417,0,0,0-2.833,0v4.25A1.417,1.417,0,0,0,60.917,41.083Z"/>
      <path id="Trazado_775817" data-name="Trazado 775817" d="M66.583,31.167a1.417,1.417,0,0,0-1.417,1.417v7.083a1.417,1.417,0,1,0,2.833,0V32.583A1.417,1.417,0,0,0,66.583,31.167Z"/>
      <path id="Trazado_775818" data-name="Trazado 775818" d="M72.25,28.333a1.417,1.417,0,0,0-1.417,1.417v9.917a1.417,1.417,0,1,0,2.833,0V29.75A1.417,1.417,0,0,0,72.25,28.333Z"/>
      <path id="Trazado_775819" data-name="Trazado 775819" d="M77.917,25.5A1.417,1.417,0,0,0,76.5,26.917v12.75a1.417,1.417,0,1,0,2.833,0V26.917A1.417,1.417,0,0,0,77.917,25.5Z"/>
    </g>
  </g>
</svg>
