<svg xmlns="http://www.w3.org/2000/svg" xmlns:xlink="http://www.w3.org/1999/xlink" width="85" height="85" viewBox="0 0 85 85">
  <defs>
    <clipPath id="clip-path">
      <rect id="Rect치ngulo_361648" data-name="Rect치ngulo 361648" width="85" height="85" transform="translate(338 614)" fill="#636363"/>
    </clipPath>
  </defs>
  <g id="Enmascarar_grupo_998590" data-name="Enmascarar grupo 998590" transform="translate(-338 -614)" clip-path="url(#clip-path)">
    <g id="castillo" transform="translate(338 614)">
      <path id="Trazado_775450" data-name="Trazado 775450" d="M28.15,51.29h0V78.936h29V51.29Z" fill="#fcdcae"/>
      <rect id="Rect치ngulo_361647" data-name="Rect치ngulo 361647" width="5.202" height="27.647" transform="translate(28.15 51.29)" fill="#f9d395"/>
      <path id="Trazado_775451" data-name="Trazado 775451" d="M42.65,8.341V20.79L53.89,15.582c1.212-.561,1.212-1.472,0-2.033Z" fill="#f95753"/>
      <path id="Trazado_775452" data-name="Trazado 775452" d="M47.215,10.456,42.65,8.341V20.79l4.566-2.115Z" fill="#cc4a4a"/>
      <circle id="Elipse_8761" data-name="Elipse 8761" cx="2.246" cy="2.246" r="2.246" transform="translate(40.403 1.289)" fill="#f95753"/>
      <path id="Trazado_775453" data-name="Trazado 775453" d="M43.773,1.592a2.245,2.245,0,1,0,0,3.886A2.244,2.244,0,0,1,43.773,1.592Z" fill="#cc4a4a"/>
      <path id="Trazado_775454" data-name="Trazado 775454" d="M60.709,28.46H57.226a2.2,2.2,0,0,0-2.2,2.2v6.784H46.592V30.66a2.2,2.2,0,0,0-2.2-2.2H40.908a2.2,2.2,0,0,0-2.2,2.2v6.784H30.274V30.66a2.2,2.2,0,0,0-2.2-2.2H24.59a2.2,2.2,0,0,0-2.2,2.2V44.227a2.2,2.2,0,0,0,2.2,2.2H60.709a2.2,2.2,0,0,0,2.2-2.2V30.66A2.2,2.2,0,0,0,60.709,28.46Z" fill="#fcdcae"/>
      <path id="Trazado_775455" data-name="Trazado 775455" d="M26.486,44.227V30.66a2.2,2.2,0,0,1,1.894-2.176c-.234-.033.012-.024-3.789-.024a2.2,2.2,0,0,0-2.2,2.2V44.227a2.2,2.2,0,0,0,2.2,2.2h4.1A2.2,2.2,0,0,1,26.486,44.227Z" fill="#f9d395"/>
      <path id="Trazado_775456" data-name="Trazado 775456" d="M64.04,81.2a2.6,2.6,0,0,1-2.6,2.6H23.857a2.6,2.6,0,0,1-2.6-2.6h0a2.6,2.6,0,0,1,2.6-2.6H61.443a2.6,2.6,0,0,1,2.6,2.6Z" fill="#f2b668"/>
      <path id="Trazado_775457" data-name="Trazado 775457" d="M61.443,81.2H23.857a2.6,2.6,0,0,1-2.247-1.3,2.6,2.6,0,0,0,2.247,3.9H61.443a2.6,2.6,0,0,0,2.247-3.9A2.594,2.594,0,0,1,61.443,81.2Z" fill="#e59a41"/>
      <path id="Trazado_775458" data-name="Trazado 775458" d="M24.247,46.428l3.9,4.971h29l3.9-4.971Z" fill="#f9c882"/>
      <path id="Trazado_775459" data-name="Trazado 775459" d="M24.247,46.428l3.9,4.971h5.2l-3.9-4.971Z" fill="#f2b057"/>
      <path id="Trazado_775460" data-name="Trazado 775460" d="M61.293,77.315H58.245V59.85a1.245,1.245,0,0,0-2.49,0V77.315H29.246V52.823H55.754v2.793a1.245,1.245,0,1,0,2.49,0V51.994l3.419-4.55A3.449,3.449,0,0,0,64,44.183V38.6a1.245,1.245,0,1,0-2.49,0v5.585a.956.956,0,0,1-.955.955H24.441a.956.956,0,0,1-.955-.955V30.616a.956.956,0,0,1,.955-.955h3.484a.956.956,0,0,1,.955.955V37.4a1.245,1.245,0,0,0,1.245,1.245h8.434A1.245,1.245,0,0,0,39.8,37.4V30.616a.956.956,0,0,1,.955-.955h3.484a.956.956,0,0,1,.955.955V37.4a1.245,1.245,0,0,0,1.245,1.245h8.434A1.245,1.245,0,0,0,56.121,37.4V30.616a.956.956,0,0,1,.955-.955h3.484a.956.956,0,0,1,.955.955v3.832a1.245,1.245,0,1,0,2.49,0V30.616a3.449,3.449,0,0,0-3.445-3.445H57.075a3.449,3.449,0,0,0-3.445,3.445v5.538H47.687V30.616a3.449,3.449,0,0,0-3.445-3.445h-.5V21.541l10.519-4.874c2.174-1.007,2.173-3.286,0-4.293L43.745,7.5V6.749a3.491,3.491,0,1,0-2.49,0V27.17h-.5a3.449,3.449,0,0,0-3.445,3.445v5.538H31.37V30.616a3.449,3.449,0,0,0-3.445-3.445H24.441A3.449,3.449,0,0,0,21,30.616V44.183a3.449,3.449,0,0,0,2.341,3.26l3.419,4.55V77.315H23.708a3.843,3.843,0,1,0,0,7.685H27.4a1.245,1.245,0,1,0,0-2.49H23.708a1.352,1.352,0,1,1,0-2.7H61.293a1.352,1.352,0,0,1,0,2.7H31.384a1.245,1.245,0,0,0,0,2.49H61.293a3.843,3.843,0,0,0,0-7.685Zm-8.32-62.794L43.746,18.8v-8.55ZM42.5,2.49a1,1,0,1,1-1,1A1,1,0,0,1,42.5,2.49ZM58.41,47.628l-2.032,2.7H28.623l-2.032-2.7Z"/>
    </g>
  </g>
</svg>
