<svg xmlns="http://www.w3.org/2000/svg" xmlns:xlink="http://www.w3.org/1999/xlink" width="148.59" height="286.462" viewBox="0 0 148.59 286.462">
  <defs>
    <clipPath id="clip-path">
      <rect id="Rectángulo_361878" data-name="Rectángulo 361878" width="57" height="57" transform="translate(1245 6895)" fill="#fe502d"/>
    </clipPath>
  </defs>
  <g id="Grupo_1029815" data-name="Grupo 1029815" transform="translate(-1198.705 -6772.585)">
    <g id="Grupo_1029728" data-name="Grupo 1029728" transform="translate(204.383 8)">
      <rect id="Rectángulo_361869" data-name="Rectángulo 361869" width="4.902" height="2.451" transform="translate(1066.064 7032.688)" fill="#2d54fe"/>
      <path id="Trazado_776602" data-name="Trazado 776602" d="M128.08,627.589h-4.9v-4.877h4.9Zm0-9.751h-4.9v-4.877h4.9Zm0-9.75h-4.9v-4.877h4.9Zm0-9.751h-4.9v-4.877h4.9Z" transform="translate(942.887 6400.223)" fill="#fe502d"/>
      <path id="Trazado_776603" data-name="Trazado 776603" d="M131.922,701.942a15.908,15.908,0,1,1-15.908-15.907,15.908,15.908,0,0,1,15.908,15.907" transform="translate(952.502 6333.197)" fill="#fe502d"/>
      <path id="Trazado_776563" data-name="Trazado 776563" d="M1530.253,180.015l-74.3,74.293-74.294-74.293V95.7L1455.958,21.4l74.3,74.3Z" transform="translate(-387.341 6743.183)" fill="#fe502d"/>
      <path id="Trazado_776564" data-name="Trazado 776564" d="M1405.44,188.284v-72.83l60.426-60.426,60.428,60.429v72.827l-60.428,60.426Z" transform="translate(-397.249 6729.17)" fill="#fff"/>
      <rect id="Rectángulo_361847" data-name="Rectángulo 361847" width="82.345" height="82.345" transform="translate(1010.391 6822.813) rotate(-45)" fill="#fe502d"/>
      <path id="Trazado_776589" data-name="Trazado 776589" d="M1477.916,82.905a85.928,85.928,0,0,1,13.021-.885c8.09,0,13.336,1.454,17.444,4.551,4.424,3.287,7.206,8.533,7.206,16.054,0,8.154-2.971,13.779-7.079,17.255-4.488,3.729-11.313,5.5-19.657,5.5a83.39,83.39,0,0,1-10.935-.632Zm9.67,34.763a17.733,17.733,0,0,0,3.35.19c8.722.064,14.41-4.74,14.41-14.917.064-8.848-5.119-13.526-13.4-13.526a20.038,20.038,0,0,0-4.361.379Z" transform="translate(-427.454 6717.921)" fill="#fff"/>
    </g>
    <g id="Enmascarar_grupo_998663" data-name="Enmascarar grupo 998663" clip-path="url(#clip-path)">
      <g id="gestion-del-talento" transform="translate(1244.551 6894.551)">
        <g id="Grupo_1029735" data-name="Grupo 1029735">
          <path id="Trazado_776648" data-name="Trazado 776648" d="M2.344,37.735l5.042-.685a1.316,1.316,0,0,1,1.477,1.123l2.214,16.307a1.316,1.316,0,0,1-1.123,1.477l-5.042.685a1.316,1.316,0,0,1-1.477-1.123L1.22,39.211a1.316,1.316,0,0,1,1.123-1.477Z" fill="#ffb632" fill-rule="evenodd"/>
          <path id="Trazado_776649" data-name="Trazado 776649" d="M49.268,15.927c1.19,0,2.155.947,2.155,2.722s-.965,3.213-2.155,3.213-2.155-1.439-2.155-3.213.965-2.722,2.155-2.722Z" fill="#e0b999" fill-rule="evenodd"/>
          <path id="Trazado_776650" data-name="Trazado 776650" d="M45.466,29.584l-.941,4.09H41.831l1.6-9.083a1.3,1.3,0,0,1,1.334-1.036h2.7l1.806,1.806,1.806-1.806h2.663A1.305,1.305,0,0,1,55.09,24.6l1.6,9.076H54.008l-.925-4.256-.14,4.256H45.581Z" fill="#2d85cc" fill-rule="evenodd"/>
          <path id="Trazado_776651" data-name="Trazado 776651" d="M8.63,15.927c-1.19,0-2.155.947-2.155,2.722s.965,3.213,2.155,3.213,2.155-1.439,2.155-3.213S9.82,15.927,8.63,15.927Z" fill="#e0b999" fill-rule="evenodd"/>
          <path id="Trazado_776652" data-name="Trazado 776652" d="M12.432,29.584l.941,4.09h2.694l-1.6-9.083a1.3,1.3,0,0,0-1.334-1.036h-2.7L8.63,25.361,6.823,23.555H4.16A1.305,1.305,0,0,0,2.809,24.6l-1.6,9.076H3.89l.925-4.256.14,4.256h7.362Z" fill="#2d85cc" fill-rule="evenodd"/>
          <path id="Trazado_776653" data-name="Trazado 776653" d="M29.337,1.244c1.189,0,2.154.947,2.154,2.72s-.964,3.211-2.154,3.211-2.154-1.438-2.154-3.211S28.148,1.244,29.337,1.244Z" fill="#e0b999" fill-rule="evenodd"/>
          <path id="Trazado_776654" data-name="Trazado 776654" d="M25.537,14.894l-.961,4.178H21.888L23.5,9.9a1.3,1.3,0,0,1,1.333-1.036h2.694l1.805,1.805,1.805-1.805H33.8a1.3,1.3,0,0,1,1.351,1.043l1.615,9.16H34.094l-.944-4.343-.143,4.343H25.654Z" fill="#2d85cc" fill-rule="evenodd"/>
          <path id="Trazado_776655" data-name="Trazado 776655" d="M29.513,22.514l1.936,3.9a.6.6,0,0,0,.477.339l4.115.525A.619.619,0,0,1,36.4,28.34L33.28,31.388a.6.6,0,0,0-.175.558l.772,4.076a.619.619,0,0,1-.9.664L29.12,34.665a.6.6,0,0,0-.585.006L24.9,36.665a.619.619,0,0,1-.909-.647l.729-4.3a.6.6,0,0,0-.186-.555l-3.021-2.844a.619.619,0,0,1,.334-1.064l4.312-.634a.6.6,0,0,0,.47-.348L28.4,22.525a.619.619,0,0,1,1.115-.011Z" fill="#ffb632" fill-rule="evenodd"/>
          <g id="Grupo_1029734" data-name="Grupo 1029734">
            <path id="Trazado_776656" data-name="Trazado 776656" d="M9.177,40.5l1.69,12.445a.789.789,0,0,1,.252.006c1.69.322,3.217.692,4.709,1.053a44.179,44.179,0,0,0,15.092,1.549c2.64-.164,6.882-1.967,11.156-4.317a64.1,64.1,0,0,0,12.649-8.822A3.2,3.2,0,0,0,55.9,40.477a.686.686,0,0,0-.2-.49,1.675,1.675,0,0,0-.732-.406,4.445,4.445,0,0,0-3.189.376c-3.978,2.105-7.175,3.881-9.508,5.176a39.7,39.7,0,0,1-4.418,2.283c-.8.795-2.254,1.279-4.541.948L23.18,46.893a.79.79,0,1,1,.223-1.565L33.539,46.8c1.728.25,2.731-.028,3.216-.513q.028-.028.054-.058l.034-.04a1.119,1.119,0,0,0,.221-.456,1.352,1.352,0,0,0-.024-.65,1.472,1.472,0,0,0-.977-1.045c-3.865-1.087-6.671-2.018-8.89-2.754-6.407-2.126-7.749-2.571-17.971-.789l-.026,0Z" fill="#f0c6a4" fill-rule="evenodd"/>
            <path id="Trazado_776657" data-name="Trazado 776657" d="M37.112,43.744a2.3,2.3,0,0,1,.717,2.186c.421-.225,1.6-1.021,3.68-2.175,1.888-1.048,4.332-2.406,7.235-3.966-.006-.283-.123-.426-.319-.465-1.87-.371-6.916,2.19-10.195,3.855-.388.2-.751.381-1.118.565Z" fill="#e0b999" fill-rule="evenodd"/>
          </g>
        </g>
        <path id="Trazado_776658" data-name="Trazado 776658" d="M26.273,27.411a1.389,1.389,0,0,0,1.07-.794l1.616-3.423,1.775,3.579a1.384,1.384,0,0,0,1.084.772l3.756.479-2.857,2.794a1.389,1.389,0,0,0-.4,1.27l.706,3.72-3.54-1.853a1.387,1.387,0,0,0-1.331.012l-3.32,1.821.668-3.94a1.393,1.393,0,0,0-.424-1.263l-2.756-2.594Zm-2.349,4.265-.712,4.2a1.41,1.41,0,0,0,2.068,1.472L28.832,35.4l3.774,1.977a1.405,1.405,0,0,0,1.494-.116,1.4,1.4,0,0,0,.546-1.4l-.754-3.98,3.045-2.979a1.411,1.411,0,0,0-.808-2.408l-4.018-.512-1.893-3.817a1.4,1.4,0,0,0-1.262-.785h-.015a1.4,1.4,0,0,0-1.262.807l-1.729,3.663-4.214.621a1.409,1.409,0,0,0-.761,2.421Zm.364-21.611a.519.519,0,0,1,.552-.38H27.2l1.572,1.572a.791.791,0,0,0,1.119,0l1.571-1.571H33.8a.532.532,0,0,1,.57.388l1.45,8.22H34.722l-.807-3.715a.792.792,0,0,0-1.565.142l-.118,3.572H26.424l-.1-3.4a.792.792,0,0,0-1.563-.155l-.817,3.559H22.838Zm-2.394,9.811h2.685a.79.79,0,0,0,.538-.211.788.788,0,0,0,.538.211H33a.793.793,0,0,0,.543-.216.791.791,0,0,0,.543.216h2.673a.791.791,0,0,0,.779-.93L35.923,9.8A2.089,2.089,0,0,0,33.8,8.1H31.137a.792.792,0,0,0-.56.232L29.334,9.578,28.09,8.334a.792.792,0,0,0-.56-.232H24.84a2.076,2.076,0,0,0-2.111,1.688l-1.615,9.156a.791.791,0,0,0,.78.93Zm7.44-17.806c.838,0,1.359.738,1.359,1.926,0,1.424-.717,2.415-1.359,2.415S27.975,5.42,27.975,4c0-1.187.52-1.926,1.359-1.926Zm0,5.924c1.65,0,2.942-1.756,2.942-4,0-2.411-1.525-3.509-2.942-3.509S26.392,1.586,26.392,4C26.392,6.239,27.684,7.995,29.334,7.995ZM3.619,24.741a.531.531,0,0,1,.57-.388H6.521l1.572,1.572a.792.792,0,0,0,1.119,0l1.572-1.572h2.365a.52.52,0,0,1,.553.381l1.435,8.142H14.019l-.8-3.47a.792.792,0,0,0-1.563.155l-.094,3.316H5.748l-.114-3.485a.792.792,0,0,0-1.565-.142l-.788,3.628h-1.1ZM1.241,34.46H3.919a.792.792,0,0,0,.533-.206.787.787,0,0,0,.531.206h7.353a.786.786,0,0,0,.527-.2.788.788,0,0,0,.527.2h2.691a.791.791,0,0,0,.779-.93l-1.6-9.07a2.078,2.078,0,0,0-2.112-1.689H10.456A.791.791,0,0,0,9.9,23L8.653,24.246,7.409,23a.792.792,0,0,0-.56-.232H4.189a2.091,2.091,0,0,0-2.13,1.7L.462,33.53a.791.791,0,0,0,.779.93ZM8.653,16.735c.839,0,1.36.738,1.36,1.927,0,1.424-.717,2.417-1.36,2.417s-1.36-.993-1.36-2.417c0-1.188.521-1.927,1.361-1.927Zm0,5.927c1.651,0,2.943-1.757,2.943-4,0-2.412-1.526-3.51-2.944-3.51s-2.944,1.1-2.944,3.51c0,2.242,1.294,4,2.944,4Zm35.538,2.073a.52.52,0,0,1,.553-.381h2.363l1.573,1.572a.791.791,0,0,0,1.118,0l1.573-1.572H53.7a.531.531,0,0,1,.57.388l1.435,8.135h-1.1l-.788-3.628a.792.792,0,0,0-1.565.142l-.115,3.485H46.327l-.094-3.316a.792.792,0,0,0-1.563-.155l-.8,3.47H42.755ZM41.811,34.46H44.5a.787.787,0,0,0,.527-.2.786.786,0,0,0,.527.2H52.91a.786.786,0,0,0,.531-.206.789.789,0,0,0,.533.206h2.678a.791.791,0,0,0,.779-.93l-1.6-9.064a2.091,2.091,0,0,0-2.129-1.7H51.044a.792.792,0,0,0-.56.232l-1.245,1.244L47.995,23a.792.792,0,0,0-.56-.232H44.744a2.077,2.077,0,0,0-2.113,1.689l-1.6,9.07a.791.791,0,0,0,.779.93Zm7.427-17.725c.839,0,1.36.738,1.36,1.927,0,1.424-.717,2.417-1.36,2.417s-1.359-.993-1.359-2.417c0-1.188.52-1.927,1.359-1.927Zm0,5.927c1.651,0,2.944-1.757,2.944-4,0-2.412-1.525-3.51-2.944-3.51s-2.942,1.1-2.942,3.51c0,2.242,1.293,4,2.942,4Zm5.446,19.732a61.736,61.736,0,0,1-11.493,8.172c-5.221,2.985-9.7,4.79-12.281,4.95a44.206,44.206,0,0,1-15.068-1.548c-1.312-.318-2.664-.645-4.141-.941L9.981,40.351c9.551-1.639,10.8-1.221,17.109.885,2.23.744,5,1.671,8.961,2.784a1.5,1.5,0,0,1,1,1.674c-.2.952-1.549,1.365-3.519,1.081L23.41,45.305a.792.792,0,0,0-.228,1.567l10.124,1.47a9.932,9.932,0,0,0,1.41.109,4.294,4.294,0,0,0,3.045-.974,7.63,7.63,0,0,0,1.265-.589c.759-.4,1.849-1.005,3.23-1.772,2.345-1.3,5.557-3.086,9.5-5.171,1.51-.8,3.449-.608,3.976.109.346.469-.044,1.345-1.046,2.34ZM9.868,55.139a.526.526,0,0,0,.444-.585L8.1,38.268a.527.527,0,0,0-.585-.444l-5.035.684a.524.524,0,0,0-.444.584L4.249,55.379a.52.52,0,0,0,.584.443ZM38.219,43.162l-.379.192a3.168,3.168,0,0,1,.816,1.937c.757-.407,1.756-.961,2.832-1.559,1.879-1.044,4.314-2.4,7.233-3.964,0-.185-.026-.319-.093-.369-.115-.088-.856-.463-4.062.788C42.456,41.012,40.106,42.2,38.219,43.162Zm18.788-4.047c.509.691,1.028,2.18-1.2,4.4a63.377,63.377,0,0,1-11.824,8.425c-3.188,1.823-9.111,4.916-12.969,5.155-1.205.075-2.323.109-3.37.109a46.491,46.491,0,0,1-12.169-1.7c-1.143-.277-2.319-.561-3.573-.823a2.1,2.1,0,0,1-1.816,2.024l-5.036.684a2.213,2.213,0,0,1-.285.019,2.107,2.107,0,0,1-2.079-1.819L.469,39.3a2.106,2.106,0,0,1,1.8-2.365L7.3,36.255a2.1,2.1,0,0,1,2.366,1.8l.1.726c9.906-1.691,11.516-1.153,17.825.953,2.158.72,4.83,1.614,8.6,2.679.394-.2.843-.423,1.314-.663,5.521-2.8,10.24-5.01,12.082-3.613a1.738,1.738,0,0,1,.6.846l.827-.438c2.136-1.132,4.936-.865,5.993.569Z" fill="#242222" fill-rule="evenodd"/>
      </g>
    </g>
  </g>
</svg>
