<svg xmlns="http://www.w3.org/2000/svg" xmlns:xlink="http://www.w3.org/1999/xlink" width="85" height="85" viewBox="0 0 85 85">
  <defs>
    <clipPath id="clip-path">
      <rect id="Rectángulo_361665" data-name="Rectángulo 361665" width="56" height="56" transform="translate(615 2746)" fill="#ffca00"/>
    </clipPath>
  </defs>
  <g id="Grupo_1029817" data-name="Grupo 1029817" transform="translate(-600 -2731)">
    <circle id="Elipse_8766" data-name="Elipse 8766" cx="42.5" cy="42.5" r="42.5" transform="translate(600 2731)" fill="#2d54fe"/>
    <g id="Enmascarar_grupo_998597" data-name="Enmascarar grupo 998597" clip-path="url(#clip-path)">
      <g id="evaluacion" transform="translate(613.134 2744.133)">
        <path id="Trazado_775489" data-name="Trazado 775489" d="M56.387,30.884a2.868,2.868,0,0,0-3.96,0l-9.9,9.9a.933.933,0,0,0-.25.45l-.989,4.293a.933.933,0,0,0,1.12,1.12l4.293-.99a.933.933,0,0,0,.451-.25L57.046,35.5a2.8,2.8,0,0,0,0-3.96Zm-12.945,13.6.524-2.267,1.743,1.743Zm3.705-1.725-1.981-1.977,6.6-6.6,1.98,1.98Zm8.579-8.58-.66.662-1.98-1.98.662-.662a.955.955,0,0,1,1.318,0l.66.661a.933.933,0,0,1,0,1.319Z" fill="#ffca00"/>
        <path id="Trazado_775490" data-name="Trazado 775490" d="M29.753,49.9l-1.32,1.32,2.64,2.64a.933.933,0,0,0,1.32,0l5.94-5.94-1.32-1.32-5.28,5.28Z" fill="#ffca00"/>
        <path id="Trazado_775491" data-name="Trazado 775491" d="M40.133,41.067V31.733A3.733,3.733,0,0,0,36.4,28h-.962A4.667,4.667,0,1,0,29.9,28h-.962A3.733,3.733,0,0,0,25.2,31.733v9.333a.933.933,0,0,0,.933.933H39.2A.933.933,0,0,0,40.133,41.067Zm-10.267-16.8a2.8,2.8,0,1,1,2.8,2.8A2.8,2.8,0,0,1,29.867,24.267Zm8.4,15.867h-11.2v-8.4a1.867,1.867,0,0,1,1.867-1.867H36.4a1.867,1.867,0,0,1,1.867,1.867Z" fill="#ffca00"/>
        <path id="Trazado_775492" data-name="Trazado 775492" d="M4.46,20.663a13.244,13.244,0,0,0,.889,2.129.373.373,0,0,1-.076.434.944.944,0,0,0-.093.108,2.24,2.24,0,0,0,.087,3.058l1.947,1.947a2.24,2.24,0,0,0,3.047.086.942.942,0,0,0,.113-.1.373.373,0,0,1,.427-.079,13.383,13.383,0,0,0,2.152.9.361.361,0,0,1,.245.357,2.233,2.233,0,0,0,2.23,2.231h.439v25.2a.933.933,0,0,0,.933.933H43.867a.933.933,0,0,0,.66-.273l4.667-4.667a.933.933,0,0,0,.273-.66V48.533H47.6V51.88L43.48,56H17.733V17.733H47.6V30.8h1.867v-14a.933.933,0,0,0-.933-.933h-16.8v-.439A2.233,2.233,0,0,0,29.5,13.2a.367.367,0,0,1-.363-.26,13.244,13.244,0,0,0-.889-2.129.373.373,0,0,1,.076-.434.944.944,0,0,0,.093-.108,2.24,2.24,0,0,0-.087-3.058L26.386,5.261a2.24,2.24,0,0,0-3.047-.086.942.942,0,0,0-.113.1.373.373,0,0,1-.427.079,13.383,13.383,0,0,0-2.152-.9A.361.361,0,0,1,20.4,4.1a2.233,2.233,0,0,0-2.231-2.231H15.428A2.24,2.24,0,0,0,13.2,4.125a.329.329,0,0,1-.228.325,13.644,13.644,0,0,0-2.162.9.373.373,0,0,1-.434-.076.944.944,0,0,0-.107-.094,2.24,2.24,0,0,0-3.058.087L5.261,7.214a2.24,2.24,0,0,0-.086,3.047.942.942,0,0,0,.1.113.373.373,0,0,1,.079.427,13.383,13.383,0,0,0-.9,2.152A.361.361,0,0,1,4.1,13.2a2.233,2.233,0,0,0-2.231,2.231v2.744A2.233,2.233,0,0,0,4.1,20.4a.367.367,0,0,1,.363.26Zm12.34-4.8a.933.933,0,0,0-.933.933v6.459a6.533,6.533,0,1,1,7.392-7.392ZM3.733,18.172V15.428a.36.36,0,0,1,.364-.364,2.214,2.214,0,0,0,2.138-1.55,11.442,11.442,0,0,1,.772-1.847,2.254,2.254,0,0,0-.336-2.531.84.84,0,0,0-.085-.1.361.361,0,0,1,0-.51L8.522,6.592a.363.363,0,0,1,.515-.006.974.974,0,0,0,.093.082,2.254,2.254,0,0,0,2.538.337,11.947,11.947,0,0,1,1.852-.773A2.21,2.21,0,0,0,15.064,4.1a.36.36,0,0,1,.364-.364h2.744a.36.36,0,0,1,.364.364,2.214,2.214,0,0,0,1.55,2.138,11.442,11.442,0,0,1,1.847.772,2.252,2.252,0,0,0,2.531-.336.84.84,0,0,0,.1-.085.361.361,0,0,1,.51,0l1.936,1.936a.363.363,0,0,1,.006.515.974.974,0,0,0-.082.093,2.257,2.257,0,0,0-.335,2.542,11.3,11.3,0,0,1,.763,1.824,2.219,2.219,0,0,0,2.147,1.566.36.36,0,0,1,.364.364v.44H25.145a8.4,8.4,0,1,0-9.278,9.278v4.722h-.439a.36.36,0,0,1-.364-.364,2.214,2.214,0,0,0-1.55-2.138,11.442,11.442,0,0,1-1.847-.772,2.254,2.254,0,0,0-2.531.336.84.84,0,0,0-.1.085.363.363,0,0,1-.51,0L6.592,25.078a.363.363,0,0,1-.006-.515.973.973,0,0,0,.082-.093A2.257,2.257,0,0,0,7,21.926,11.3,11.3,0,0,1,6.237,20.1a2.219,2.219,0,0,0-2.147-1.566.36.36,0,0,1-.357-.364Z" fill="#ffca00"/>
      </g>
    </g>
  </g>
</svg>
